<svg width="80" height="80" viewBox="0 0 80 80" fill="none" xmlns="http://www.w3.org/2000/svg">
<g clip-path="url(#clip0_11_469)">
<path d="M15.0707 15.0352V64.9645H17.9962V61.8439C19.1916 61.8439 64.8977 61.8439 62.0744 61.8439V64.9645H65V15.0352C63.9492 15.0352 12.8445 15.0352 15.0707 15.0352ZM62.0744 17.9607V29.6629H56.1258V20.8862H47.3492V29.6629H44.4236V23.8118H32.7215V29.6629H29.7959V20.8862H21.0193V29.6629H17.9962V17.9607H62.0744ZM50.2747 35.514V44.2906H47.3492V35.514H35.647V44.2906H32.7215V38.4395H21.0193V44.2906H17.9962V32.5884C19.1757 32.5884 64.8566 32.5884 62.0744 32.5884V44.2906H59.0514V35.514H50.2747ZM56.1258 58.9183V53.0672H47.3492V58.9183H44.4236V53.0672H35.647V58.9183H32.7215V50.1417H21.0193V58.9183H17.9962V47.2161C18.8448 47.2161 63.3464 47.2161 62.0744 47.2161V58.9183H56.1258Z" fill="#1F5092"/>
</g>
<defs>
<clipPath id="clip0_11_469">
<rect width="50" height="50" fill="white" transform="translate(15 15)"/>
</clipPath>
</defs>
</svg>
