<svg width="80" height="80" viewBox="0 0 80 80" fill="none" xmlns="http://www.w3.org/2000/svg">
<path d="M64.1957 41.8205C64.273 43.6665 63.6149 45.4678 62.3657 46.8291C61.1166 48.1905 59.3785 49.0008 57.5326 49.0822C57.4247 49.0872 57.317 49.0897 57.2094 49.0897C56.719 49.0894 56.23 49.0363 55.7509 48.9314C54.3294 51.1262 52.4654 53.0002 50.2783 54.4334C48.0911 55.8666 45.6288 56.8275 43.049 57.2547C42.7439 58.1511 42.1352 58.9128 41.328 59.408C40.5209 59.9032 39.5661 60.1008 38.6287 59.9667C37.6913 59.8326 36.8303 59.3752 36.1943 58.6736C35.5584 57.972 35.1876 57.0702 35.146 56.1242C35.1044 55.1782 35.3947 54.2474 35.9666 53.4926C36.5385 52.7379 37.3561 52.2067 38.2781 51.9909C39.2001 51.7751 40.1686 51.8882 41.016 52.3106C41.8635 52.7331 42.5367 53.4384 42.9194 54.3046C46.5514 53.6329 49.8325 51.708 52.1909 48.8653C54.5493 46.0227 55.8354 42.4426 55.8251 38.749C55.8251 30.0229 48.726 22.9238 39.9999 22.9238C31.2739 22.9238 24.1747 30.0229 24.1747 38.749C24.1743 41.4473 24.8638 44.1008 26.178 46.4574C26.2225 46.5352 26.2559 46.6188 26.2773 46.7059C26.4042 47.0587 26.3906 47.4467 26.2394 47.7898C26.0881 48.1329 25.8107 48.4047 25.4647 48.5489C24.6173 48.9056 23.7071 49.0892 22.7877 49.0891C22.6795 49.0891 22.5711 49.0866 22.4624 49.0815C20.6174 48.9991 18.8804 48.1883 17.6322 46.827C16.384 45.4658 15.7266 43.6651 15.8041 41.8198C15.8353 41.084 15.8179 40.4274 15.8009 39.7926C15.7851 39.1948 15.7686 38.5767 15.7957 37.9316C15.8767 36.1299 16.6518 34.4295 17.9585 33.1864C19.2652 31.9433 21.0022 31.2541 22.8057 31.263C25.7018 24.6368 32.3183 19.9941 39.9999 19.9941C47.6816 19.9941 54.2982 24.6368 57.1943 31.2631C58.9979 31.2528 60.7355 31.9415 62.0424 33.1846C63.3494 34.4277 64.1241 36.1286 64.204 37.9306C64.2313 38.5766 64.2149 39.1946 64.1989 39.7924C64.1821 40.4273 64.1646 41.0842 64.1957 41.8205ZM52.2856 38.749C52.2849 40.6312 51.8519 42.4881 51.02 44.1764C50.1881 45.8648 48.9796 47.3395 47.4876 48.4869C45.9956 49.6343 44.26 50.4237 42.4147 50.7943C40.5693 51.1648 38.6635 51.1066 36.8443 50.624L31.8715 53.4958C31.6206 53.6407 31.3324 53.7079 31.0432 53.689C30.7541 53.6701 30.4771 53.5658 30.2472 53.3894C30.0174 53.2131 29.845 52.9725 29.7518 52.6981C29.6587 52.4237 29.649 52.1279 29.724 51.848L30.9949 47.107C28.8903 44.8321 27.7192 41.8482 27.7148 38.749C27.7148 31.9729 33.2256 26.4605 39.9999 26.4605C46.7742 26.4605 52.2856 31.9729 52.2856 38.749ZM36.5844 38.749C36.5844 38.3605 36.4301 37.9879 36.1554 37.7132C35.8806 37.4385 35.5081 37.2842 35.1196 37.2842H35.1171C34.8275 37.2847 34.5446 37.3711 34.304 37.5324C34.0635 37.6937 33.8762 37.9226 33.7657 38.1903C33.6553 38.4581 33.6267 38.7525 33.6835 39.0365C33.7403 39.3204 33.88 39.5812 34.085 39.7858C34.29 39.9904 34.551 40.1296 34.8351 40.1859C35.1192 40.2422 35.4135 40.213 35.681 40.1021C35.9486 39.9911 36.1772 39.8034 36.338 39.5626C36.4988 39.3217 36.5847 39.0386 36.5847 38.749H36.5844ZM41.4651 38.749C41.4649 38.7011 41.4623 38.6532 41.4573 38.6055C41.4526 38.5576 41.4455 38.51 41.4359 38.4629C41.4271 38.416 41.4153 38.3696 41.4006 38.3242C41.387 38.2783 41.3704 38.2334 41.3529 38.1885C41.3353 38.1436 41.3138 38.1016 41.2913 38.0596C41.269 38.0173 41.2446 37.9763 41.2181 37.9365C41.1914 37.8964 41.1627 37.8576 41.1321 37.8203C41.102 37.783 41.0697 37.7474 41.0355 37.7139C41.0023 37.6797 40.9661 37.6475 40.929 37.6162C40.8918 37.5869 40.8528 37.5576 40.8127 37.5312C40.773 37.5048 40.732 37.4803 40.6898 37.458C40.6477 37.4355 40.6038 37.415 40.5598 37.3965C40.5158 37.3781 40.4709 37.3621 40.4251 37.3486C40.3338 37.3193 40.2394 37.3003 40.1439 37.292C40.0004 37.2782 39.8557 37.2851 39.7142 37.3125C39.6671 37.3221 39.6205 37.3342 39.5746 37.3486C39.5289 37.3621 39.4839 37.378 39.4399 37.3965C39.3959 37.415 39.352 37.4355 39.31 37.458C39.268 37.4805 39.227 37.5049 39.1868 37.5312C39.1467 37.5576 39.1077 37.5869 39.0717 37.6162C39.0336 37.6475 38.9985 37.6797 38.9643 37.7139C38.93 37.7475 38.8977 37.783 38.8675 37.8203C38.8373 37.8576 38.8089 37.8964 38.7826 37.9365C38.7558 37.9762 38.731 38.0173 38.7084 38.0596C38.6859 38.1014 38.6656 38.1444 38.6478 38.1885C38.6292 38.2329 38.6129 38.2782 38.5989 38.3242C38.5854 38.3691 38.5737 38.416 38.5639 38.4629C38.5542 38.51 38.547 38.5576 38.5423 38.6055C38.5375 38.6533 38.5355 38.7012 38.5355 38.749C38.5355 38.7969 38.5375 38.8457 38.5423 38.8936C38.5471 38.9411 38.5543 38.9883 38.5639 39.0352C38.5737 39.082 38.5854 39.1289 38.5989 39.1748C38.6129 39.2205 38.6292 39.2655 38.6478 39.3096C38.6656 39.3539 38.6859 39.3973 38.7084 39.4395C38.7308 39.4814 38.7563 39.5225 38.7826 39.5625C38.8089 39.6023 38.8373 39.6408 38.8675 39.6777C38.8979 39.7151 38.9302 39.751 38.9643 39.7852C38.9985 39.8184 39.0336 39.8516 39.0717 39.8818C39.1084 39.9123 39.1469 39.9407 39.1868 39.9668C39.227 39.9932 39.2679 40.0186 39.31 40.041C39.3948 40.0852 39.4834 40.1218 39.5746 40.1504C39.6204 40.1641 39.6673 40.1758 39.7142 40.1855C39.8083 40.2048 39.9042 40.2143 40.0003 40.2139C40.3884 40.2128 40.7603 40.0588 41.0355 39.7852C41.103 39.7166 41.1641 39.6421 41.2181 39.5625C41.2445 39.5225 41.2689 39.4814 41.2913 39.4395C41.3138 39.3975 41.3343 39.3535 41.3529 39.3096C41.3714 39.2656 41.387 39.2197 41.4006 39.1748C41.4152 39.129 41.427 39.0824 41.4359 39.0352C41.4454 38.9884 41.4526 38.9411 41.4573 38.8936C41.4622 38.8455 41.4648 38.7972 41.4648 38.7488L41.4651 38.749ZM46.3479 38.749C46.3479 38.3605 46.1935 37.9879 45.9188 37.7132C45.6441 37.4385 45.2715 37.2842 44.883 37.2842H44.8802C44.5906 37.2847 44.3077 37.3711 44.0672 37.5324C43.8266 37.6937 43.6393 37.9227 43.5289 38.1904C43.4184 38.4581 43.3898 38.7526 43.4467 39.0365C43.5035 39.3205 43.6433 39.5812 43.8482 39.7858C44.0532 39.9904 44.3142 40.1296 44.5983 40.1859C44.8824 40.2422 45.1768 40.213 45.4443 40.1021C45.7118 39.9911 45.9404 39.8034 46.1012 39.5626C46.262 39.3217 46.3479 39.0386 46.3479 38.749Z" fill="#1F5092"/>
</svg>
