<svg width="80" height="80" viewBox="0 0 80 80" fill="none" xmlns="http://www.w3.org/2000/svg">
<g clip-path="url(#clip0_11_452)">
<path fill-rule="evenodd" clip-rule="evenodd" d="M11.6656 20.7891C16.8238 18.7262 21.5725 23.6846 24.7875 23.3544C29.0384 23.3819 27.7785 22.0209 29.899 22.4641C30.9992 22.7145 31.9643 22.9356 32.7744 23.4955C33.402 23.9948 33.7328 24.7476 34.2492 25.4148C36.3715 27.3729 35.2561 26.3148 36.4521 27.9112C36.7136 28.2194 37.0814 28.1424 37.3928 27.8484C37.844 27.4319 38.1977 26.7665 38.6121 26.655C39.6892 26.3268 41.6349 27.1293 42.203 27.8677C42.9557 28.7205 43.3149 30.0842 43.9075 30.8911C46.46 34.3731 46.4806 33.9151 48.4676 34.5219C48.696 34.621 49.3329 34.7724 49.1244 34.9916C48.4056 36.1935 48.3526 37.523 48.2629 38.8396C47.9173 46.8163 48.9455 45.877 50.142 47.7627C50.5895 48.5054 50.8104 49.2285 51.4096 49.7944C52.0386 50.3943 52.8451 50.5017 53.5667 50.8388C54.1819 51.086 54.5412 51.794 55.2106 51.8828C56.1876 52.0083 57.0547 51.5208 58.0324 51.4087C59.5337 51.1663 60.3894 50.7134 61.1388 49.3861C61.6397 48.4805 62.049 47.7028 62.1467 46.8109C62.3316 45.1401 64.2019 44.8776 65.6074 44.8853C66.2612 44.8795 66.8359 44.9495 67.3344 44.9047C70.1471 44.6028 66.9729 45.4977 67.079 48.8915C67.0461 49.4531 67.008 50.0021 66.8415 50.4933C66.643 51.4343 64.7037 52.3681 63.5272 52.9025C63.0824 53.2721 60.7014 52.8777 60.7211 53.7178C63.8174 58.2761 59.6791 55.9078 59.1554 57.685C58.9036 58.38 59.1722 59.2918 58.6641 59.7484C58.4275 59.6977 58.234 59.4978 58.037 59.3272C52.9391 54.6006 52.0165 57.637 49.5032 57.2253C48.1194 57.0337 46.8415 56.4234 45.5533 55.8979C41.7284 54.7593 42.285 53.9563 39.6646 52.6073C38.6778 52.1697 37.4115 52.045 36.743 51.5305C35.5767 50.6504 33.5512 48.8076 33.4722 47.7085C33.3802 47.1376 33.7602 46.2654 33.6913 45.4821C33.5558 44.3065 32.8375 41.9893 32.2269 41.4071C30.6462 39.8572 30.4242 38.6402 29.3151 37.3154C28.3943 36.18 27.2489 35.8517 26.0307 35.0264C25.8816 34.8795 26.0129 34.4129 25.9005 34.1353C25.5342 32.3982 23.7968 31.2254 22.524 29.9234C20.4003 27.9424 20.6265 24.5345 18.4433 23.2088C17.9376 22.9055 17.2626 22.6585 16.7813 22.9004C15.5022 24.5061 17.383 26.1187 18.1827 27.6419C20.3035 32.2336 21.2691 31.4948 22.2651 33.7601C23.1254 35.6486 23.4443 37.8078 24.5763 38.7429C25.2332 39.3446 26.1359 39.9859 26.307 40.6512C26.4312 41.0959 26.1651 41.5825 25.353 42.0035C24.2824 42.5086 24.0302 40.6207 23.413 40.0557C20.6198 37.0436 21.5104 37.7371 20.9607 34.8399C20.4574 33.1029 18.5705 33.345 17.3175 32.6933C15.3577 31.3973 17.0156 31.1282 17.1057 30.2064C17.0827 29.1057 16.4039 28.4225 15.6962 27.8707C15.4243 27.6422 15.1741 27.4216 14.9618 27.1251C14.605 26.6286 14.3938 26.0717 14.1986 25.4822C13.3361 22.0052 11.6282 22.2601 11.6656 20.7891Z" fill="#1F5092"/>
</g>
<defs>
<clipPath id="clip0_11_452">
<rect width="57" height="61" fill="white" transform="translate(11.5 9.5)"/>
</clipPath>
</defs>
</svg>
