<svg width="195" height="64" viewBox="0 0 195 64" fill="none" xmlns="http://www.w3.org/2000/svg">
<g clip-path="url(#clip0_11_496)">
<path fill-rule="evenodd" clip-rule="evenodd" d="M124.865 10.5312C119.832 12.9254 123.262 20.9252 128.738 18.3125C133.595 15.9949 130.138 8.02155 124.865 10.5312ZM116.784 26.6571L121.054 26.822C120.665 30.7038 116.639 45.4805 117.136 47.7533L123.013 47.7961C124.138 44.5569 125.048 38.7369 125.825 35.0844C126.29 32.8985 126.687 30.9189 127.185 28.6584C128.755 21.5401 130.913 21.2272 117.558 22.0565C117.027 23.1865 116.544 25.3982 116.784 26.6571H116.784ZM170.122 27.4049C170.522 26.372 171.393 24.4108 171.322 23.1247C168.322 20.6972 162.331 20.5045 158.774 22.6755C155.86 24.4535 152.95 29.5555 155.411 33.7143C157.574 37.3694 164.414 37.079 164.063 40.9798C163.846 43.3863 161.384 44.0405 158.901 43.8905C156.254 43.731 154.973 42.4803 152.727 42.086C152.287 43.011 151.395 45.1758 151.507 46.5847C155.007 48.4788 160.25 49.5612 164.606 47.9169C168.269 46.5345 170.876 42.694 170.076 37.8058C169.281 32.946 163.469 33.1272 161.363 30.7499C159.825 29.0133 161.052 26.5268 163.386 26.0917C166.618 25.4898 167.45 27.1586 170.122 27.4042L170.122 27.4049ZM133.702 47.7099C134.994 43.6469 135.547 38.7213 136.695 34.623C137.577 31.4747 140.149 25.4226 144.185 26.9557C146.528 29.8501 140.09 45.091 141.232 47.5918C142.516 48.1015 145.49 47.9759 147.08 47.6732C148.056 44.8426 148.758 40.842 149.438 37.7929C150.44 33.2989 155.192 20.2731 145.452 21.2164C141.041 21.6432 139.516 25.1518 137.7 25.8719C137.721 24.1814 137.6 22.5642 136.929 21.4207C135.917 21.1506 132.297 22.5648 131.421 23.3724C131.32 25.9906 132.068 26.6666 131.398 29.8949C130.669 33.4136 127.377 46.0079 127.795 47.8022L133.703 47.7106L133.702 47.7099ZM177.718 23.6792C177.547 25.0962 177.79 26.9387 178.132 28.3197C181.537 28.6333 190.096 22.6212 187.652 32.1663C183.312 32.6814 181.228 32.1405 177.376 34.1208C171.142 37.3267 169.803 47.5029 176.346 48.9063C181.49 50.0091 182.649 47.6257 185.658 46.3696L186.373 49.0482C187.817 48.9715 191.234 47.5633 192.267 46.9627C192.264 44.846 191.743 43.883 192.125 41.3388C192.756 37.1366 195.162 29.5528 194.713 26.085C193.845 19.3807 182.403 21.4695 177.719 23.6778L177.718 23.6792ZM186.55 36.6365C186.606 37.4325 186.07 41.8844 184.894 42.806C183.462 43.9271 180.861 44.8168 179.42 43.4602C177.648 41.7921 179.078 39.0891 180.421 38.0386C182.015 36.7926 184.13 36.5937 186.55 36.6358V36.6365ZM92.5963 19.2694C93.1053 18.7841 94.9125 16.263 95.2471 15.545C96.5196 12.8121 89.0857 10.1484 83.172 11.8627C69.8544 15.7235 67.5185 38.4946 72.0925 45.0673C76.7996 51.8313 88.6446 47.3102 89.2296 45.6339C89.2411 44.6173 88.1614 41.877 87.5201 41.0918C85.7801 41.3279 77.0867 47.6515 77.0792 36.2123C77.0751 30.15 79.6166 18.6518 85.7828 17.1696C89.8587 16.1897 90.0772 19.1506 92.5963 19.2694ZM103.442 21.5605C97.3774 23.0711 93.1298 28.3611 91.9353 35.2276C90.424 43.9156 93.8247 50.3566 103.01 48.4197C117.061 45.4575 120.645 17.2769 103.442 21.5605H103.442ZM103.582 26.8321C111.564 23.3276 107.786 41.2798 102.968 43.0449C94.8684 46.0126 98.5379 29.0472 103.582 26.8321Z" fill="#1F5092"/>
<path fill-rule="evenodd" clip-rule="evenodd" d="M16.3265 36.9846C15.0418 37.2832 9.46134 39.0993 8.64969 39.7806C7.28562 40.9255 8.33887 47.3536 8.71619 48.7136C11.8624 60.0537 23.7773 63.848 34.641 60.3679C37.9982 59.2923 42.9001 56.6116 45.5413 54.1597C46.9122 52.8872 47.5257 52.2853 45.3099 53.1777C44.2913 53.5883 43.1844 54.1101 42.1759 54.4535C30.2325 58.5139 15.8915 54.142 16.3265 36.9846Z" fill="#1F5092"/>
<path fill-rule="evenodd" clip-rule="evenodd" d="M35.2778 1.398C50.4298 4.62291 54.0884 17.8048 48.0722 29.3031C47.308 30.7635 45.7465 32.6318 45.4072 33.8439L52.5594 35.6674C54.9 33.5568 57.5216 28.3849 58.5721 24.6177C61.225 15.1018 57.622 5.18686 48.2439 1.42311C42.8935 -0.724113 39.1901 0.0169643 35.3416 0.695606C33.3552 1.04579 33.2731 0.971135 35.2778 1.398Z" fill="#5492C3"/>
<path fill-rule="evenodd" clip-rule="evenodd" d="M4.42801 23.3555C7.18262 18.9246 14.7257 13.7289 19.9506 11.9482C23.9763 10.576 28.5049 10.2651 32.7796 11.5227C38.7144 13.2688 40.1599 16.8106 41.5321 17.4886L47.1227 10.918C41.1419 -0.464189 21.0846 -0.443829 9.80489 12.5454C8.36346 14.2053 7.04146 15.8327 5.92645 17.9243C5.33196 19.04 4.86098 19.8951 4.352 21.1336C4.08869 21.7729 3.79484 22.3728 3.61975 22.934C3.03951 24.7955 3.35508 25.0812 4.42869 23.3555" fill="#1F5092"/>
<path fill-rule="evenodd" clip-rule="evenodd" d="M1.55413 47.8164C2.7309 50.5982 6.05217 54.4237 8.99476 56.011C11.8722 57.5631 11.2166 56.6367 9.89871 54.8295C9.38701 54.1278 8.8631 53.3548 8.3928 52.347C1.87445 38.3629 13.4344 22.609 23.3969 19.8625C23.2191 18.7672 20.5459 14.5487 19.7322 13.6468C15.3787 14.1022 8.89568 20.2853 6.87604 22.4617C0.846307 28.9624 -1.99245 39.4318 1.55413 47.8164Z" fill="#7E828B"/>
<path fill-rule="evenodd" clip-rule="evenodd" d="M28.8065 53.688C44.7003 56.4297 57.8028 46.0119 61.7186 33.4509C62.6985 30.3068 63.3019 23.7518 62.0118 20.0559C61.1818 17.6766 60.8805 17.811 60.6348 20.0946C60.4787 21.5448 60.3722 23.2374 60.0315 24.5933C57.8503 33.2758 51.0951 41.1033 42.5436 44.4103C37.4537 46.3791 35.3934 45.9488 29.8855 45.7079C29.2971 47.0835 28.609 52.0695 28.8058 53.688" fill="#7E828B"/>
<path fill-rule="evenodd" clip-rule="evenodd" d="M190.377 60.0062L190.549 59.1097H189.165C189.03 59.1097 188.911 59.124 188.811 59.1511C188.716 59.1782 188.634 59.2183 188.566 59.2712C188.496 59.3228 188.44 59.3886 188.396 59.468C188.349 59.5522 188.315 59.6533 188.292 59.7707C188.269 59.8935 188.268 59.9974 188.289 60.0808C188.307 60.1535 188.345 60.2139 188.4 60.2593C188.464 60.3129 188.554 60.355 188.67 60.3842C188.797 60.4154 188.954 60.4324 189.14 60.4324C189.35 60.4324 189.535 60.4208 189.694 60.3991C189.848 60.3774 189.977 60.3448 190.08 60.3041C190.171 60.2675 190.243 60.222 190.292 60.1691C190.334 60.1243 190.362 60.07 190.376 60.0075M190.813 57.7314C190.846 57.5604 190.853 57.4104 190.833 57.2848C190.814 57.1661 190.773 57.0656 190.711 56.9849C190.649 56.9062 190.566 56.8444 190.462 56.8037C190.349 56.7596 190.21 56.7365 190.045 56.7365C189.935 56.7365 189.827 56.7446 189.723 56.7609C189.614 56.7779 189.503 56.8037 189.394 56.8363C189.281 56.8695 189.176 56.9095 189.079 56.9543C188.976 57.0018 188.879 57.0548 188.79 57.1125L188.685 57.181L187.702 56.4053L187.846 56.2642C187.99 56.123 188.152 55.9961 188.327 55.8875C188.501 55.7789 188.691 55.6846 188.896 55.6072C189.1 55.5292 189.313 55.4708 189.532 55.4321C189.751 55.3935 189.976 55.3738 190.205 55.3738C190.458 55.3738 190.691 55.3969 190.901 55.4416C191.115 55.4871 191.309 55.5577 191.48 55.6513C191.654 55.747 191.804 55.8651 191.924 56.0042C192.046 56.144 192.14 56.3069 192.205 56.4881C192.269 56.6673 192.306 56.8634 192.315 57.0758C192.323 57.2848 192.304 57.5108 192.258 57.7504L191.514 61.6363H190.065L190.106 61.4212C190.028 61.4653 189.946 61.5046 189.862 61.5386C189.766 61.5779 189.66 61.6112 189.55 61.6376C189.443 61.6655 189.328 61.6865 189.209 61.7001C189.088 61.713 188.963 61.7204 188.837 61.7204C188.463 61.7204 188.138 61.6804 187.868 61.601C187.586 61.5182 187.358 61.3913 187.188 61.2216C187.014 61.0493 186.9 60.8314 186.847 60.5708C186.796 60.3218 186.803 60.0333 186.864 59.7076C186.923 59.4015 187.019 59.1314 187.152 58.898C187.286 58.6618 187.459 58.463 187.669 58.3048C187.876 58.1467 188.122 58.0293 188.404 57.9513C188.68 57.8746 188.991 57.8359 189.335 57.8359H190.792L190.812 57.7334L190.813 57.7314ZM183.078 61.7177C182.902 61.7177 182.73 61.7082 182.564 61.6906C182.398 61.6723 182.239 61.6458 182.091 61.6112C181.939 61.5759 181.794 61.5311 181.656 61.4788C181.515 61.4239 181.381 61.3601 181.257 61.2895C181.128 61.2162 181.009 61.1354 180.898 61.0465C180.787 60.9563 180.682 60.8565 180.586 60.7479L180.474 60.6231L181.549 59.5529L181.673 59.6635C181.8 59.7768 181.93 59.8766 182.06 59.9607C182.191 60.0449 182.324 60.1155 182.457 60.1697C182.59 60.2254 182.725 60.2675 182.86 60.2946C182.994 60.3218 183.133 60.3353 183.275 60.3353C183.488 60.3353 183.679 60.3184 183.844 60.2858C184.005 60.2539 184.14 60.2071 184.248 60.1473C184.351 60.0903 184.434 60.0198 184.495 59.9356C184.556 59.8521 184.597 59.7517 184.619 59.6377C184.632 59.5698 184.633 59.5121 184.622 59.4673C184.614 59.4341 184.598 59.4063 184.573 59.3859C184.533 59.3493 184.485 59.3187 184.431 59.295C184.374 59.2692 184.309 59.2495 184.235 59.2366L183.922 59.1932L183.494 59.1525L183.215 59.1355C183.027 59.1212 182.85 59.0988 182.691 59.071C182.526 59.0412 182.378 59.0052 182.247 58.9631C182.103 58.9163 181.976 58.8477 181.865 58.7595C181.755 58.672 181.661 58.5614 181.583 58.4331C181.502 58.2994 181.455 58.1386 181.44 57.9547C181.426 57.7816 181.44 57.5834 181.482 57.3615C181.523 57.1444 181.585 56.9421 181.666 56.7582C181.747 56.5723 181.849 56.404 181.969 56.2567C182.088 56.1081 182.228 55.9764 182.385 55.8651C182.541 55.7545 182.718 55.6608 182.912 55.5876C183.102 55.5156 183.312 55.4613 183.54 55.4247C183.766 55.3894 184.01 55.3704 184.267 55.3704C184.419 55.3704 184.571 55.3785 184.721 55.3928C184.869 55.4077 185.014 55.4301 185.151 55.4586C185.291 55.4878 185.427 55.5244 185.556 55.5686C185.687 55.612 185.812 55.6642 185.932 55.7206C186.177 55.8386 186.404 55.9873 186.614 56.1651L186.762 56.2906L185.665 57.367L185.543 57.278C185.422 57.1891 185.3 57.1111 185.179 57.0466C185.058 56.9815 184.933 56.9252 184.809 56.8817C184.687 56.839 184.563 56.8064 184.44 56.7847C184.317 56.763 184.193 56.7521 184.068 56.7521C183.886 56.7521 183.724 56.7677 183.584 56.7976C183.451 56.8268 183.337 56.8695 183.244 56.9252C183.157 56.9781 183.086 57.0432 183.034 57.1206C182.981 57.1986 182.943 57.2943 182.922 57.4036C182.913 57.4559 182.913 57.4986 182.921 57.5305C182.927 57.5529 182.94 57.5726 182.959 57.5875C182.992 57.6147 183.034 57.6391 183.082 57.6581C183.134 57.6791 183.194 57.6954 183.26 57.7063L183.559 57.7416C183.573 57.7422 184.105 57.7673 184.18 57.7897C184.375 57.802 184.558 57.823 184.728 57.8501C184.904 57.878 185.067 57.9153 185.211 57.9594C185.369 58.0076 185.508 58.0788 185.629 58.1732C185.749 58.2668 185.854 58.3856 185.938 58.5261C186.026 58.672 186.081 58.8464 186.096 59.0486C186.112 59.2386 186.096 59.4572 186.049 59.7035C186.007 59.9254 185.943 60.1311 185.86 60.3177C185.776 60.5063 185.669 60.6767 185.542 60.8267C185.415 60.976 185.267 61.1083 185.099 61.2196C184.934 61.3295 184.746 61.4232 184.536 61.4985C184.333 61.5718 184.107 61.6268 183.863 61.6628C183.621 61.698 183.359 61.7164 183.078 61.7164L183.078 61.7177ZM176.677 57.9065H178.862C178.873 57.7477 178.869 57.6031 178.851 57.4749C178.829 57.3147 178.783 57.1783 178.717 57.0697C178.655 56.9659 178.572 56.8885 178.473 56.8376C178.37 56.786 178.243 56.7589 178.093 56.7589C177.897 56.7589 177.719 56.7908 177.56 56.8532C177.401 56.915 177.257 57.01 177.128 57.1349C176.998 57.2611 176.886 57.4178 176.798 57.5997C176.752 57.6941 176.711 57.7965 176.677 57.9065ZM177.245 61.7177C176.964 61.7177 176.706 61.6906 176.472 61.6376C176.235 61.5834 176.021 61.5006 175.832 61.3899C175.642 61.2773 175.482 61.1368 175.351 60.9719C175.221 60.8063 175.12 60.6149 175.053 60.4005C174.985 60.1901 174.947 59.9566 174.943 59.7042C174.938 59.4558 174.963 59.1864 175.018 58.8993L175.144 58.2424C175.2 57.9452 175.279 57.6676 175.378 57.4104C175.479 57.1525 175.6 56.915 175.742 56.7019C175.884 56.4874 176.046 56.2967 176.227 56.1318C176.407 55.9669 176.607 55.8264 176.825 55.7131C177.043 55.5991 177.275 55.5129 177.519 55.4573C177.763 55.4009 178.021 55.3724 178.292 55.3724C178.563 55.3724 178.788 55.4057 179.001 55.4715C179.219 55.5394 179.414 55.6412 179.58 55.7762C179.745 55.9126 179.882 56.0789 179.99 56.2737C180.097 56.4644 180.176 56.6863 180.226 56.9333C180.275 57.1763 180.296 57.4436 180.289 57.7321C180.282 58.0184 180.246 58.3279 180.182 58.6577L180.082 59.1837H176.421C176.407 59.3242 176.409 59.4524 176.425 59.5671C176.449 59.7218 176.502 59.8515 176.584 59.9546C176.666 60.0591 176.776 60.1385 176.914 60.1915C177.06 60.2471 177.241 60.2763 177.454 60.2763C177.557 60.2763 177.665 60.2648 177.771 60.2444C177.881 60.2227 177.994 60.1894 178.107 60.1467C178.22 60.1053 178.33 60.053 178.436 59.9926C178.544 59.9315 178.649 59.861 178.748 59.7816L178.886 59.673L179.714 60.6991L179.576 60.8097C179.402 60.9515 179.217 61.0798 179.025 61.1925C178.835 61.3044 178.637 61.4008 178.435 61.4788C178.233 61.5576 178.031 61.618 177.832 61.658C177.631 61.698 177.435 61.7191 177.246 61.7191L177.245 61.7177ZM171.202 55.4559H172.56L172.472 55.9133C172.576 55.8292 172.683 55.7531 172.793 55.6866C172.967 55.5828 173.145 55.5041 173.325 55.4511C173.509 55.3982 173.695 55.3717 173.881 55.3717C174.022 55.3717 174.157 55.3826 174.285 55.4036C174.415 55.4247 174.535 55.4573 174.644 55.4986C174.755 55.5407 174.86 55.5957 174.955 55.6602C175.051 55.7246 175.137 55.8006 175.211 55.8855L175.318 56.0056L174.113 57.3045L173.991 57.1064C173.963 57.0609 173.927 57.0208 173.887 56.9849C173.844 56.9489 173.794 56.9177 173.74 56.8933C173.682 56.8675 173.617 56.8464 173.547 56.8342C173.472 56.82 173.389 56.8132 173.299 56.8132C173.137 56.8132 172.99 56.8356 172.859 56.879C172.729 56.9224 172.612 56.9883 172.51 57.0731C172.408 57.1593 172.322 57.2631 172.257 57.3819C172.19 57.5034 172.141 57.6445 172.111 57.802L171.454 61.263L171.459 61.2026L171.377 61.6322H169.873L171.057 55.4545H171.203L171.202 55.4559ZM165.838 57.9234L165.559 59.3791C165.54 59.4843 165.532 59.582 165.534 59.6689C165.536 59.7571 165.549 59.8379 165.572 59.9098C165.594 59.977 165.625 60.0374 165.664 60.0883C165.702 60.1378 165.75 60.182 165.805 60.2159C165.866 60.2519 165.938 60.281 166.019 60.3C166.105 60.3197 166.201 60.3306 166.308 60.3306C166.477 60.3306 166.63 60.3048 166.766 60.2553C166.901 60.2057 167.024 60.1311 167.133 60.0333C167.242 59.9322 167.334 59.8094 167.406 59.6669C167.481 59.5189 167.538 59.3479 167.575 59.1552L167.816 57.8936C167.854 57.6995 167.863 57.5271 167.845 57.3805C167.829 57.2448 167.788 57.1287 167.725 57.0365C167.662 56.9462 167.577 56.877 167.474 56.8322C167.362 56.784 167.223 56.7589 167.059 56.7589C166.948 56.7589 166.844 56.7697 166.751 56.7887C166.658 56.8077 166.57 56.8376 166.488 56.8756C166.409 56.9129 166.336 56.9604 166.272 57.0161C166.206 57.0717 166.146 57.1389 166.093 57.2129C166.039 57.2896 165.992 57.3744 165.955 57.4654C165.918 57.5597 165.887 57.6615 165.867 57.7701L165.837 57.9228L165.838 57.9234ZM164.953 55.4559H166.311L166.228 55.8895C166.329 55.8088 166.435 55.7369 166.543 55.6731C166.715 55.5733 166.893 55.4973 167.074 55.4478C167.258 55.3962 167.444 55.3711 167.632 55.3711C167.852 55.3711 168.055 55.3969 168.239 55.4471C168.428 55.4987 168.597 55.5774 168.742 55.6819C168.888 55.7884 169.011 55.9194 169.11 56.0741C169.205 56.2248 169.279 56.4006 169.326 56.5953C169.372 56.786 169.393 56.9978 169.39 57.2278C169.387 57.4531 169.361 57.6968 169.311 57.954L169.068 59.2217C169.019 59.4789 168.952 59.7178 168.87 59.9383C168.786 60.1596 168.684 60.3659 168.565 60.5532C168.445 60.7398 168.31 60.9067 168.158 61.0499C168.007 61.1945 167.838 61.3173 167.655 61.4178C167.474 61.5175 167.278 61.5929 167.073 61.6431C166.868 61.6926 166.653 61.7177 166.43 61.7177C166.234 61.7177 166.051 61.6933 165.885 61.6458C165.715 61.5969 165.562 61.5216 165.427 61.4232C165.345 61.3628 165.272 61.2949 165.208 61.2189L164.675 64.0007H163.17C163.713 61.1524 164.257 58.3035 164.807 55.4566H164.954L164.953 55.4559ZM161.456 57.8936C161.491 57.7083 161.499 57.5441 161.479 57.405C161.461 57.2767 161.417 57.1681 161.352 57.0799C161.286 56.9944 161.198 56.9292 161.09 56.8851C160.973 56.8383 160.829 56.8139 160.66 56.8139C160.503 56.8139 160.36 56.8376 160.232 56.8844C160.107 56.9306 159.993 57.0005 159.892 57.0928C159.791 57.1858 159.705 57.3011 159.637 57.4355C159.567 57.5733 159.514 57.7341 159.48 57.916L159.152 59.6411V59.6268L158.767 61.6336H157.261L157.977 57.8943C158.013 57.707 158.022 57.5427 158.005 57.4029C157.989 57.274 157.949 57.164 157.887 57.0758C157.827 56.9917 157.745 56.9272 157.645 56.8844C157.536 56.8383 157.4 56.8145 157.24 56.8145C157.069 56.8145 156.917 56.8363 156.782 56.8804C156.649 56.9231 156.53 56.9876 156.427 57.0724C156.324 57.1566 156.238 57.2597 156.171 57.3798C156.103 57.5027 156.053 57.6445 156.023 57.8026L155.367 61.2427L155.371 61.2074L155.289 61.6329H153.785L154.969 55.4552H156.473L156.385 55.9119C156.492 55.8251 156.603 55.7477 156.718 55.6805C156.894 55.5787 157.073 55.5014 157.257 55.4498C157.443 55.3969 157.633 55.3711 157.823 55.3711C158.042 55.3711 158.244 55.3962 158.426 55.4478C158.611 55.5 158.776 55.5794 158.919 55.6846C159.062 55.7911 159.184 55.9221 159.279 56.0748C159.326 56.1501 159.367 56.2316 159.402 56.3184L159.582 56.1244C159.74 55.9656 159.911 55.8291 160.095 55.7165C160.278 55.6018 160.466 55.5149 160.656 55.4586C160.849 55.4009 161.046 55.3717 161.244 55.3717C161.47 55.3717 161.676 55.3969 161.86 55.4471C162.049 55.498 162.219 55.5774 162.368 55.6826C162.516 55.7884 162.642 55.9201 162.742 56.0748C162.839 56.2262 162.914 56.4006 162.961 56.5947C163.008 56.7874 163.03 56.9991 163.027 57.2258C163.025 57.4511 162.998 57.6954 162.948 57.9547L162.244 61.6336H160.74L161.456 57.8943V57.8936ZM149.639 57.9065H151.824C151.835 57.7477 151.831 57.6031 151.813 57.4749C151.791 57.3147 151.745 57.1783 151.679 57.0697C151.617 56.9659 151.534 56.8885 151.435 56.8376C151.332 56.786 151.205 56.7589 151.055 56.7589C150.86 56.7589 150.681 56.7908 150.522 56.8532C150.364 56.915 150.219 57.01 150.09 57.1349C149.96 57.2611 149.849 57.4178 149.76 57.5997C149.714 57.6941 149.673 57.7965 149.639 57.9065ZM150.208 61.7177C149.927 61.7177 149.669 61.6906 149.435 61.6376C149.198 61.5834 148.984 61.5006 148.795 61.3899C148.605 61.2773 148.444 61.1368 148.314 60.9719C148.184 60.8063 148.083 60.6149 148.016 60.4005C147.948 60.1901 147.91 59.9566 147.906 59.7042C147.9 59.4558 147.925 59.1864 147.981 58.8993L148.106 58.2424C148.163 57.9452 148.242 57.6676 148.341 57.4104C148.442 57.1525 148.563 56.915 148.705 56.7019C148.847 56.4874 149.009 56.2967 149.189 56.1318C149.369 55.9669 149.57 55.8264 149.787 55.7131C150.005 55.5991 150.237 55.5129 150.482 55.4573C150.725 55.4009 150.984 55.3724 151.254 55.3724C151.524 55.3724 151.75 55.4057 151.963 55.4715C152.181 55.5394 152.376 55.6412 152.542 55.7762C152.708 55.9126 152.845 56.0789 152.953 56.2737C153.059 56.4644 153.138 56.6863 153.188 56.9333C153.238 57.1763 153.259 57.4436 153.251 57.7321C153.244 58.0184 153.208 58.3279 153.145 58.6577L153.044 59.1837H149.384C149.369 59.3242 149.371 59.4524 149.388 59.5671C149.411 59.7218 149.464 59.8515 149.546 59.9546C149.628 60.0591 149.739 60.1385 149.876 60.1915C150.022 60.2471 150.203 60.2763 150.417 60.2763C150.52 60.2763 150.627 60.2648 150.733 60.2444C150.843 60.2227 150.956 60.1894 151.069 60.1467C151.182 60.1053 151.292 60.053 151.399 59.9926C151.506 59.9315 151.611 59.861 151.711 59.7816L151.848 59.673L152.676 60.6991L152.539 60.8097C152.364 60.9515 152.18 61.0798 151.988 61.1925C151.797 61.3044 151.599 61.4008 151.397 61.4788C151.195 61.5576 150.993 61.618 150.795 61.658C150.594 61.698 150.398 61.7191 150.208 61.7191L150.208 61.7177ZM142.993 55.4559H144.345L143.161 61.6336H141.663L141.739 61.2325C141.666 61.2909 141.588 61.3465 141.507 61.3981C141.338 61.504 141.158 61.5847 140.967 61.6376C140.776 61.6899 140.576 61.7177 140.365 61.7177C140.018 61.7177 139.717 61.6607 139.466 61.5467C139.207 61.4293 139 61.2515 138.846 61.0167C138.695 60.7866 138.601 60.5104 138.567 60.1915C138.534 59.8827 138.554 59.5318 138.629 59.1402L139.335 55.4559H140.84L140.121 59.2067C140.086 59.3907 140.078 59.5522 140.097 59.6893C140.115 59.8182 140.156 59.9261 140.22 60.0123C140.283 60.0971 140.368 60.163 140.472 60.205C140.584 60.2512 140.726 60.2749 140.892 60.2749C141.058 60.2749 141.213 60.2525 141.349 60.2091C141.482 60.1663 141.601 60.1012 141.707 60.0164C141.81 59.9322 141.897 59.8291 141.964 59.7083C142.028 59.5929 142.076 59.4592 142.109 59.3072L142.847 55.4559H142.994H142.993ZM136.128 61.6621C135.87 61.6621 135.649 61.6247 135.469 61.5515C135.275 61.4727 135.125 61.3519 135.02 61.1911C134.92 61.0364 134.859 60.8477 134.838 60.6271C134.819 60.4181 134.835 60.1772 134.887 59.9085L135.474 56.843H134.872L135.138 55.4559H135.739L136.064 53.7613H137.57L137.245 55.4559H138.124L137.859 56.843H136.979L136.377 59.9858C136.367 60.0422 136.362 60.091 136.365 60.1304L136.377 60.1935L136.392 60.2091L136.447 60.2179H137.212L136.936 61.6628H136.128V61.6621ZM128.806 60.0062L128.978 59.1097H127.594C127.459 59.1097 127.34 59.124 127.24 59.1511C127.145 59.1782 127.062 59.2183 126.995 59.2712C126.925 59.3228 126.869 59.3886 126.825 59.468C126.778 59.5522 126.743 59.6533 126.722 59.7707C126.699 59.8935 126.697 59.9974 126.718 60.0808C126.737 60.1535 126.775 60.2139 126.83 60.2593C126.893 60.3129 126.984 60.355 127.099 60.3842C127.226 60.4154 127.383 60.4324 127.569 60.4324C127.779 60.4324 127.964 60.4208 128.122 60.3991C128.277 60.3774 128.406 60.3448 128.509 60.3041C128.6 60.2675 128.672 60.222 128.72 60.1691C128.763 60.1243 128.791 60.07 128.805 60.0075L128.806 60.0062ZM129.242 57.7314C129.274 57.5604 129.281 57.4104 129.262 57.2848C129.243 57.1661 129.202 57.0656 129.139 56.9849C129.077 56.9062 128.994 56.8444 128.89 56.8037C128.778 56.7596 128.638 56.7365 128.473 56.7365C128.363 56.7365 128.255 56.7446 128.151 56.7609C128.042 56.7779 127.931 56.8037 127.822 56.8363C127.71 56.8695 127.604 56.9095 127.507 56.9543C127.404 57.0018 127.307 57.0548 127.219 57.1125L127.113 57.181L126.13 56.4053L126.274 56.2642C126.419 56.123 126.581 55.9961 126.755 55.8875C126.929 55.7789 127.119 55.6846 127.324 55.6072C127.528 55.5292 127.741 55.4708 127.96 55.4321C128.179 55.3935 128.404 55.3738 128.633 55.3738C128.886 55.3738 129.119 55.3969 129.329 55.4416C129.543 55.4871 129.737 55.5577 129.908 55.6513C130.083 55.747 130.232 55.8651 130.353 56.0042C130.474 56.144 130.568 56.3069 130.633 56.4881C130.697 56.6673 130.735 56.8634 130.743 57.0758C130.751 57.2848 130.733 57.5108 130.686 57.7504L129.942 61.6363H128.493L128.534 61.4212C128.456 61.4653 128.374 61.5046 128.29 61.5386C128.194 61.5779 128.089 61.6112 127.979 61.6376C127.871 61.6655 127.756 61.6865 127.637 61.7001C127.516 61.713 127.392 61.7204 127.265 61.7204C126.891 61.7204 126.566 61.6804 126.296 61.601C126.014 61.5182 125.787 61.3913 125.616 61.2216C125.442 61.0493 125.329 60.8314 125.275 60.5708C125.224 60.3218 125.231 60.0333 125.293 59.7076C125.351 59.4015 125.447 59.1314 125.58 58.898C125.714 58.6618 125.887 58.463 126.096 58.3048C126.304 58.1467 126.549 58.0293 126.831 57.9513C127.107 57.8746 127.418 57.8359 127.762 57.8359H129.22L129.24 57.7334L129.242 57.7314ZM121.633 55.4559H122.991L122.904 55.9133C123.007 55.8292 123.114 55.7531 123.225 55.6866C123.398 55.5828 123.576 55.5041 123.756 55.4511C123.94 55.3982 124.126 55.3717 124.313 55.3717C124.453 55.3717 124.589 55.3826 124.716 55.4036C124.846 55.4247 124.966 55.4573 125.075 55.4986C125.187 55.5407 125.291 55.5957 125.386 55.6602C125.482 55.7246 125.568 55.8006 125.643 55.8855L125.749 56.0056L124.544 57.3045L124.421 57.1064C124.393 57.0609 124.358 57.0208 124.317 56.9849C124.275 56.9489 124.225 56.9177 124.171 56.8933C124.112 56.8675 124.048 56.8464 123.978 56.8342C123.903 56.82 123.82 56.8132 123.73 56.8132C123.568 56.8132 123.42 56.8356 123.29 56.879C123.16 56.9224 123.043 56.9883 122.94 57.0731C122.839 57.1593 122.753 57.2631 122.688 57.3819C122.621 57.5034 122.571 57.6445 122.541 57.802L121.884 61.263L121.89 61.2026L121.808 61.6322H120.304L121.487 55.4545H121.634L121.633 55.4559ZM117.789 60.0062L117.961 59.1097H116.577C116.442 59.1097 116.323 59.124 116.223 59.1511C116.128 59.1782 116.045 59.2183 115.978 59.2712C115.908 59.3228 115.852 59.3886 115.808 59.468C115.761 59.5522 115.726 59.6533 115.705 59.7707C115.682 59.8935 115.68 59.9974 115.701 60.0808C115.72 60.1535 115.758 60.2139 115.813 60.2593C115.876 60.3129 115.967 60.355 116.083 60.3842C116.21 60.4154 116.366 60.4324 116.552 60.4324C116.763 60.4324 116.948 60.4208 117.106 60.3991C117.26 60.3774 117.39 60.3448 117.492 60.3041C117.584 60.2675 117.655 60.222 117.704 60.1691C117.746 60.1243 117.775 60.07 117.788 60.0075L117.789 60.0062ZM118.224 57.7314C118.257 57.5604 118.264 57.4104 118.245 57.2848C118.226 57.1661 118.184 57.0656 118.122 56.9849C118.06 56.9062 117.977 56.8444 117.873 56.8037C117.761 56.7596 117.621 56.7365 117.456 56.7365C117.346 56.7365 117.238 56.7446 117.134 56.7609C117.025 56.7779 116.914 56.8037 116.805 56.8363C116.693 56.8695 116.587 56.9095 116.49 56.9543C116.387 57.0018 116.29 57.0548 116.201 57.1125L116.096 57.181L115.113 56.4053L115.257 56.2642C115.402 56.123 115.564 55.9961 115.738 55.8875C115.912 55.7789 116.102 55.6846 116.307 55.6072C116.511 55.5292 116.724 55.4708 116.943 55.4321C117.162 55.3935 117.387 55.3738 117.616 55.3738C117.869 55.3738 118.102 55.3969 118.312 55.4416C118.526 55.4871 118.72 55.5577 118.891 55.6513C119.066 55.747 119.215 55.8651 119.335 56.0042C119.457 56.144 119.551 56.3069 119.616 56.4881C119.68 56.6673 119.718 56.8634 119.726 57.0758C119.734 57.2848 119.715 57.5108 119.669 57.7504L118.925 61.6363H117.476L117.517 61.4212C117.439 61.4653 117.357 61.5046 117.273 61.5386C117.177 61.5779 117.071 61.6112 116.962 61.6376C116.854 61.6655 116.739 61.6865 116.62 61.7001C116.499 61.713 116.375 61.7204 116.248 61.7204C115.874 61.7204 115.549 61.6804 115.279 61.601C114.997 61.5182 114.77 61.3913 114.599 61.2216C114.425 61.0493 114.311 60.8314 114.258 60.5708C114.207 60.3218 114.214 60.0333 114.275 59.7076C114.334 59.4015 114.43 59.1314 114.563 58.898C114.698 58.6618 114.871 58.463 115.08 58.3048C115.287 58.1467 115.533 58.0293 115.815 57.9513C116.091 57.8746 116.402 57.8359 116.746 57.8359H118.203L118.223 57.7334L118.224 57.7314ZM110.155 57.9234L109.877 59.3791C109.858 59.4843 109.849 59.582 109.851 59.6689C109.853 59.7571 109.866 59.8379 109.889 59.9098C109.911 59.977 109.942 60.0374 109.981 60.0883C110.019 60.1378 110.068 60.182 110.123 60.2159C110.183 60.2519 110.255 60.281 110.337 60.3C110.422 60.3197 110.519 60.3306 110.625 60.3306C110.794 60.3306 110.947 60.3048 111.084 60.2553C111.219 60.2057 111.342 60.1311 111.45 60.0333C111.56 59.9322 111.652 59.8094 111.724 59.6669C111.799 59.5189 111.855 59.3479 111.892 59.1552L112.134 57.8936C112.171 57.6995 112.181 57.5271 112.163 57.3805C112.147 57.2448 112.105 57.1287 112.042 57.0365C111.979 56.9462 111.894 56.877 111.791 56.8322C111.68 56.784 111.541 56.7589 111.376 56.7589C111.266 56.7589 111.162 56.7697 111.068 56.7887C110.975 56.8077 110.887 56.8376 110.806 56.8756C110.727 56.9129 110.654 56.9604 110.589 57.0161C110.523 57.0717 110.464 57.1389 110.411 57.2129C110.356 57.2896 110.31 57.3744 110.272 57.4654C110.236 57.5597 110.204 57.6615 110.184 57.7701L110.155 57.9228L110.155 57.9234ZM109.271 55.4559H110.628L110.545 55.8895C110.646 55.8088 110.752 55.7369 110.861 55.6731C111.032 55.5733 111.211 55.4973 111.392 55.4478C111.575 55.3962 111.762 55.3711 111.95 55.3711C112.17 55.3711 112.373 55.3969 112.556 55.4471C112.746 55.4987 112.914 55.5774 113.059 55.6819C113.206 55.7884 113.329 55.9194 113.427 56.0741C113.523 56.2248 113.596 56.4006 113.643 56.5953C113.689 56.786 113.71 56.9978 113.707 57.2278C113.705 57.4531 113.678 57.6968 113.629 57.954L113.386 59.2217C113.337 59.4789 113.27 59.7178 113.187 59.9383C113.103 60.1596 113.002 60.3659 112.882 60.5532C112.763 60.7398 112.627 60.9067 112.476 61.0499C112.324 61.1945 112.155 61.3173 111.973 61.4178C111.791 61.5175 111.596 61.5929 111.391 61.6431C111.185 61.6926 110.971 61.7177 110.747 61.7177C110.552 61.7177 110.369 61.6933 110.202 61.6458C110.033 61.5969 109.879 61.5216 109.745 61.4232C109.663 61.3628 109.589 61.2949 109.525 61.2189L108.992 64.0007H107.488C108.03 61.1524 108.574 58.3035 109.125 55.4566H109.271L109.271 55.4559ZM101.157 61.7177C100.981 61.7177 100.809 61.7082 100.643 61.6906C100.477 61.6723 100.317 61.6458 100.169 61.6112C100.018 61.5759 99.872 61.5311 99.7342 61.4788C99.5931 61.4239 99.4594 61.3601 99.3345 61.2895C99.2062 61.2162 99.0868 61.1354 98.9762 61.0465C98.8649 60.9563 98.7597 60.8565 98.6633 60.7479L98.552 60.6231L99.6263 59.5529L99.7505 59.6635C99.8774 59.7768 100.008 59.8766 100.138 59.9607C100.268 60.0449 100.401 60.1155 100.535 60.1697C100.668 60.2254 100.802 60.2675 100.937 60.2946C101.072 60.3218 101.211 60.3353 101.353 60.3353C101.566 60.3353 101.757 60.3184 101.921 60.2858C102.082 60.2539 102.218 60.2071 102.326 60.1473C102.429 60.0903 102.512 60.0198 102.573 59.9356C102.633 59.8521 102.675 59.7517 102.697 59.6377C102.71 59.5698 102.711 59.5121 102.7 59.4673C102.692 59.4341 102.675 59.4063 102.651 59.3859C102.61 59.3493 102.563 59.3187 102.509 59.295C102.452 59.2692 102.386 59.2495 102.313 59.2366L102 59.1932L101.571 59.1525L101.293 59.1355C101.104 59.1212 100.928 59.0988 100.769 59.071C100.605 59.0412 100.456 59.0052 100.325 58.9631C100.181 58.9163 100.055 58.8477 99.9439 58.7595C99.8333 58.672 99.739 58.5614 99.6616 58.4331C99.5809 58.2994 99.5327 58.1386 99.5177 57.9547C99.5042 57.7816 99.5177 57.5834 99.5605 57.3615C99.6019 57.1444 99.6637 56.9421 99.7444 56.7582C99.8258 56.5723 99.9276 56.404 100.047 56.2567C100.167 56.1081 100.306 55.9764 100.463 55.8651C100.62 55.7545 100.796 55.6608 100.99 55.5876C101.18 55.5156 101.391 55.4613 101.619 55.4247C101.845 55.3894 102.088 55.3704 102.345 55.3704C102.498 55.3704 102.649 55.3785 102.799 55.3928C102.948 55.4077 103.093 55.4301 103.23 55.4586C103.37 55.4878 103.505 55.5244 103.634 55.5686C103.765 55.612 103.891 55.6642 104.01 55.7206C104.255 55.8386 104.483 55.9873 104.692 56.1651L104.84 56.2906L103.743 57.367L103.621 57.278C103.501 57.1891 103.379 57.1111 103.258 57.0466C103.136 56.9815 103.011 56.9252 102.888 56.8817C102.766 56.839 102.642 56.8064 102.518 56.7847C102.396 56.763 102.272 56.7521 102.147 56.7521C101.964 56.7521 101.802 56.7677 101.663 56.7976C101.53 56.8268 101.416 56.8695 101.323 56.9252C101.235 56.9781 101.165 57.0432 101.113 57.1206C101.06 57.1986 101.022 57.2943 101.001 57.4036C100.991 57.4559 100.991 57.4986 100.999 57.5305C101.005 57.5529 101.018 57.5726 101.037 57.5875C101.07 57.6147 101.113 57.6391 101.16 57.6581C101.212 57.6791 101.272 57.6954 101.339 57.7063L101.637 57.7416C101.651 57.7422 102.183 57.7673 102.258 57.7897C102.454 57.802 102.637 57.823 102.806 57.8501C102.982 57.878 103.144 57.9153 103.289 57.9594C103.446 58.0076 103.586 58.0788 103.706 58.1732C103.827 58.2668 103.932 58.3856 104.016 58.5261C104.103 58.672 104.158 58.8464 104.174 59.0486C104.19 59.2386 104.174 59.4572 104.127 59.7035C104.084 59.9254 104.021 60.1311 103.938 60.3177C103.854 60.5063 103.746 60.6767 103.62 60.8267C103.493 60.976 103.345 61.1083 103.176 61.2196C103.011 61.3295 102.823 61.4232 102.614 61.4985C102.411 61.5718 102.185 61.6268 101.94 61.6628C101.699 61.698 101.437 61.7164 101.155 61.7164L101.157 61.7177ZM94.7544 57.9065H96.9396C96.9504 57.7477 96.9464 57.6031 96.9287 57.4749C96.907 57.3147 96.8609 57.1783 96.7944 57.0697C96.7326 56.9659 96.6498 56.8885 96.5507 56.8376C96.4476 56.786 96.3207 56.7589 96.1707 56.7589C95.9752 56.7589 95.7967 56.7908 95.6373 56.8532C95.4791 56.915 95.3346 57.01 95.2057 57.1349C95.0754 57.2611 94.9641 57.4178 94.8758 57.5997C94.8297 57.6941 94.789 57.7965 94.7544 57.9065ZM95.3231 61.7177C95.0421 61.7177 94.7842 61.6906 94.5508 61.6376C94.3132 61.5834 94.0995 61.5006 93.9108 61.3899C93.7208 61.2773 93.5599 61.1368 93.4296 60.9719C93.2993 60.8063 93.1989 60.6149 93.131 60.4005C93.0632 60.1901 93.0258 59.9566 93.0211 59.7042C93.0163 59.4558 93.0415 59.1864 93.0964 58.8993L93.222 58.2424C93.2783 57.9452 93.3577 57.6676 93.4568 57.4104C93.5572 57.1525 93.6787 56.915 93.8205 56.7019C93.9624 56.4874 94.1246 56.2967 94.3044 56.1318C94.4849 55.9669 94.6851 55.8264 94.903 55.7131C95.1208 55.5991 95.3529 55.5129 95.5972 55.4573C95.8409 55.4009 96.0987 55.3724 96.3695 55.3724C96.6403 55.3724 96.8656 55.4057 97.0787 55.4715C97.2965 55.5394 97.4913 55.6412 97.6576 55.7762C97.8232 55.9126 97.9603 56.0789 98.0682 56.2737C98.174 56.4644 98.2528 56.6863 98.3037 56.9333C98.3532 57.1763 98.3742 57.4436 98.3668 57.7321C98.3593 58.0184 98.3233 58.3279 98.2602 58.6577L98.1598 59.1837H94.4992C94.4849 59.3242 94.4863 59.4524 94.5033 59.5671C94.5263 59.7218 94.5799 59.8515 94.6614 59.9546C94.7435 60.0591 94.8541 60.1385 94.9919 60.1915C95.1378 60.2471 95.319 60.2763 95.5321 60.2763C95.6359 60.2763 95.7425 60.2648 95.8497 60.2444C95.9589 60.2227 96.0723 60.1894 96.1856 60.1467C96.2983 60.1053 96.4082 60.053 96.5148 59.9926C96.6227 59.9315 96.7272 59.861 96.8269 59.7816L96.9647 59.673L97.792 60.6991L97.6549 60.8097C97.4805 60.9515 97.2959 61.0798 97.1038 61.1925C96.9131 61.3044 96.7156 61.4008 96.5134 61.4788C96.3112 61.5576 96.1096 61.618 95.9108 61.658C95.7099 61.698 95.5138 61.7191 95.3244 61.7191L95.3231 61.7177ZM90.5732 57.8936C90.6079 57.7083 90.616 57.5441 90.5963 57.405C90.578 57.2767 90.5346 57.1681 90.4687 57.0799C90.4029 56.9944 90.3154 56.9292 90.2075 56.8851C90.0907 56.8383 89.9469 56.8139 89.7772 56.8139C89.6198 56.8139 89.4772 56.8376 89.3496 56.8844C89.2241 56.9306 89.1101 57.0005 89.0096 57.0928C88.9079 57.1858 88.8223 57.3011 88.7545 57.4355C88.6846 57.5733 88.6316 57.7341 88.597 57.916L88.2693 59.6411V59.6268L87.8851 61.6336H86.3792L87.0952 57.8943C87.1305 57.707 87.14 57.5427 87.123 57.4029C87.1067 57.274 87.0667 57.164 87.0049 57.0758C86.9445 56.9917 86.8631 56.9272 86.7627 56.8844C86.6541 56.8383 86.5184 56.8145 86.3575 56.8145C86.1872 56.8145 86.0345 56.8363 85.8994 56.8804C85.7671 56.9231 85.6483 56.9876 85.5445 57.0724C85.442 57.1566 85.3558 57.2597 85.2893 57.3798C85.2208 57.5027 85.1706 57.6445 85.1407 57.8026L84.4851 61.2427L84.4885 61.2074L84.4071 61.6329H82.9032L84.0868 55.4552H85.5906L85.5031 55.9119C85.6097 55.8251 85.7209 55.7477 85.8363 55.6805C86.0114 55.5787 86.1913 55.5014 86.3752 55.4498C86.5604 55.3969 86.7505 55.3711 86.9412 55.3711C87.1604 55.3711 87.3619 55.3962 87.5438 55.4478C87.7291 55.5 87.894 55.5794 88.0372 55.6846C88.181 55.7911 88.3025 55.9221 88.3975 56.0748C88.4443 56.1501 88.4857 56.2316 88.521 56.3184L88.7009 56.1244C88.8583 55.9656 89.03 55.8291 89.2132 55.7165C89.3965 55.6018 89.5845 55.5149 89.7745 55.4586C89.9679 55.4009 90.1647 55.3717 90.3629 55.3717C90.5882 55.3717 90.7945 55.3969 90.9791 55.4471C91.1677 55.498 91.3381 55.5774 91.4867 55.6826C91.6346 55.7884 91.7609 55.9201 91.8606 56.0748C91.9583 56.2262 92.0323 56.4006 92.0798 56.5947C92.1266 56.7874 92.1484 56.9991 92.1463 57.2258C92.1443 57.4511 92.1172 57.6954 92.0676 57.9547L91.3632 61.6336H89.8593L90.5753 57.8943L90.5732 57.8936ZM79.3281 55.4559H80.6861L80.5986 55.9133C80.7017 55.8292 80.8089 55.7531 80.9196 55.6866C81.0933 55.5828 81.2711 55.5041 81.4509 55.4511C81.6348 55.3982 81.8208 55.3717 82.0074 55.3717C82.1479 55.3717 82.2836 55.3826 82.4112 55.4036C82.5408 55.4247 82.661 55.4573 82.7702 55.4986C82.8815 55.5407 82.986 55.5957 83.081 55.6602C83.1767 55.7246 83.2629 55.8006 83.3376 55.8855L83.4441 56.0056L82.2388 57.3045L82.1167 57.1064C82.0889 57.0609 82.0536 57.0208 82.0129 56.9849C81.9701 56.9489 81.9206 56.9177 81.8663 56.8933C81.8079 56.8675 81.7434 56.8464 81.6735 56.8342C81.5982 56.82 81.5154 56.8132 81.4251 56.8132C81.2636 56.8132 81.1157 56.8356 80.9854 56.879C80.8551 56.9224 80.7384 56.9883 80.6359 57.0731C80.5341 57.1593 80.4486 57.2631 80.3834 57.3819C80.3162 57.5034 80.2667 57.6445 80.2368 57.802L79.5799 61.263L79.5854 61.2026L79.5032 61.6322H77.9994L79.1829 55.4545H79.3295L79.3281 55.4559ZM74.3768 60.2749C74.5553 60.2749 74.7181 60.2471 74.864 60.1921C75.0086 60.1378 75.1402 60.0551 75.257 59.9465C75.3751 59.8352 75.4735 59.7008 75.5515 59.5454C75.6309 59.3859 75.692 59.1993 75.7327 58.9882L75.9173 58.0252C75.9567 57.8176 75.9675 57.6337 75.9485 57.4776C75.9315 57.3323 75.8881 57.2095 75.8202 57.1111C75.7531 57.0154 75.6628 56.9414 75.5508 56.8933C75.4321 56.8417 75.2841 56.8152 75.1077 56.8152C74.9312 56.8152 74.765 56.843 74.6191 56.8967C74.4745 56.9503 74.3435 57.031 74.2288 57.1382C74.1121 57.2475 74.013 57.3798 73.935 57.5353C73.8556 57.6934 73.7945 57.8793 73.7545 58.0911L73.5699 59.0541C73.5298 59.2624 73.519 59.4463 73.538 59.6038C73.5549 59.751 73.5991 59.8766 73.6669 59.977C73.7327 60.0741 73.823 60.148 73.9343 60.1969C74.0531 60.2485 74.201 60.2756 74.3768 60.2756V60.2749ZM74.1684 61.7177C73.9038 61.7177 73.6601 61.6899 73.4389 61.6376C73.2136 61.584 73.0127 61.5012 72.8363 61.3947C72.6564 61.2834 72.5044 61.1456 72.3816 60.9834C72.2608 60.8233 72.1678 60.6373 72.104 60.429C72.0409 60.224 72.0063 59.9974 72.0029 59.7531C71.9995 59.5115 72.0246 59.2515 72.0775 58.9733L72.2594 58.0252C72.3117 57.7504 72.3863 57.4939 72.4807 57.2577C72.575 57.0215 72.6924 56.8016 72.8315 56.6028C72.9679 56.4033 73.126 56.2262 73.3018 56.0735C73.4783 55.9194 73.673 55.7905 73.8841 55.686C74.0958 55.5814 74.3218 55.502 74.5614 55.4505C74.7989 55.3989 75.0507 55.3724 75.3153 55.3724C75.58 55.3724 75.825 55.3989 76.0442 55.4505C76.2695 55.5048 76.4717 55.5862 76.6468 55.6934C76.8267 55.8034 76.978 55.9384 77.0995 56.0972C77.2216 56.2567 77.316 56.442 77.3804 56.6496C77.4436 56.8539 77.4775 57.0785 77.4816 57.3208C77.4856 57.5583 77.4619 57.8162 77.4089 58.0904L77.2244 59.0541C77.1714 59.3296 77.0975 59.5868 77.0018 59.8243C76.9061 60.0646 76.788 60.2844 76.6516 60.4826C76.5138 60.6821 76.3557 60.8586 76.1799 61.0119C76.0048 61.1646 75.8107 61.2956 75.599 61.4015C75.3866 61.5073 75.1592 61.5867 74.9204 61.639C74.6815 61.6913 74.4304 61.7177 74.1671 61.7177H74.1684ZM69.7423 54.8092C69.7946 54.5343 69.874 54.2934 69.9765 54.0864C70.0837 53.874 70.2167 53.6948 70.3769 53.5516C70.5391 53.4064 70.7298 53.2971 70.9469 53.2266C71.1593 53.1567 71.3996 53.1214 71.6642 53.1214H72.7216L72.4447 54.5655H71.4783C71.4498 54.5655 71.4233 54.5709 71.4016 54.5804C71.3806 54.5899 71.3589 54.6069 71.3399 54.6286C71.3168 54.6551 71.2964 54.6884 71.2795 54.7257C71.2611 54.765 71.2462 54.8112 71.2374 54.8628L71.124 55.4552H72.2743L72.0192 56.7867H70.8682L69.9398 61.6322H68.4359L69.3643 56.7867H68.7461L69.0013 55.4552H69.6195L69.7437 54.8092H69.7423ZM66.7129 55.4559H68.0708L66.8873 61.6336H65.3834L66.567 55.4559H66.7136H66.7129ZM67.1601 53.122H68.5181L68.2303 54.6218H66.7264L67.0142 53.122H67.1608H67.1601ZM60.295 55.4559H61.6529L61.5654 55.9126C61.6719 55.8258 61.7832 55.7484 61.8986 55.6812C62.073 55.5794 62.2535 55.502 62.4374 55.4505C62.6227 55.3975 62.8127 55.3717 63.0034 55.3717C63.699 55.3717 64.1978 55.6066 64.4998 56.0741C64.6484 56.3042 64.7401 56.5804 64.7726 56.8994C64.8052 57.2088 64.7828 57.5617 64.7075 57.9547L64.0031 61.6336H62.4992L63.2152 57.8943C63.2504 57.7083 63.2579 57.5448 63.2382 57.4056C63.2199 57.2774 63.1765 57.1688 63.11 57.0812C63.0441 56.9944 62.9566 56.9285 62.8494 56.8858C62.732 56.839 62.5888 56.8145 62.4191 56.8145C62.2494 56.8145 62.0961 56.8363 61.961 56.8804C61.8287 56.9231 61.7099 56.9876 61.6061 57.0724C61.5036 57.1566 61.4174 57.2597 61.3509 57.3798C61.2824 57.5027 61.2322 57.6445 61.2023 57.8026L60.5467 61.2427L60.5501 61.2074L60.4687 61.6329H58.9648L60.1484 55.4552H60.295V55.4559ZM54.496 61.7177C54.1824 61.7177 53.8947 61.6858 53.6327 61.6234C53.3667 61.5589 53.1305 61.4626 52.9249 61.335C52.7145 61.2033 52.5374 61.0432 52.3956 60.8538C52.2524 60.6631 52.1431 60.4439 52.0691 60.1976C51.9958 59.9553 51.9558 59.6872 51.9524 59.3981C51.949 59.1124 51.9782 58.8023 52.042 58.4725L53.0674 53.122H54.5713L53.5262 58.577C53.4732 58.8552 53.4604 59.1009 53.4889 59.3099C53.5153 59.5115 53.5805 59.6818 53.6809 59.8209C53.7786 59.9566 53.9117 60.0591 54.0766 60.1277C54.2496 60.1996 54.462 60.2356 54.7111 60.2356C54.9602 60.2356 55.197 60.1976 55.4053 60.1236C55.613 60.0496 55.7983 59.939 55.9618 59.7924C56.1274 59.6445 56.2659 59.4646 56.3744 59.2543C56.4851 59.0398 56.5679 58.7907 56.6221 58.5105L57.6544 53.122H59.1603L58.1219 58.5383C58.0588 58.8681 57.9699 59.1755 57.858 59.4592C57.7439 59.7456 57.6055 60.0089 57.4426 60.2457C57.2784 60.4846 57.0918 60.697 56.8841 60.8789C56.6785 61.0608 56.4471 61.2155 56.1946 61.3418C55.9442 61.4666 55.6761 61.561 55.3924 61.6234C55.1095 61.6851 54.8088 61.717 54.4946 61.717L54.496 61.7177Z" fill="#1F5092"/>
</g>
<defs>
<clipPath id="clip0_11_496">
<rect width="194.767" height="64" fill="white"/>
</clipPath>
</defs>
</svg>
