<?xml version="1.0" encoding="UTF-8"?>
<svg id="Layer_2" xmlns="http://www.w3.org/2000/svg" version="1.1" viewBox="0 0 5000 2530.9">
  <!-- Generator: Adobe Illustrator 29.0.0, SVG Export Plug-In . SVG Version: 2.1.0 Build 186)  -->
  <defs>
    <style>
      .st0 {
        fill: #2464aa;
        fill-rule: evenodd;
      }
    </style>
  </defs>
  <g id="Layer_1-2">
    <g>
      <path class="st0" d="M2749.8,378.3c1135.6,157.1,2042.6,1024.7,2250.2,2152.6-60.3-1191.8-905-2198.3-2068-2463.8C1769-198.5,571.3,341.5,0,1389.1v450.2C505.8,810.1,1614.2,221.2,2749.8,378.3"/>
      <path class="st0" d="M0,2172.7v358.2C427,1528.6,1410.9,878.1,2500,878.1c1089.1,0,2073,650.5,2500,1652.8-318.9-1067.9-1265-1827-2376.3-1906.7C1512.4,544.6,467.8,1161.1,0,2172.7H0Z"/>
      <path class="st0" d="M575,2530.9h933.3c400.4-567.5,1051.4-905.1,1745.8-905.1s1345.5,337.5,1745.8,905.1c-434.7-818.8-1285.7-1330.7-2212.5-1330.7s-1777.8,511.9-2212.5,1330.7h0Z"/>
      <path class="st0" d="M5000,2530.9c-331.1-384.6-813.4-605.8-1320.8-605.8s-989.7,221.2-1320.8,605.8h2641.7Z"/>
    </g>
  </g>
</svg>