<svg width="214" height="70" viewBox="0 0 214 70" fill="none" xmlns="http://www.w3.org/2000/svg">
<g clip-path="url(#clip0_22_675)">
<path fill-rule="evenodd" clip-rule="evenodd" d="M136.571 11.5185C131.066 14.1372 134.818 22.8871 140.807 20.0293C146.119 17.4945 142.338 8.77363 136.571 11.5185ZM127.733 29.1562L132.402 29.3366C131.977 33.5823 127.574 49.7444 128.117 52.2303L134.545 52.277C135.775 48.7342 136.771 42.3685 137.62 38.3737C138.129 35.9828 138.564 33.8176 139.109 31.3452C140.826 23.5595 143.186 23.2174 128.579 24.1244C127.998 25.3603 127.47 27.7793 127.732 29.1562H127.733ZM186.071 29.9742C186.508 28.8445 187.461 26.6993 187.383 25.2927C184.102 22.6376 177.549 22.4268 173.659 24.8014C170.472 26.7461 167.289 32.3264 169.98 36.875C172.346 40.8729 179.828 40.5552 179.443 44.8217C179.207 47.4538 176.514 48.1693 173.798 48.0053C170.903 47.8308 169.501 46.4629 167.045 46.0316C166.564 47.0433 165.587 49.4111 165.71 50.9521C169.539 53.0237 175.273 54.2076 180.037 52.4091C184.044 50.8971 186.896 46.6967 186.021 41.3501C185.151 36.0348 178.794 36.233 176.491 33.6328C174.808 31.7334 176.15 29.0137 178.703 28.5379C182.238 27.8795 183.148 29.7048 186.07 29.9734L186.071 29.9742ZM146.237 52.1828C147.649 47.7388 148.254 42.3515 149.51 37.8689C150.475 34.4256 153.288 27.806 157.702 29.4828C160.265 32.6486 153.224 49.3184 154.472 52.0536C155.876 52.611 159.13 52.4737 160.869 52.1427C161.936 49.0467 162.704 44.671 163.448 41.336C164.544 36.4208 169.741 22.1737 159.088 23.2055C154.263 23.6724 152.595 27.5099 150.609 28.2974C150.632 26.4484 150.499 24.6796 149.765 23.4289C148.659 23.1335 144.699 24.6804 143.742 25.5637C143.631 28.4273 144.449 29.1666 143.717 32.6976C142.919 36.5462 139.319 50.3211 139.776 52.2837L146.237 52.1835L146.237 52.1828ZM194.379 25.8992C194.191 27.449 194.457 29.4643 194.831 30.9748C198.556 31.3177 207.917 24.742 205.244 35.1819C200.497 35.7453 198.217 35.1537 194.005 37.3196C187.187 40.8261 185.722 51.9564 192.878 53.4914C198.504 54.6975 199.772 52.0907 203.063 50.7168L203.845 53.6465C205.425 53.5626 209.161 52.0224 210.292 51.3655C210.289 49.0504 209.719 47.9971 210.137 45.2144C210.826 40.6183 213.458 32.3235 212.967 28.5305C212.018 21.1977 199.503 23.4823 194.38 25.8977L194.379 25.8992ZM204.039 40.0712C204.1 40.9419 203.513 45.8111 202.227 46.8191C200.661 48.0454 197.817 49.0185 196.24 47.5347C194.302 45.7102 195.866 42.7538 197.335 41.6047C199.078 40.2419 201.392 40.0245 204.039 40.0705V40.0712ZM101.277 21.0759C101.834 20.5452 103.81 17.7877 104.176 17.0024C105.568 14.0133 97.4372 11.0999 90.9691 12.9748C76.4029 17.1976 73.848 42.1035 78.8509 49.2924C83.9993 56.6905 96.9547 51.7456 97.5946 49.9122C97.6072 48.8002 96.4263 45.803 95.7248 44.9442C93.8216 45.2025 84.3132 52.1189 84.3051 39.6073C84.3006 32.9767 87.0804 20.4005 93.8246 18.7794C98.2827 17.7075 98.5217 20.946 101.277 21.0759ZM113.14 23.5818C106.506 25.2341 101.86 31.02 100.554 38.5303C98.901 48.0327 102.62 55.0776 112.667 52.9592C128.035 49.7192 131.955 18.8966 113.139 23.5818H113.14ZM113.293 29.3477C122.023 25.5147 117.891 45.1498 112.621 47.0804C103.762 50.3263 107.775 31.7705 113.293 29.3477Z" fill="white"/>
<path fill-rule="evenodd" clip-rule="evenodd" d="M17.8568 40.4521C16.4517 40.7787 10.3481 42.765 9.46032 43.5103C7.96837 44.7625 9.12036 51.7932 9.53306 53.2807C12.9742 65.684 26.0061 69.834 37.8883 66.0276C41.5603 64.8511 46.9217 61.9192 49.8106 59.2374C51.3099 57.8456 51.9809 57.1873 49.5575 58.1633C48.4433 58.6124 47.2327 59.1832 46.1297 59.5588C33.0666 63.9998 17.381 59.2181 17.8568 40.4521Z" fill="white"/>
<path fill-rule="evenodd" clip-rule="evenodd" d="M38.5851 1.52895C55.1576 5.0562 59.1591 19.4739 52.579 32.0501C51.7432 33.6475 50.0352 35.6909 49.6641 37.0166L57.4868 39.0111C60.0469 36.7026 62.9143 31.0458 64.0633 26.9255C66.9648 16.5175 63.0241 5.67302 52.7668 1.55642C46.9147 -0.792107 42.8642 0.0184461 38.6548 0.760711C36.4822 1.14372 36.3924 1.06207 38.5851 1.52895Z" fill="white"/>
<path fill-rule="evenodd" clip-rule="evenodd" d="M4.84317 25.5452C7.85602 20.699 16.1063 15.0162 21.821 13.0685C26.2241 11.5676 31.1772 11.2277 35.8528 12.6031C42.3439 14.513 43.9249 18.3868 45.4257 19.1284L51.5405 11.9418C44.9989 -0.507509 23.0613 -0.485241 10.7241 13.7217C9.14756 15.5373 7.70163 17.3172 6.48209 19.6049C5.83186 20.8252 5.31673 21.7604 4.76003 23.1151C4.47204 23.8143 4.15064 24.4704 3.95913 25.0843C3.32449 27.1203 3.66965 27.4328 4.84391 25.5452" fill="white"/>
<path fill-rule="evenodd" clip-rule="evenodd" d="M1.69983 52.2993C2.98692 55.3418 6.61956 59.526 9.83802 61.2621C12.9852 62.9597 12.2682 61.9465 10.8267 59.9698C10.267 59.2023 9.69402 58.3569 9.17963 57.2546C2.05018 41.9595 14.6939 24.7286 25.5904 21.7247C25.3959 20.5267 22.4721 15.9127 21.5821 14.9263C16.8205 15.4243 9.72965 22.1871 7.52067 24.5675C0.925649 31.6777 -2.17924 43.1286 1.69983 52.2993Z" fill="white"/>
<path fill-rule="evenodd" clip-rule="evenodd" d="M31.507 58.7211C48.8909 61.7199 63.2218 50.3254 67.5046 36.5868C68.5765 33.1479 69.2363 25.9784 67.8253 21.936C66.9175 19.3336 66.5879 19.4806 66.3192 21.9783C66.1485 23.5645 66.032 25.4157 65.6594 26.8988C63.2737 36.3953 55.8852 44.9566 46.532 48.5736C40.965 50.7269 38.7115 50.2563 32.6872 49.9928C32.0437 51.4974 31.291 56.9508 31.5063 58.7211" fill="white"/>
<path fill-rule="evenodd" clip-rule="evenodd" d="M208.225 65.6318L208.413 64.6513H206.9C206.752 64.6513 206.622 64.6669 206.512 64.6966C206.409 64.7263 206.319 64.7701 206.244 64.828C206.168 64.8844 206.107 64.9564 206.059 65.0432C206.008 65.1353 205.97 65.2459 205.945 65.3743C205.92 65.5086 205.918 65.6222 205.941 65.7135C205.962 65.7929 206.003 65.859 206.063 65.9087C206.133 65.9673 206.232 66.0134 206.359 66.0453C206.497 66.0794 206.669 66.098 206.872 66.098C207.102 66.098 207.305 66.0854 207.478 66.0616C207.646 66.0379 207.788 66.0022 207.9 65.9577C208.001 65.9176 208.078 65.8679 208.132 65.81C208.179 65.761 208.209 65.7016 208.224 65.6333M208.703 63.1438C208.738 62.9567 208.746 62.7927 208.724 62.6554C208.703 62.5255 208.658 62.4156 208.591 62.3273C208.523 62.2412 208.432 62.1736 208.318 62.1291C208.195 62.0808 208.043 62.0556 207.862 62.0556C207.742 62.0556 207.624 62.0645 207.51 62.0823C207.39 62.1009 207.269 62.1291 207.15 62.1647C207.027 62.2011 206.912 62.2449 206.805 62.2939C206.693 62.3458 206.587 62.4037 206.49 62.4668L206.375 62.5418L205.299 61.6934L205.457 61.539C205.615 61.3846 205.792 61.2458 205.983 61.127C206.174 61.0083 206.381 60.9051 206.605 60.8205C206.829 60.7351 207.062 60.6713 207.301 60.629C207.541 60.5867 207.787 60.5651 208.038 60.5651C208.314 60.5651 208.568 60.5904 208.798 60.6394C209.032 60.6891 209.245 60.7663 209.432 60.8687C209.622 60.9734 209.786 61.1025 209.918 61.2547C210.051 61.4076 210.154 61.5858 210.224 61.7839C210.295 61.9799 210.336 62.1944 210.345 62.4267C210.354 62.6554 210.333 62.9025 210.283 63.1645L209.469 67.4148H207.884L207.929 67.1795C207.843 67.2277 207.754 67.2708 207.662 67.3079C207.557 67.3509 207.442 67.3873 207.321 67.4162C207.203 67.4467 207.078 67.4697 206.948 67.4845C206.816 67.4986 206.679 67.5068 206.54 67.5068C206.132 67.5068 205.777 67.463 205.481 67.3762C205.173 67.2856 204.924 67.1468 204.738 66.9612C204.547 66.7727 204.423 66.5344 204.364 66.2494C204.309 65.977 204.316 65.6615 204.383 65.3052C204.447 64.9705 204.553 64.6751 204.698 64.4197C204.845 64.1614 205.034 63.9439 205.263 63.771C205.49 63.598 205.759 63.4696 206.067 63.3843C206.369 63.3004 206.709 63.2581 207.085 63.2581H208.68L208.701 63.146L208.703 63.1438ZM200.242 67.5038C200.05 67.5038 199.862 67.4934 199.68 67.4741C199.499 67.4541 199.324 67.4251 199.162 67.3873C198.997 67.3487 198.837 67.2997 198.687 67.2425C198.532 67.1824 198.386 67.1126 198.25 67.0355C198.11 66.9553 197.979 66.867 197.858 66.7697C197.737 66.671 197.621 66.5619 197.516 66.4431L197.394 66.3066L198.569 65.136L198.705 65.257C198.844 65.3809 198.986 65.4901 199.129 65.5821C199.271 65.6741 199.417 65.7513 199.563 65.8107C199.709 65.8716 199.856 65.9176 200.003 65.9473C200.15 65.977 200.303 65.9918 200.458 65.9918C200.691 65.9918 200.899 65.9733 201.08 65.9376C201.256 65.9028 201.404 65.8515 201.522 65.7862C201.635 65.7239 201.725 65.6467 201.792 65.5546C201.858 65.4633 201.904 65.3535 201.928 65.2288C201.942 65.1546 201.943 65.0915 201.931 65.0425C201.922 65.0061 201.904 64.9757 201.878 64.9534C201.833 64.9133 201.781 64.8799 201.722 64.8539C201.66 64.8257 201.588 64.8042 201.508 64.7901L201.166 64.7426L200.697 64.6981L200.392 64.6795C200.186 64.6639 199.993 64.6394 199.819 64.609C199.639 64.5763 199.476 64.537 199.333 64.491C199.176 64.4398 199.037 64.3648 198.916 64.2683C198.795 64.1725 198.692 64.0516 198.607 63.9113C198.519 63.765 198.467 63.5891 198.451 63.388C198.435 63.1987 198.451 62.9819 198.497 62.7392C198.542 62.5017 198.609 62.2805 198.698 62.0794C198.787 61.876 198.898 61.6919 199.029 61.5308C199.159 61.3683 199.312 61.2243 199.484 61.1025C199.655 60.9815 199.848 60.8791 200.061 60.7989C200.268 60.7203 200.498 60.6609 200.748 60.6208C200.995 60.5822 201.262 60.5614 201.542 60.5614C201.709 60.5614 201.875 60.5703 202.039 60.5859C202.201 60.6022 202.36 60.6267 202.51 60.6579C202.663 60.6898 202.811 60.7299 202.952 60.7782C203.096 60.8257 203.233 60.8828 203.364 60.9444C203.632 61.0736 203.88 61.2361 204.11 61.4306L204.271 61.5679L203.071 62.7452L202.938 62.6479C202.806 62.5507 202.673 62.4653 202.54 62.3948C202.408 62.3236 202.271 62.262 202.136 62.2144C202.002 62.1677 201.866 62.1321 201.731 62.1083C201.598 62.0846 201.462 62.0727 201.325 62.0727C201.126 62.0727 200.948 62.0897 200.796 62.1224C200.65 62.1543 200.526 62.2011 200.424 62.262C200.328 62.3198 200.251 62.3911 200.194 62.4757C200.136 62.5611 200.095 62.6657 200.072 62.7852C200.061 62.8424 200.061 62.8892 200.07 62.9241C200.077 62.9485 200.091 62.9701 200.112 62.9864C200.148 63.0161 200.194 63.0428 200.246 63.0636C200.303 63.0866 200.369 63.1044 200.441 63.1163L200.768 63.1549C200.783 63.1556 201.365 63.1831 201.447 63.2076C201.661 63.221 201.861 63.244 202.047 63.2737C202.24 63.3041 202.417 63.3449 202.575 63.3932C202.748 63.4459 202.9 63.5238 203.032 63.627C203.164 63.7294 203.278 63.8593 203.37 64.013C203.466 64.1725 203.526 64.3633 203.543 64.5845C203.56 64.7923 203.543 65.0313 203.492 65.3008C203.445 65.5435 203.376 65.7684 203.285 65.9725C203.193 66.1789 203.076 66.3652 202.938 66.5292C202.798 66.6925 202.636 66.8373 202.452 66.959C202.272 67.0793 202.066 67.1817 201.837 67.2641C201.615 67.3442 201.368 67.4044 201.1 67.4437C200.836 67.4823 200.55 67.5023 200.242 67.5023L200.242 67.5038ZM193.241 63.3353H195.631C195.643 63.1616 195.638 63.0035 195.619 62.8632C195.595 62.688 195.545 62.5388 195.472 62.4201C195.404 62.3065 195.314 62.2219 195.205 62.1662C195.093 62.1098 194.954 62.0801 194.79 62.0801C194.576 62.0801 194.381 62.115 194.206 62.1833C194.033 62.2508 193.875 62.3547 193.734 62.4913C193.592 62.6294 193.47 62.8008 193.373 62.9998C193.323 63.1029 193.278 63.215 193.241 63.3353ZM193.862 67.5038C193.555 67.5038 193.273 67.4741 193.017 67.4162C192.757 67.3569 192.524 67.2663 192.317 67.1453C192.109 67.0221 191.933 66.8684 191.791 66.6881C191.648 66.507 191.539 66.2976 191.464 66.0631C191.39 65.833 191.349 65.5776 191.344 65.3015C191.339 65.0299 191.366 64.7352 191.426 64.4212L191.564 63.7027C191.625 63.3776 191.712 63.074 191.821 62.7927C191.931 62.5106 192.063 62.2508 192.219 62.0177C192.374 61.7832 192.551 61.5746 192.748 61.3942C192.946 61.2139 193.165 61.0602 193.403 60.9363C193.641 60.8116 193.895 60.7173 194.163 60.6564C194.429 60.5948 194.711 60.5637 195.007 60.5637C195.303 60.5637 195.55 60.6 195.783 60.672C196.021 60.7463 196.234 60.8576 196.416 61.0053C196.597 61.1545 196.747 61.3364 196.865 61.5494C196.982 61.758 197.068 62.0007 197.123 62.2709C197.177 62.5366 197.2 62.829 197.192 63.1445C197.184 63.4577 197.144 63.7962 197.075 64.157L196.965 64.7322H192.962C192.946 64.8859 192.947 65.0261 192.966 65.1516C192.991 65.3208 193.05 65.4626 193.139 65.5754C193.229 65.6897 193.35 65.7766 193.5 65.8345C193.66 65.8953 193.858 65.9273 194.091 65.9273C194.204 65.9273 194.321 65.9146 194.438 65.8924C194.557 65.8686 194.681 65.8322 194.805 65.7855C194.929 65.7402 195.049 65.6831 195.165 65.617C195.283 65.5502 195.398 65.473 195.507 65.3861L195.657 65.2674L196.562 66.3897L196.412 66.5107C196.222 66.6658 196.02 66.8061 195.81 66.9293C195.601 67.0518 195.385 67.1572 195.164 67.2425C194.943 67.3286 194.722 67.3947 194.505 67.4385C194.285 67.4823 194.07 67.5053 193.863 67.5053L193.862 67.5038ZM187.253 60.6549H188.738L188.642 61.1552C188.755 61.0632 188.872 60.9801 188.993 60.9073C189.183 60.7938 189.378 60.7077 189.575 60.6498C189.776 60.5919 189.979 60.5629 190.183 60.5629C190.337 60.5629 190.485 60.5748 190.625 60.5978C190.767 60.6208 190.898 60.6564 191.018 60.7017C191.139 60.7477 191.254 60.8079 191.357 60.8784C191.462 60.9489 191.556 61.032 191.638 61.1248L191.755 61.2562L190.436 62.6769L190.303 62.4601C190.272 62.4104 190.234 62.3666 190.189 62.3273C190.142 62.2879 190.088 62.2538 190.029 62.2271C189.965 62.1989 189.894 62.1758 189.818 62.1625C189.736 62.1469 189.645 62.1395 189.546 62.1395C189.37 62.1395 189.208 62.164 189.065 62.2115C188.923 62.259 188.795 62.331 188.683 62.4238C188.572 62.518 188.478 62.6316 188.407 62.7615C188.333 62.8944 188.279 63.0488 188.247 63.221L187.528 67.0065L187.534 66.9404L187.444 67.4103H185.799L187.094 60.6535H187.254L187.253 60.6549ZM181.386 63.3538L181.081 64.946C181.06 65.061 181.051 65.1679 181.053 65.2629C181.056 65.3594 181.07 65.4478 181.095 65.5264C181.119 65.5999 181.153 65.666 181.195 65.7216C181.237 65.7758 181.29 65.8241 181.35 65.8612C181.416 65.9005 181.495 65.9324 181.584 65.9532C181.678 65.9748 181.783 65.9866 181.9 65.9866C182.084 65.9866 182.252 65.9584 182.401 65.9042C182.549 65.8501 182.683 65.7684 182.802 65.6615C182.922 65.5509 183.023 65.4166 183.101 65.2607C183.183 65.0989 183.245 64.9118 183.285 64.701L183.55 63.3212C183.59 63.1089 183.601 62.9203 183.582 62.76C183.564 62.6116 183.519 62.4846 183.449 62.3837C183.38 62.285 183.288 62.2093 183.175 62.1603C183.053 62.1076 182.901 62.0801 182.721 62.0801C182.6 62.0801 182.487 62.092 182.384 62.1128C182.283 62.1335 182.186 62.1662 182.097 62.2078C182.011 62.2486 181.931 62.3006 181.86 62.3614C181.788 62.4223 181.723 62.4958 181.665 62.5767C181.606 62.6605 181.554 62.7533 181.514 62.8528C181.473 62.956 181.439 63.0673 181.417 63.1861L181.385 63.3531L181.386 63.3538ZM180.418 60.6549H181.903L181.812 61.1293C181.923 61.0409 182.038 60.9622 182.157 60.8925C182.345 60.7834 182.54 60.7002 182.738 60.646C182.939 60.5896 183.143 60.5622 183.348 60.5622C183.589 60.5622 183.811 60.5904 184.012 60.6453C184.219 60.7017 184.403 60.7878 184.562 60.9021C184.722 61.0187 184.857 61.1619 184.964 61.3312C185.069 61.4959 185.149 61.6882 185.2 61.9012C185.251 62.1098 185.274 62.3414 185.271 62.593C185.268 62.8394 185.239 63.1059 185.185 63.3872L184.919 64.7738C184.866 65.0551 184.792 65.3164 184.702 65.5576C184.61 65.7996 184.499 66.0252 184.368 66.2301C184.238 66.4342 184.089 66.6168 183.924 66.7734C183.758 66.9315 183.573 67.0659 183.374 67.1757C183.175 67.2849 182.961 67.3672 182.737 67.4222C182.512 67.4764 182.277 67.5038 182.033 67.5038C181.819 67.5038 181.619 67.4771 181.437 67.4251C181.252 67.3717 181.084 67.2893 180.937 67.1817C180.847 67.1156 180.767 67.0414 180.696 66.9583L180.114 70.0008H178.468C179.061 66.8855 179.656 63.7695 180.258 60.6557H180.419L180.418 60.6549ZM176.593 63.3212C176.632 63.1185 176.64 62.9389 176.618 62.7867C176.598 62.6464 176.551 62.5277 176.479 62.4312C176.407 62.3377 176.311 62.2664 176.193 62.2182C176.065 62.1669 175.907 62.1402 175.722 62.1402C175.55 62.1402 175.394 62.1662 175.255 62.2174C175.117 62.2679 174.993 62.3443 174.883 62.4453C174.772 62.547 174.678 62.6732 174.604 62.8201C174.527 62.9708 174.469 63.1467 174.432 63.3457L174.073 65.2325V65.2169L173.652 67.4118H172.005L172.788 63.3219C172.827 63.117 172.837 62.9374 172.819 62.7845C172.801 62.6435 172.757 62.5232 172.69 62.4267C172.623 62.3347 172.534 62.2642 172.425 62.2174C172.306 62.1669 172.157 62.141 171.981 62.141C171.795 62.141 171.628 62.1647 171.48 62.213C171.336 62.2597 171.206 62.3302 171.092 62.423C170.98 62.5151 170.886 62.6279 170.813 62.7593C170.738 62.8936 170.683 63.0488 170.651 63.2217L169.933 66.9842L169.937 66.9456L169.848 67.411H168.203L169.498 60.6542H171.143L171.047 61.1538C171.163 61.0587 171.285 60.9741 171.411 60.9006C171.603 60.7893 171.8 60.7047 172.001 60.6483C172.203 60.5904 172.411 60.5622 172.62 60.5622C172.86 60.5622 173.08 60.5896 173.279 60.646C173.482 60.7032 173.662 60.79 173.818 60.9051C173.975 61.0216 174.108 61.1649 174.212 61.3319C174.263 61.4143 174.308 61.5034 174.347 61.5984L174.544 61.3861C174.716 61.2124 174.904 61.0632 175.104 60.94C175.305 60.8145 175.51 60.7195 175.718 60.6579C175.93 60.5948 176.145 60.5629 176.362 60.5629C176.608 60.5629 176.834 60.5904 177.035 60.6453C177.242 60.701 177.428 60.7878 177.591 60.9029C177.753 61.0187 177.891 61.1627 178 61.3319C178.106 61.4974 178.187 61.6882 178.239 61.9005C178.291 62.1113 178.314 62.3429 178.311 62.5908C178.309 62.8372 178.28 63.1044 178.225 63.388L177.455 67.4118H175.81L176.593 63.3219V63.3212ZM163.668 63.3353H166.058C166.07 63.1616 166.066 63.0035 166.046 62.8632C166.023 62.688 165.972 62.5388 165.899 62.4201C165.832 62.3065 165.741 62.2219 165.633 62.1662C165.52 62.1098 165.381 62.0801 165.217 62.0801C165.003 62.0801 164.808 62.115 164.634 62.1833C164.461 62.2508 164.303 62.3547 164.162 62.4913C164.019 62.6294 163.897 62.8008 163.801 62.9998C163.75 63.1029 163.706 63.215 163.668 63.3353ZM164.29 67.5038C163.983 67.5038 163.701 67.4741 163.445 67.4162C163.186 67.3569 162.952 67.2663 162.745 67.1453C162.538 67.0221 162.362 66.8684 162.219 66.6881C162.077 66.507 161.967 66.2976 161.893 66.0631C161.818 65.833 161.777 65.5776 161.772 65.3015C161.766 65.0299 161.794 64.7352 161.855 64.4212L161.992 63.7027C162.054 63.3776 162.14 63.074 162.249 62.7927C162.359 62.5106 162.492 62.2508 162.647 62.0177C162.802 61.7832 162.979 61.5746 163.176 61.3942C163.373 61.2139 163.592 61.0602 163.831 60.9363C164.069 60.8116 164.323 60.7173 164.59 60.6564C164.856 60.5948 165.139 60.5637 165.435 60.5637C165.73 60.5637 165.977 60.6 166.21 60.672C166.449 60.7463 166.662 60.8576 166.843 61.0053C167.025 61.1545 167.175 61.3364 167.293 61.5494C167.409 61.758 167.495 62.0007 167.55 62.2709C167.604 62.5366 167.627 62.829 167.619 63.1445C167.611 63.4577 167.572 63.7962 167.503 64.157L167.393 64.7322H163.389C163.373 64.8859 163.375 65.0261 163.393 65.1516C163.419 65.3208 163.477 65.4626 163.566 65.5754C163.656 65.6897 163.777 65.7766 163.928 65.8345C164.087 65.8953 164.286 65.9273 164.519 65.9273C164.632 65.9273 164.749 65.9146 164.865 65.8924C164.985 65.8686 165.109 65.8322 165.233 65.7855C165.356 65.7402 165.476 65.6831 165.593 65.617C165.711 65.5502 165.825 65.473 165.934 65.3861L166.085 65.2674L166.99 66.3897L166.84 66.5107C166.648 66.6658 166.447 66.8061 166.237 66.9293C166.028 67.0518 165.812 67.1572 165.591 67.2425C165.37 67.3286 165.15 67.3947 164.932 67.4385C164.712 67.4823 164.498 67.5053 164.291 67.5053L164.29 67.5038ZM156.399 60.6549H157.878L156.583 67.4118H154.944L155.028 66.9731C154.948 67.0369 154.863 67.0978 154.773 67.1542C154.589 67.27 154.392 67.3583 154.183 67.4162C153.975 67.4734 153.755 67.5038 153.524 67.5038C153.145 67.5038 152.816 67.4415 152.542 67.3168C152.258 67.1884 152.032 66.9939 151.863 66.7371C151.698 66.4854 151.596 66.1833 151.558 65.8345C151.522 65.4967 151.544 65.113 151.626 64.6847L152.398 60.6549H154.044L153.258 64.7574C153.22 64.9586 153.211 65.1353 153.232 65.2852C153.251 65.4262 153.296 65.5442 153.366 65.6385C153.435 65.7313 153.528 65.8033 153.642 65.8493C153.765 65.8998 153.919 65.9258 154.101 65.9258C154.283 65.9258 154.453 65.9013 154.601 65.8538C154.746 65.807 154.877 65.7357 154.992 65.643C155.105 65.5509 155.2 65.4381 155.274 65.306C155.344 65.1798 155.396 65.0336 155.432 64.8673L156.239 60.6549H156.4H156.399ZM148.891 67.443C148.608 67.443 148.367 67.4021 148.17 67.322C147.957 67.2359 147.793 67.1037 147.678 66.9278C147.569 66.7586 147.502 66.5522 147.48 66.311C147.459 66.0824 147.476 65.8189 147.533 65.5249L148.175 62.1721H147.517L147.807 60.6549H148.465L148.821 58.8015H150.468L150.113 60.6549H151.074L150.784 62.1721H149.822L149.163 65.6096C149.152 65.6712 149.146 65.7246 149.149 65.7677L149.163 65.8367L149.179 65.8538L149.24 65.8634H150.076L149.774 67.4437H148.891V67.443ZM140.882 65.6318L141.07 64.6513H139.556C139.409 64.6513 139.279 64.6669 139.169 64.6966C139.066 64.7263 138.975 64.7701 138.901 64.828C138.824 64.8844 138.764 64.9564 138.715 65.0432C138.664 65.1353 138.626 65.2459 138.603 65.3743C138.577 65.5086 138.576 65.6222 138.599 65.7135C138.619 65.7929 138.66 65.859 138.721 65.9087C138.79 65.9673 138.889 66.0134 139.015 66.0453C139.154 66.0794 139.325 66.098 139.529 66.098C139.759 66.098 139.962 66.0854 140.135 66.0616C140.303 66.0379 140.445 66.0022 140.557 65.9577C140.657 65.9176 140.735 65.8679 140.788 65.81C140.835 65.761 140.866 65.7016 140.881 65.6333L140.882 65.6318ZM141.359 63.1438C141.394 62.9567 141.402 62.7927 141.381 62.6554C141.36 62.5255 141.315 62.4156 141.246 62.3273C141.179 62.2412 141.088 62.1736 140.974 62.1291C140.852 62.0808 140.699 62.0556 140.518 62.0556C140.397 62.0556 140.279 62.0645 140.166 62.0823C140.046 62.1009 139.925 62.1291 139.806 62.1647C139.683 62.2011 139.567 62.2449 139.461 62.2939C139.349 62.3458 139.243 62.4037 139.146 62.4668L139.031 62.5418L137.955 61.6934L138.113 61.539C138.271 61.3846 138.448 61.2458 138.639 61.127C138.83 61.0083 139.037 60.9051 139.261 60.8205C139.484 60.7351 139.717 60.6713 139.957 60.629C140.197 60.5867 140.443 60.5651 140.693 60.5651C140.97 60.5651 141.224 60.5904 141.454 60.6394C141.688 60.6891 141.9 60.7663 142.087 60.8687C142.279 60.9734 142.442 61.1025 142.574 61.2547C142.706 61.4076 142.81 61.5858 142.88 61.7839C142.951 61.9799 142.992 62.1944 143 62.4267C143.009 62.6554 142.989 62.9025 142.939 63.1645L142.125 67.4148H140.54L140.584 67.1795C140.499 67.2277 140.41 67.2708 140.318 67.3079C140.212 67.3509 140.097 67.3873 139.977 67.4162C139.859 67.4467 139.734 67.4697 139.604 67.4845C139.472 67.4986 139.335 67.5068 139.196 67.5068C138.787 67.5068 138.433 67.463 138.137 67.3762C137.828 67.2856 137.58 67.1468 137.393 66.9612C137.203 66.7727 137.079 66.5344 137.02 66.2494C136.964 65.977 136.972 65.6615 137.039 65.3052C137.103 64.9705 137.209 64.6751 137.353 64.4197C137.5 64.1614 137.69 63.9439 137.918 63.771C138.145 63.598 138.414 63.4696 138.722 63.3843C139.024 63.3004 139.364 63.2581 139.74 63.2581H141.335L141.356 63.146L141.359 63.1438ZM133.037 60.6549H134.522L134.427 61.1552C134.539 61.0632 134.657 60.9801 134.778 60.9073C134.968 60.7938 135.162 60.7077 135.359 60.6498C135.56 60.5919 135.763 60.5629 135.967 60.5629C136.121 60.5629 136.27 60.5748 136.409 60.5978C136.551 60.6208 136.682 60.6564 136.802 60.7017C136.924 60.7477 137.038 60.8079 137.142 60.8784C137.246 60.9489 137.341 61.032 137.422 61.1248L137.539 61.2562L136.221 62.6769L136.086 62.4601C136.056 62.4104 136.017 62.3666 135.973 62.3273C135.926 62.2879 135.872 62.2538 135.812 62.2271C135.749 62.1989 135.678 62.1758 135.602 62.1625C135.519 62.1469 135.429 62.1395 135.33 62.1395C135.153 62.1395 134.991 62.164 134.849 62.2115C134.706 62.259 134.579 62.331 134.467 62.4238C134.355 62.518 134.262 62.6316 134.19 62.7615C134.117 62.8944 134.063 63.0488 134.03 63.221L133.312 67.0065L133.318 66.9404L133.228 67.4103H131.583L132.877 60.6535H133.038L133.037 60.6549ZM128.832 65.6318L129.02 64.6513H127.506C127.359 64.6513 127.229 64.6669 127.119 64.6966C127.016 64.7263 126.925 64.7701 126.851 64.828C126.775 64.8844 126.714 64.9564 126.665 65.0432C126.614 65.1353 126.576 65.2459 126.553 65.3743C126.527 65.5086 126.526 65.6222 126.549 65.7135C126.569 65.7929 126.61 65.859 126.671 65.9087C126.74 65.9673 126.839 66.0134 126.966 66.0453C127.105 66.0794 127.276 66.098 127.48 66.098C127.71 66.098 127.912 66.0854 128.085 66.0616C128.254 66.0379 128.396 66.0022 128.508 65.9577C128.608 65.9176 128.686 65.8679 128.739 65.81C128.785 65.761 128.817 65.7016 128.831 65.6333L128.832 65.6318ZM129.309 63.1438C129.344 62.9567 129.352 62.7927 129.331 62.6554C129.31 62.5255 129.265 62.4156 129.197 62.3273C129.129 62.2412 129.038 62.1736 128.924 62.1291C128.802 62.0808 128.649 62.0556 128.468 62.0556C128.347 62.0556 128.229 62.0645 128.116 62.0823C127.996 62.1009 127.875 62.1291 127.756 62.1647C127.633 62.2011 127.518 62.2449 127.411 62.2939C127.299 62.3458 127.193 62.4037 127.096 62.4668L126.981 62.5418L125.905 61.6934L126.063 61.539C126.222 61.3846 126.399 61.2458 126.589 61.127C126.78 61.0083 126.987 60.9051 127.211 60.8205C127.434 60.7351 127.667 60.6713 127.907 60.629C128.147 60.5867 128.393 60.5651 128.644 60.5651C128.92 60.5651 129.174 60.5904 129.404 60.6394C129.638 60.6891 129.85 60.7663 130.038 60.8687C130.229 60.9734 130.392 61.1025 130.524 61.2547C130.657 61.4076 130.76 61.5858 130.83 61.7839C130.901 61.9799 130.942 62.1944 130.951 62.4267C130.959 62.6554 130.939 62.9025 130.889 63.1645L130.075 67.4148H128.49L128.534 67.1795C128.449 67.2277 128.36 67.2708 128.268 67.3079C128.163 67.3509 128.048 67.3873 127.927 67.4162C127.809 67.4467 127.684 67.4697 127.554 67.4845C127.422 67.4986 127.285 67.5068 127.146 67.5068C126.737 67.5068 126.383 67.463 126.087 67.3762C125.778 67.2856 125.53 67.1468 125.343 66.9612C125.153 66.7727 125.029 66.5344 124.97 66.2494C124.914 65.977 124.922 65.6615 124.989 65.3052C125.053 64.9705 125.159 64.6751 125.304 64.4197C125.451 64.1614 125.64 63.9439 125.869 63.771C126.096 63.598 126.365 63.4696 126.673 63.3843C126.975 63.3004 127.315 63.2581 127.691 63.2581H129.286L129.307 63.146L129.309 63.1438ZM120.483 63.3538L120.178 64.946C120.157 65.061 120.148 65.1679 120.151 65.2629C120.153 65.3594 120.167 65.4478 120.192 65.5264C120.216 65.5999 120.25 65.666 120.292 65.7216C120.334 65.7758 120.387 65.8241 120.447 65.8612C120.514 65.9005 120.592 65.9324 120.681 65.9532C120.775 65.9748 120.881 65.9866 120.997 65.9866C121.182 65.9866 121.349 65.9584 121.499 65.9042C121.646 65.8501 121.781 65.7684 121.899 65.6615C122.019 65.5509 122.12 65.4166 122.198 65.2607C122.281 65.0989 122.342 64.9118 122.383 64.701L122.647 63.3212C122.688 63.1089 122.698 62.9203 122.679 62.76C122.661 62.6116 122.616 62.4846 122.547 62.3837C122.478 62.285 122.385 62.2093 122.272 62.1603C122.15 62.1076 121.998 62.0801 121.818 62.0801C121.697 62.0801 121.584 62.092 121.481 62.1128C121.38 62.1335 121.283 62.1662 121.194 62.2078C121.108 62.2486 121.028 62.3006 120.957 62.3614C120.885 62.4223 120.82 62.4958 120.762 62.5767C120.703 62.6605 120.652 62.7533 120.611 62.8528C120.571 62.956 120.537 63.0673 120.514 63.1861L120.482 63.3531L120.483 63.3538ZM119.515 60.6549H121L120.909 61.1293C121.02 61.0409 121.136 60.9622 121.254 60.8925C121.442 60.7834 121.637 60.7002 121.836 60.646C122.036 60.5896 122.24 60.5622 122.446 60.5622C122.686 60.5622 122.908 60.5904 123.109 60.6453C123.316 60.7017 123.5 60.7878 123.659 60.9021C123.82 61.0187 123.954 61.1619 124.062 61.3312C124.166 61.4959 124.246 61.6882 124.298 61.9012C124.348 62.1098 124.371 62.3414 124.368 62.593C124.365 62.8394 124.336 63.1059 124.282 63.3872L124.016 64.7738C123.963 65.0551 123.889 65.3164 123.799 65.5576C123.707 65.7996 123.596 66.0252 123.466 66.2301C123.335 66.4342 123.186 66.6168 123.021 66.7734C122.855 66.9315 122.671 67.0659 122.471 67.1757C122.272 67.2849 122.058 67.3672 121.834 67.4222C121.609 67.4764 121.375 67.5038 121.13 67.5038C120.917 67.5038 120.716 67.4771 120.534 67.4251C120.349 67.3717 120.181 67.2893 120.034 67.1817C119.944 67.1156 119.864 67.0414 119.794 66.9583L119.211 70.0008H117.565C118.158 66.8855 118.754 63.7695 119.356 60.6557H119.516L119.515 60.6549ZM110.641 67.5038C110.448 67.5038 110.26 67.4934 110.079 67.4741C109.897 67.4541 109.722 67.4251 109.561 67.3873C109.395 67.3487 109.236 67.2997 109.085 67.2425C108.931 67.1824 108.784 67.1126 108.648 67.0355C108.507 66.9553 108.377 66.867 108.256 66.7697C108.134 66.671 108.019 66.5619 107.914 66.4431L107.792 66.3066L108.967 65.136L109.103 65.257C109.242 65.3809 109.384 65.4901 109.527 65.5821C109.669 65.6741 109.815 65.7513 109.961 65.8107C110.106 65.8716 110.253 65.9176 110.401 65.9473C110.548 65.977 110.7 65.9918 110.855 65.9918C111.088 65.9918 111.297 65.9733 111.477 65.9376C111.653 65.9028 111.802 65.8515 111.92 65.7862C112.032 65.7239 112.123 65.6467 112.19 65.5546C112.256 65.4633 112.301 65.3535 112.326 65.2288C112.34 65.1546 112.34 65.0915 112.329 65.0425C112.32 65.0061 112.302 64.9757 112.275 64.9534C112.231 64.9133 112.179 64.8799 112.12 64.8539C112.058 64.8257 111.986 64.8042 111.905 64.7901L111.563 64.7426L111.094 64.6981L110.79 64.6795C110.584 64.6639 110.391 64.6394 110.217 64.609C110.037 64.5763 109.875 64.537 109.731 64.491C109.574 64.4398 109.435 64.3648 109.314 64.2683C109.193 64.1725 109.09 64.0516 109.005 63.9113C108.917 63.765 108.864 63.5891 108.848 63.388C108.833 63.1987 108.848 62.9819 108.895 62.7392C108.94 62.5017 109.008 62.2805 109.096 62.0794C109.185 61.876 109.296 61.6919 109.427 61.5308C109.558 61.3683 109.711 61.2243 109.882 61.1025C110.054 60.9815 110.247 60.8791 110.459 60.7989C110.667 60.7203 110.897 60.6609 111.146 60.6208C111.393 60.5822 111.66 60.5614 111.94 60.5614C112.107 60.5614 112.273 60.5703 112.437 60.5859C112.6 60.6022 112.758 60.6267 112.908 60.6579C113.061 60.6898 113.21 60.7299 113.351 60.7782C113.494 60.8257 113.631 60.8828 113.762 60.9444C114.03 61.0736 114.279 61.2361 114.508 61.4306L114.67 61.5679L113.469 62.7452L113.337 62.6479C113.204 62.5507 113.071 62.4653 112.939 62.3948C112.806 62.3236 112.669 62.262 112.534 62.2144C112.401 62.1677 112.265 62.1321 112.13 62.1083C111.996 62.0846 111.86 62.0727 111.724 62.0727C111.524 62.0727 111.347 62.0897 111.194 62.1224C111.049 62.1543 110.924 62.2011 110.823 62.262C110.727 62.3198 110.65 62.3911 110.592 62.4757C110.535 62.5611 110.493 62.6657 110.47 62.7852C110.46 62.8424 110.46 62.8892 110.468 62.9241C110.475 62.9485 110.489 62.9701 110.51 62.9864C110.546 63.0161 110.592 63.0428 110.644 63.0636C110.702 63.0866 110.767 63.1044 110.84 63.1163L111.166 63.1549C111.182 63.1556 111.764 63.1831 111.845 63.2076C112.059 63.221 112.26 63.244 112.444 63.2737C112.637 63.3041 112.815 63.3449 112.973 63.3932C113.145 63.4459 113.297 63.5238 113.429 63.627C113.561 63.7294 113.676 63.8593 113.768 64.013C113.864 64.1725 113.923 64.3633 113.941 64.5845C113.958 64.7923 113.941 65.0313 113.89 65.3008C113.843 65.5435 113.774 65.7684 113.682 65.9725C113.59 66.1789 113.473 66.3652 113.335 66.5292C113.196 66.6925 113.034 66.8373 112.85 66.959C112.669 67.0793 112.463 67.1817 112.234 67.2641C112.012 67.3442 111.765 67.4044 111.498 67.4437C111.234 67.4823 110.947 67.5023 110.639 67.5023L110.641 67.5038ZM103.638 63.3353H106.028C106.04 63.1616 106.036 63.0035 106.016 62.8632C105.993 62.688 105.942 62.5388 105.869 62.4201C105.802 62.3065 105.711 62.2219 105.603 62.1662C105.49 62.1098 105.351 62.0801 105.187 62.0801C104.973 62.0801 104.778 62.115 104.604 62.1833C104.431 62.2508 104.273 62.3547 104.132 62.4913C103.989 62.6294 103.868 62.8008 103.771 62.9998C103.721 63.1029 103.676 63.215 103.638 63.3353ZM104.26 67.5038C103.953 67.5038 103.671 67.4741 103.415 67.4162C103.156 67.3569 102.922 67.2663 102.716 67.1453C102.508 67.0221 102.332 66.8684 102.189 66.6881C102.047 66.507 101.937 66.2976 101.863 66.0631C101.788 65.833 101.748 65.5776 101.742 65.3015C101.737 65.0299 101.765 64.7352 101.825 64.4212L101.962 63.7027C102.024 63.3776 102.111 63.074 102.219 62.7927C102.329 62.5106 102.462 62.2508 102.617 62.0177C102.772 61.7832 102.949 61.5746 103.146 61.3942C103.343 61.2139 103.562 61.0602 103.801 60.9363C104.039 60.8116 104.293 60.7173 104.56 60.6564C104.827 60.5948 105.109 60.5637 105.405 60.5637C105.701 60.5637 105.947 60.6 106.18 60.672C106.419 60.7463 106.632 60.8576 106.814 61.0053C106.995 61.1545 107.145 61.3364 107.263 61.5494C107.378 61.758 107.465 62.0007 107.52 62.2709C107.574 62.5366 107.597 62.829 107.589 63.1445C107.581 63.4577 107.542 63.7962 107.473 64.157L107.363 64.7322H103.359C103.343 64.8859 103.345 65.0261 103.364 65.1516C103.389 65.3208 103.447 65.4626 103.536 65.5754C103.626 65.6897 103.747 65.7766 103.898 65.8345C104.058 65.8953 104.256 65.9273 104.489 65.9273C104.602 65.9273 104.719 65.9146 104.836 65.8924C104.956 65.8686 105.08 65.8322 105.204 65.7855C105.327 65.7402 105.447 65.6831 105.564 65.617C105.682 65.5502 105.796 65.473 105.905 65.3861L106.056 65.2674L106.961 66.3897L106.811 66.5107C106.62 66.6658 106.418 66.8061 106.208 66.9293C105.999 67.0518 105.783 67.1572 105.562 67.2425C105.341 67.3286 105.12 67.3947 104.903 67.4385C104.683 67.4823 104.469 67.5053 104.262 67.5053L104.26 67.5038ZM99.0651 63.3212C99.1029 63.1185 99.1118 62.9389 99.0903 62.7867C99.0703 62.6464 99.0228 62.5277 98.9508 62.4312C98.8787 62.3377 98.783 62.2664 98.665 62.2182C98.5373 62.1669 98.38 62.1402 98.1944 62.1402C98.0222 62.1402 97.8663 62.1662 97.7268 62.2174C97.5894 62.2679 97.4647 62.3443 97.3549 62.4453C97.2435 62.547 97.15 62.6732 97.0758 62.8201C96.9993 62.9708 96.9414 63.1467 96.9036 63.3457L96.5451 65.2325V65.2169L96.125 67.4118H94.4779L95.261 63.3219C95.2996 63.117 95.3099 62.9374 95.2914 62.7845C95.2736 62.6435 95.2298 62.5232 95.1622 62.4267C95.0962 62.3347 95.0071 62.2642 94.8972 62.2174C94.7785 62.1669 94.63 62.141 94.4541 62.141C94.2678 62.141 94.1008 62.1647 93.9531 62.213C93.8083 62.2597 93.6785 62.3302 93.5649 62.423C93.4528 62.5151 93.3585 62.6279 93.2858 62.7593C93.2108 62.8936 93.1559 63.0488 93.1232 63.2217L92.4062 66.9842L92.4099 66.9456L92.3209 67.411H90.676L91.9705 60.6542H93.6154L93.5196 61.1538C93.6361 61.0587 93.7579 60.9741 93.8841 60.9006C94.0756 60.7893 94.2723 60.7047 94.4734 60.6483C94.6761 60.5904 94.8839 60.5622 95.0925 60.5622C95.3322 60.5622 95.5527 60.5896 95.7516 60.646C95.9542 60.7032 96.1346 60.79 96.2912 60.9051C96.4486 61.0216 96.5814 61.1649 96.6854 61.3319C96.7366 61.4143 96.7819 61.5034 96.8205 61.5984L97.0172 61.3861C97.1894 61.2124 97.3772 61.0632 97.5776 60.94C97.778 60.8145 97.9836 60.7195 98.1914 60.6579C98.403 60.5948 98.6182 60.5629 98.835 60.5629C99.0814 60.5629 99.307 60.5904 99.5089 60.6453C99.7153 60.701 99.9016 60.7878 100.064 60.9029C100.226 61.0187 100.364 61.1627 100.473 61.3319C100.58 61.4974 100.661 61.6882 100.713 61.9005C100.764 62.1113 100.788 62.3429 100.786 62.5908C100.783 62.8372 100.754 63.1044 100.7 63.388L99.9291 67.4118H98.2842L99.0673 63.3219L99.0651 63.3212ZM86.7657 60.6549H88.251L88.1553 61.1552C88.2681 61.0632 88.3854 60.9801 88.5064 60.9073C88.6964 60.7938 88.8908 60.7077 89.0875 60.6498C89.2887 60.5919 89.4921 60.5629 89.6962 60.5629C89.8498 60.5629 89.9983 60.5748 90.1378 60.5978C90.2796 60.6208 90.411 60.6564 90.5305 60.7017C90.6522 60.7477 90.7665 60.8079 90.8705 60.8784C90.9751 60.9489 91.0694 61.032 91.151 61.1248L91.2676 61.2562L89.9493 62.6769L89.8157 62.4601C89.7853 62.4104 89.7467 62.3666 89.7021 62.3273C89.6554 62.2879 89.6012 62.2538 89.5418 62.2271C89.478 62.1989 89.4075 62.1758 89.331 62.1625C89.2486 62.1469 89.1581 62.1395 89.0593 62.1395C88.8827 62.1395 88.7209 62.164 88.5783 62.2115C88.4358 62.259 88.3082 62.331 88.1961 62.4238C88.0847 62.518 87.9912 62.6316 87.92 62.7615C87.8465 62.8944 87.7923 63.0488 87.7596 63.221L87.0411 67.0065L87.0471 66.9404L86.9572 67.4103H85.3124L86.6069 60.6535H86.7672L86.7657 60.6549ZM81.3502 65.9258C81.5454 65.9258 81.7235 65.8953 81.8831 65.8352C82.0412 65.7758 82.1852 65.6853 82.3129 65.5665C82.442 65.4448 82.5497 65.2978 82.635 65.1278C82.7219 64.9534 82.7887 64.7493 82.8332 64.5184L83.0351 63.4652C83.0782 63.238 83.09 63.0369 83.0693 62.8662C83.0507 62.7073 83.0032 62.573 82.929 62.4653C82.8555 62.3607 82.7568 62.2798 82.6343 62.2271C82.5044 62.1707 82.3426 62.1417 82.1496 62.1417C81.9566 62.1417 81.7748 62.1721 81.6152 62.2308C81.4571 62.2894 81.3138 62.3777 81.1884 62.495C81.0607 62.6145 80.9523 62.7593 80.867 62.9292C80.7801 63.1022 80.7133 63.3056 80.6695 63.5372L80.4676 64.5904C80.4238 64.8183 80.412 65.0195 80.4327 65.1917C80.4513 65.3527 80.4995 65.4901 80.5738 65.5999C80.6458 65.7061 80.7445 65.787 80.8662 65.8404C80.9961 65.8968 81.1579 65.9265 81.3502 65.9265V65.9258ZM81.1223 67.5038C80.8328 67.5038 80.5663 67.4734 80.3244 67.4162C80.0779 67.3576 79.8582 67.267 79.6652 67.1505C79.4685 67.0288 79.3023 66.8781 79.1679 66.7007C79.0358 66.5255 78.9341 66.3221 78.8643 66.0943C78.7953 65.8701 78.7574 65.6222 78.7537 65.355C78.75 65.0907 78.7775 64.8064 78.8354 64.5021L79.0343 63.4652C79.0915 63.1645 79.1731 62.884 79.2763 62.6257C79.3795 62.3674 79.5079 62.1269 79.66 61.9094C79.8092 61.6912 79.9822 61.4974 80.1744 61.3304C80.3674 61.1619 80.5804 61.0209 80.8113 60.9066C81.0429 60.7923 81.2901 60.7054 81.5521 60.649C81.8119 60.5926 82.0872 60.5637 82.3767 60.5637C82.6662 60.5637 82.9342 60.5926 83.1739 60.649C83.4204 60.7084 83.6416 60.7975 83.8331 60.9147C84.0298 61.035 84.1953 61.1827 84.3281 61.3564C84.4617 61.5308 84.5649 61.7335 84.6354 61.9606C84.7045 62.184 84.7416 62.4297 84.746 62.6947C84.7505 62.9545 84.7245 63.2365 84.6666 63.5364L84.4647 64.5904C84.4068 64.8918 84.3259 65.1731 84.2213 65.4329C84.1166 65.6957 83.9874 65.9362 83.8382 66.1529C83.6876 66.3711 83.5146 66.5641 83.3224 66.7319C83.1309 66.8989 82.9186 67.0421 82.687 67.1579C82.4547 67.2737 82.206 67.3606 81.9447 67.4177C81.6835 67.4749 81.4088 67.5038 81.1208 67.5038H81.1223ZM76.2813 59.9476C76.3384 59.647 76.4253 59.3835 76.5373 59.1571C76.6546 58.9247 76.8001 58.7288 76.9753 58.5722C77.1527 58.4133 77.3613 58.2938 77.5988 58.2166C77.8311 58.1402 78.0939 58.1016 78.3833 58.1016H79.5398L79.237 59.6811H78.18C78.1488 59.6811 78.1198 59.687 78.0961 59.6974C78.0731 59.7078 78.0493 59.7264 78.0285 59.7501C78.0033 59.7791 77.981 59.8155 77.9625 59.8563C77.9424 59.8993 77.9261 59.9498 77.9165 60.0062L77.7925 60.6542H79.0506L78.7716 62.1105H77.5127L76.4973 67.4103H74.8524L75.8678 62.1105H75.1916L75.4707 60.6542H76.1469L76.2827 59.9476H76.2813ZM72.9678 60.6549H74.4531L73.1585 67.4118H71.5137L72.8082 60.6549H72.9685H72.9678ZM73.4569 58.1023H74.9422L74.6275 59.7427H72.9826L73.2973 58.1023H73.4577H73.4569ZM65.9482 60.6549H67.4335L67.3377 61.1545C67.4542 61.0595 67.576 60.9749 67.7022 60.9014C67.8929 60.79 68.0904 60.7054 68.2915 60.649C68.4942 60.5911 68.702 60.5629 68.9106 60.5629C69.6714 60.5629 70.217 60.8197 70.5473 61.3312C70.7098 61.5828 70.81 61.8849 70.8457 62.2337C70.8813 62.5722 70.8568 62.9582 70.7744 63.388L70.0039 67.4118H68.3591L69.1422 63.3219C69.1808 63.1185 69.1889 62.9396 69.1674 62.7875C69.1474 62.6472 69.0998 62.5284 69.0271 62.4327C68.9551 62.3377 68.8594 62.2657 68.7421 62.2189C68.6137 62.1677 68.457 62.141 68.2715 62.141C68.0859 62.141 67.9182 62.1647 67.7705 62.213C67.6257 62.2597 67.4958 62.3302 67.3822 62.423C67.2702 62.5151 67.1759 62.6279 67.1032 62.7593C67.0282 62.8936 66.9733 63.0488 66.9406 63.2217L66.2236 66.9842L66.2273 66.9456L66.1382 67.411H64.4934L65.7879 60.6542H65.9482V60.6549ZM59.6055 67.5038C59.2626 67.5038 58.9479 67.4689 58.6614 67.4006C58.3704 67.3301 58.1121 67.2247 57.8872 67.0852C57.6571 66.9412 57.4634 66.766 57.3082 66.5589C57.1516 66.3503 57.0321 66.1106 56.9512 65.8412C56.871 65.5762 56.8272 65.283 56.8235 64.9668C56.8198 64.6543 56.8517 64.3151 56.9215 63.9543L58.0431 58.1023H59.6879L58.5448 64.0686C58.4869 64.373 58.4728 64.6417 58.504 64.8703C58.533 65.0907 58.6042 65.277 58.7141 65.4292C58.821 65.5776 58.9665 65.6897 59.1468 65.7647C59.3361 65.8434 59.5684 65.8827 59.8408 65.8827C60.1132 65.8827 60.3723 65.8412 60.6002 65.7602C60.8273 65.6793 61.0299 65.5583 61.2088 65.398C61.3899 65.2362 61.5414 65.0395 61.6601 64.8094C61.7811 64.5748 61.8717 64.3024 61.9311 63.9959L63.06 58.1023H64.7071L63.5715 64.0263C63.5024 64.3871 63.4052 64.7233 63.2827 65.0336C63.158 65.3468 63.0066 65.6348 62.8285 65.8939C62.6488 66.1551 62.4447 66.3875 62.2176 66.5864C61.9927 66.7853 61.7396 66.9545 61.4634 67.0926C61.1895 67.2292 60.8963 67.3324 60.5861 67.4006C60.2765 67.4682 59.9477 67.5031 59.6041 67.5031L59.6055 67.5038Z" fill="white"/>
</g>
<defs>
<clipPath id="clip0_22_675">
<rect width="213.027" height="70" fill="white"/>
</clipPath>
</defs>
</svg>
