<svg width="63" height="62" viewBox="0 0 63 62" fill="none" xmlns="http://www.w3.org/2000/svg">
<path fill-rule="evenodd" clip-rule="evenodd" d="M16.3265 36.9846C15.0418 37.2832 9.46134 39.0993 8.64969 39.7806C7.28562 40.9255 8.33887 47.3536 8.71619 48.7136C11.8624 60.0537 23.7773 63.848 34.641 60.3679C37.9982 59.2923 42.9001 56.6116 45.5413 54.1597C46.9122 52.8872 47.5257 52.2853 45.3099 53.1777C44.2913 53.5883 43.1844 54.1101 42.176 54.4535C30.2325 58.5139 15.8915 54.142 16.3265 36.9846Z" fill="#1F5092"/>
<path fill-rule="evenodd" clip-rule="evenodd" d="M35.2778 1.398C50.4298 4.62291 54.0884 17.8049 48.0722 29.3031C47.308 30.7635 45.7465 32.6318 45.4072 33.8439L52.5594 35.6674C54.9 33.5568 57.5216 28.3849 58.5721 24.6177C61.225 15.1018 57.622 5.18686 48.2439 1.42311C42.8935 -0.724109 39.1901 0.0169681 35.3416 0.69561C33.3552 1.04579 33.2731 0.971139 35.2778 1.398Z" fill="#5492C3"/>
<path fill-rule="evenodd" clip-rule="evenodd" d="M4.42801 23.3555C7.18262 18.9246 14.7257 13.7289 19.9506 11.9482C23.9763 10.576 28.5049 10.2651 32.7796 11.5227C38.7144 13.2688 40.1599 16.8106 41.5321 17.4886L47.1227 10.918C41.1419 -0.464189 21.0846 -0.443829 9.80489 12.5454C8.36346 14.2053 7.04146 15.8327 5.92645 17.9243C5.33196 19.04 4.86098 19.8951 4.352 21.1336C4.08869 21.7729 3.79484 22.3728 3.61975 22.934C3.03951 24.7955 3.35508 25.0812 4.42869 23.3555" fill="#1F5092"/>
<path fill-rule="evenodd" clip-rule="evenodd" d="M1.55413 47.8164C2.7309 50.5982 6.05217 54.4237 8.99476 56.011C11.8722 57.5631 11.2166 56.6367 9.89871 54.8295C9.38701 54.1278 8.8631 53.3548 8.3928 52.347C1.87445 38.3629 13.4344 22.609 23.3969 19.8625C23.2191 18.7672 20.5459 14.5487 19.7322 13.6468C15.3787 14.1022 8.89568 20.2853 6.87604 22.4617C0.846307 28.9624 -1.99245 39.4318 1.55413 47.8164Z" fill="#7E828B"/>
<path fill-rule="evenodd" clip-rule="evenodd" d="M28.8058 53.688C44.6996 56.4297 57.8022 46.0119 61.7179 33.4509C62.6979 30.3068 63.3012 23.7518 62.0111 20.0559C61.1811 17.6766 60.8798 17.811 60.6341 20.0946C60.478 21.5448 60.3715 23.2374 60.0308 24.5933C57.8497 33.2758 51.0945 41.1033 42.5429 44.4103C37.4531 46.3791 35.3927 45.9488 29.8849 45.7079C29.2965 47.0835 28.609 52.0695 28.8058 53.688Z" fill="#7E828B"/>
</svg>
