<svg width="80" height="80" viewBox="0 0 80 80" fill="none" xmlns="http://www.w3.org/2000/svg">
<g clip-path="url(#clip0_11_424)">
<path d="M25.6561 28.5858C25.6561 25.4438 28.2124 22.8874 31.3548 22.8874C34.4968 22.8874 37.0536 25.4438 37.0536 28.5858V33.1783C38.6364 32.6943 39.7916 31.22 39.7916 29.4803V18.3661C39.7916 16.2342 38.057 14.5 35.9252 14.5H26.7844C24.6526 14.5 22.918 16.2342 22.918 18.3661V29.4803C22.918 31.22 24.0728 32.6943 25.6561 33.1783V28.5858Z" fill="#5492C3"/>
<path d="M54.8715 14.5H45.7303C43.5985 14.5 41.8643 16.2342 41.8643 18.3661V29.4803C41.8643 31.6122 43.5985 33.3464 45.7303 33.3464H54.8715C57.0033 33.3464 58.7379 31.6122 58.7379 29.4803V18.3661C58.7379 16.2342 57.0033 14.5 54.8715 14.5Z" fill="#5492C3"/>
<path d="M47.7906 38.5202C46.2774 38.5202 45.0513 39.7466 45.0513 41.2594V39.8641C45.0513 38.3513 43.8249 37.1249 42.3117 37.1249C40.7989 37.1249 39.5724 38.3509 39.5724 39.8641V38.6906C39.5724 37.2517 38.4631 36.0731 37.0534 35.9607C36.9807 35.9552 36.9075 35.9513 36.8332 35.9513C35.7289 35.9513 34.778 36.6054 34.3445 37.5466C34.1842 37.8949 34.0939 38.282 34.0939 38.6906V28.5857C34.0939 27.0729 32.8675 25.8464 31.3547 25.8464C29.8419 25.8464 28.6154 27.0729 28.6154 28.5857V52.1028L28.4967 52.0877L26.8092 44.8644C26.4649 43.3913 24.9913 42.4758 23.5182 42.8201C21.9712 42.8201 20.9934 44.0528 21.3451 45.5594L23.3019 53.9339C24.3252 60.4864 29.622 65.4999 29.622 65.4999H46.2646C49.0455 61.2704 50.5275 56.3195 50.5283 51.2573L50.5299 41.2594C50.5299 39.7466 49.3034 38.5202 47.7906 38.5202Z" fill="#1A4F96"/>
</g>
<defs>
<clipPath id="clip0_11_424">
<rect width="51" height="51" fill="white" transform="translate(14.5 14.5)"/>
</clipPath>
</defs>
</svg>
