<svg width="512" height="512" viewBox="0 0 512 512" fill="none" xmlns="http://www.w3.org/2000/svg">
<g clip-path="url(#clip0_64_81)">
<path d="M369.778 512H85.3338C62.539 512 41.1104 503.123 24.9937 487.005C8.87706 470.888 0.000976562 449.458 0.000976562 426.666V142.222C0.000976562 119.428 8.87806 97.9996 24.9947 81.8829C41.1114 65.7663 62.54 56.8892 85.3348 56.8892H199.112C214.823 56.8892 227.557 69.6236 227.557 85.3338C227.557 101.044 214.823 113.778 199.112 113.778H85.3338C77.7355 113.778 70.5933 116.737 65.2218 122.109C59.8502 127.481 56.8902 134.624 56.8902 142.222V426.666C56.8902 434.264 59.8492 441.407 65.2218 446.78C70.5933 452.151 77.7355 455.111 85.3338 455.111H369.777C377.375 455.111 384.517 452.152 389.89 446.778C395.262 441.407 398.221 434.263 398.221 426.665V312.889C398.221 297.178 410.956 284.445 426.666 284.445C442.376 284.445 455.112 297.179 455.112 312.889V426.666C455.112 449.46 446.235 470.888 430.117 487.006C413.999 503.123 392.57 512 369.778 512ZM199.112 341.332C191.832 341.332 184.553 338.556 178.999 333.002C167.891 321.894 167.891 303.882 178.999 292.775L414.884 56.8892H312.89C297.179 56.8892 284.446 44.1549 284.446 28.4446C284.446 12.7343 297.179 0 312.89 0H483.556C487.49 0 491.237 0.798877 494.645 2.24262C497.826 3.58799 500.813 5.53749 503.426 8.09211L503.428 8.0941C503.447 8.11298 503.466 8.13086 503.484 8.14974C503.489 8.15471 503.496 8.16067 503.5 8.16564C503.514 8.17955 503.53 8.19446 503.544 8.20936C503.554 8.2193 503.563 8.22824 503.573 8.23818C503.584 8.24911 503.596 8.26103 503.605 8.26997C503.625 8.28984 503.647 8.31071 503.666 8.33158C503.686 8.35145 503.708 8.37331 503.728 8.39318C503.739 8.40312 503.751 8.41604 503.759 8.42498C503.77 8.43491 503.778 8.44386 503.788 8.45379C503.804 8.4687 503.817 8.48261 503.831 8.49851C503.836 8.50248 503.843 8.50944 503.847 8.5144C503.866 8.53328 503.885 8.55216 503.903 8.57104L503.905 8.57303C506.458 11.1883 508.409 14.1751 509.753 17.3547C511.197 20.7629 511.997 24.5088 511.997 28.4436V199.11C511.997 214.821 499.262 227.555 483.551 227.555C467.841 227.555 455.108 214.821 455.108 199.11V97.1163L219.22 333.003C213.671 338.557 206.392 341.332 199.112 341.332Z" fill="white"/>
</g>
<defs>
<clipPath id="clip0_64_81">
<rect width="512" height="512" fill="white"/>
</clipPath>
</defs>
</svg>
