<svg width="64" height="72" viewBox="0 0 64 72" fill="none" xmlns="http://www.w3.org/2000/svg">
<path fill-rule="evenodd" clip-rule="evenodd" d="M16.9525 36.9849C15.6678 37.2835 10.0873 39.0995 9.27566 39.7809C7.91159 40.9257 8.96485 47.3538 9.34217 48.7138C12.4884 60.0539 24.4033 63.8482 35.267 60.3681C38.6242 59.2925 43.526 56.6119 46.1673 54.1599C47.5382 52.8875 48.1517 52.2855 45.9359 53.1779C44.9173 53.5885 43.8104 54.1104 42.8019 54.4538C30.8585 58.5141 16.5175 54.1423 16.9525 36.9849Z" fill="white"/>
<path fill-rule="evenodd" clip-rule="evenodd" d="M35.9037 1.39835C51.0558 4.62325 54.7143 17.8052 48.6982 29.3034C47.934 30.7639 46.3725 32.6322 46.0331 33.8442L53.1854 35.6677C55.526 33.5571 58.1476 28.3852 59.1981 24.6181C61.8509 15.1022 58.248 5.18721 48.8699 1.42346C43.5195 -0.723765 39.8161 0.0173115 35.9675 0.695953C33.9811 1.04613 33.899 0.971482 35.9037 1.39835Z" fill="white"/>
<path fill-rule="evenodd" clip-rule="evenodd" d="M5.05399 23.356C7.8086 18.9252 15.3517 13.7295 20.5766 11.9487C24.6023 10.5765 29.1308 10.2657 33.4056 11.5232C39.3403 13.2694 40.7858 16.8112 42.1581 17.4892L47.7487 10.9185C41.7678 -0.463632 21.7106 -0.443272 10.4309 12.5459C8.98943 14.2059 7.66744 15.8333 6.55243 17.9248C5.95794 19.0405 5.48696 19.8956 4.97798 21.1341C4.71467 21.7734 4.42082 22.3733 4.24573 22.9346C3.66549 24.7961 3.98106 25.0818 5.05467 23.356" fill="white"/>
<path fill-rule="evenodd" clip-rule="evenodd" d="M2.18011 47.8166C3.35687 50.5984 6.67814 54.4239 9.62074 56.0112C12.4982 57.5633 11.8426 56.6369 10.5247 54.8297C10.013 54.128 9.48908 53.355 9.01878 52.3472C2.50043 38.3631 14.0604 22.6091 24.0229 19.8627C23.8451 18.7673 21.1719 14.5489 20.3582 13.647C16.0047 14.1023 9.52165 20.2854 7.50202 22.4619C1.47228 28.9626 -1.36647 39.432 2.18011 47.8166Z" fill="white"/>
<path fill-rule="evenodd" clip-rule="evenodd" d="M29.4325 53.6882C45.3263 56.4299 58.4288 46.0121 62.3446 33.4511C63.3245 30.3069 63.9278 23.7519 62.6377 20.056C61.8078 17.6767 61.5064 17.8111 61.2608 20.0947C61.1047 21.545 60.9981 23.2375 60.6575 24.5934C58.4763 33.276 51.7211 41.1034 43.1695 44.4105C38.0797 46.3792 36.0194 45.9489 30.5115 45.708C29.9231 47.0836 29.235 52.0696 29.4318 53.6882" fill="white"/>
</svg>
