<svg width="190" height="64" viewBox="0 0 190 64" fill="none" xmlns="http://www.w3.org/2000/svg">
<path fill-rule="evenodd" clip-rule="evenodd" d="M16.9705 38.4177C15.6351 38.7278 9.83455 40.6142 8.99088 41.322C7.57301 42.5112 8.6678 49.1883 9.06001 50.601C12.3303 62.3804 24.7151 66.3217 36.0073 62.7068C39.497 61.5895 44.5921 58.805 47.3376 56.2581C48.7625 54.9363 49.4002 54.311 47.097 55.238C46.0382 55.6645 44.8877 56.2066 43.8394 56.5633C31.425 60.7809 16.5183 56.2397 16.9705 38.4177Z" fill="white"/>
<path fill-rule="evenodd" clip-rule="evenodd" d="M36.6695 1.45252C52.4192 4.80235 56.222 18.4949 49.9686 30.4386C49.1743 31.9556 47.5512 33.8963 47.1985 35.1553L54.6328 37.0494C57.0657 34.8571 59.7907 29.4848 60.8827 25.5717C63.6401 15.6872 59.8951 5.38815 50.1471 1.4786C44.5856 -0.751803 40.7362 0.0179821 36.7358 0.722913C34.6711 1.08666 34.5858 1.00912 36.6695 1.45252Z" fill="white"/>
<path fill-rule="evenodd" clip-rule="evenodd" d="M4.60304 24.2605C7.46629 19.658 15.3069 14.2611 20.7378 12.4114C24.9223 10.986 29.6295 10.6631 34.0729 11.9694C40.2417 13.7831 41.7442 17.4622 43.1705 18.1664L48.9817 11.3413C42.7649 -0.481843 21.9166 -0.460694 10.192 13.0317C8.6937 14.756 7.31956 16.4464 6.16058 18.619C5.54264 19.7779 5.05309 20.6661 4.52403 21.9526C4.25033 22.6166 3.94489 23.2398 3.76289 23.8228C3.15977 25.7564 3.48779 26.0532 4.60374 24.2605" fill="white"/>
<path fill-rule="evenodd" clip-rule="evenodd" d="M1.61543 49.6691C2.8386 52.5587 6.29087 56.5324 9.34952 58.1812C12.3404 59.7934 11.659 58.8311 10.2891 56.9539C9.75725 56.225 9.21267 55.4221 8.72382 54.3753C1.94838 39.8494 13.9643 23.4852 24.3197 20.6323C24.1349 19.4945 21.3563 15.1127 20.5105 14.1758C15.9853 14.6489 9.24653 21.0715 7.14724 23.3322C0.879686 30.0847 -2.07103 40.9597 1.61543 49.6691Z" fill="white"/>
<path fill-rule="evenodd" clip-rule="evenodd" d="M29.9426 55.7682C46.4633 58.6161 60.0826 47.7947 64.1528 34.7471C65.1714 31.4812 65.7985 24.6722 64.4575 20.8332C63.5948 18.3617 63.2816 18.5013 63.0263 20.8734C62.864 22.3798 62.7533 24.1379 62.3992 25.5464C60.132 34.5653 53.1103 42.6959 44.2215 46.1311C38.9309 48.1761 36.7893 47.7291 31.0642 47.4789C30.4526 48.9078 29.7374 54.0869 29.9419 55.7682" fill="white"/>
<path fill-rule="evenodd" clip-rule="evenodd" d="M186.243 59.701L186.411 58.8253H185.058C184.926 58.8253 184.81 58.8392 184.712 58.8657C184.62 58.8922 184.539 58.9314 184.473 58.9831C184.404 59.0335 184.35 59.0978 184.307 59.1753C184.261 59.2575 184.227 59.3563 184.205 59.471C184.183 59.591 184.181 59.6924 184.202 59.7739C184.22 59.8449 184.257 59.9039 184.311 59.9483C184.373 60.0007 184.461 60.0418 184.575 60.0703C184.699 60.1008 184.852 60.1173 185.034 60.1173C185.239 60.1173 185.42 60.1061 185.575 60.0849C185.726 60.0636 185.852 60.0318 185.952 59.992C186.042 59.9562 186.112 59.9118 186.159 59.8601C186.201 59.8164 186.228 59.7633 186.242 59.7023M186.67 57.4789C186.701 57.3118 186.708 57.1653 186.689 57.0427C186.67 56.9267 186.63 56.8286 186.569 56.7497C186.509 56.6728 186.427 56.6125 186.326 56.5727C186.216 56.5296 186.08 56.507 185.919 56.507C185.811 56.507 185.706 56.515 185.604 56.5309C185.497 56.5475 185.389 56.5727 185.282 56.6045C185.172 56.637 185.069 56.6761 184.974 56.7198C184.874 56.7662 184.779 56.818 184.692 56.8743L184.589 56.9413L183.628 56.1835L183.769 56.0457C183.91 55.9078 184.069 55.7838 184.239 55.6777C184.409 55.5717 184.595 55.4795 184.795 55.4039C184.995 55.3277 185.203 55.2707 185.417 55.2329C185.631 55.1951 185.851 55.1759 186.075 55.1759C186.322 55.1759 186.55 55.1984 186.755 55.2422C186.964 55.2866 187.154 55.3555 187.321 55.447C187.492 55.5405 187.637 55.6559 187.756 55.7917C187.874 55.9283 187.966 56.0874 188.03 56.2644C188.093 56.4394 188.129 56.631 188.137 56.8385C188.145 57.0427 188.127 57.2634 188.082 57.4975L187.354 61.2934H185.938L185.978 61.0832C185.901 61.1263 185.822 61.1648 185.74 61.1979C185.645 61.2363 185.543 61.2688 185.435 61.2947C185.33 61.3219 185.217 61.3424 185.101 61.3557C184.983 61.3683 184.861 61.3756 184.737 61.3756C184.372 61.3756 184.055 61.3365 183.791 61.2589C183.515 61.178 183.292 61.054 183.126 60.8883C182.955 60.7199 182.845 60.5071 182.792 60.2526C182.742 60.0093 182.749 59.7275 182.809 59.4093C182.866 59.1104 182.961 58.8465 183.091 58.6185C183.222 58.3878 183.391 58.1935 183.596 58.0391C183.799 57.8846 184.039 57.7699 184.314 57.6937C184.584 57.6188 184.888 57.581 185.224 57.581H186.649L186.668 57.4809L186.67 57.4789ZM179.108 61.3729C178.937 61.3729 178.768 61.3636 178.606 61.3464C178.444 61.3285 178.288 61.3026 178.143 61.2688C177.995 61.2344 177.853 61.1906 177.718 61.1396C177.58 61.0859 177.449 61.0236 177.328 60.9546C177.203 60.883 177.086 60.8041 176.978 60.7173C176.869 60.6291 176.766 60.5317 176.672 60.4256L176.563 60.3036L177.613 59.2582L177.735 59.3662C177.859 59.4769 177.986 59.5744 178.113 59.6566C178.241 59.7388 178.371 59.8077 178.501 59.8608C178.632 59.9151 178.763 59.9562 178.895 59.9828C179.026 60.0093 179.162 60.0225 179.301 60.0225C179.509 60.0225 179.696 60.006 179.857 59.9741C180.014 59.943 180.147 59.8972 180.252 59.8389C180.353 59.7832 180.434 59.7143 180.494 59.6321C180.553 59.5505 180.593 59.4524 180.615 59.3411C180.628 59.2748 180.628 59.2184 180.618 59.1747C180.61 59.1422 180.594 59.115 180.57 59.0951C180.53 59.0593 180.484 59.0295 180.431 59.0063C180.376 58.9811 180.311 58.9619 180.24 58.9493L179.934 58.9068L179.514 58.8671L179.242 58.8505C179.058 58.8366 178.886 58.8147 178.73 58.7875C178.569 58.7583 178.424 58.7232 178.296 58.6821C178.155 58.6364 178.031 58.5694 177.923 58.4832C177.815 58.3977 177.723 58.2897 177.647 58.1644C177.568 58.0338 177.522 57.8766 177.507 57.697C177.493 57.5279 177.507 57.3344 177.548 57.1176C177.589 56.9055 177.649 56.7079 177.728 56.5283C177.808 56.3466 177.907 56.1822 178.024 56.0384C178.141 55.8932 178.277 55.7646 178.431 55.6559C178.584 55.5478 178.756 55.4563 178.946 55.3847C179.132 55.3144 179.337 55.2614 179.56 55.2256C179.781 55.1911 180.019 55.1726 180.27 55.1726C180.419 55.1726 180.567 55.1805 180.714 55.1945C180.859 55.209 181.001 55.2309 181.135 55.2588C181.272 55.2873 181.404 55.3231 181.53 55.3662C181.658 55.4086 181.781 55.4596 181.898 55.5146C182.137 55.63 182.36 55.7752 182.565 55.9489L182.709 56.0715L181.637 57.1229L181.518 57.0361C181.4 56.9492 181.28 56.873 181.162 56.81C181.044 56.7464 180.921 56.6913 180.801 56.6489C180.681 56.6071 180.56 56.5753 180.439 56.5541C180.32 56.5329 180.198 56.5223 180.076 56.5223C179.898 56.5223 179.739 56.5375 179.603 56.5667C179.473 56.5952 179.362 56.637 179.271 56.6913C179.185 56.743 179.116 56.8067 179.065 56.8823C179.014 56.9585 178.976 57.052 178.956 57.1587C178.947 57.2097 178.947 57.2515 178.955 57.2827C178.961 57.3045 178.973 57.3238 178.992 57.3384C179.024 57.3649 179.065 57.3887 179.112 57.4073C179.163 57.4278 179.221 57.4438 179.286 57.4544L179.578 57.4888C179.592 57.4895 180.112 57.514 180.185 57.5359C180.376 57.5478 180.555 57.5684 180.721 57.5949C180.894 57.6221 181.052 57.6585 181.193 57.7016C181.347 57.7487 181.483 57.8183 181.601 57.9105C181.72 58.0019 181.822 58.118 181.904 58.2552C181.99 58.3977 182.043 58.5681 182.058 58.7656C182.074 58.9512 182.058 59.1647 182.013 59.4054C181.971 59.6221 181.909 59.823 181.828 60.0053C181.745 60.1896 181.641 60.356 181.517 60.5025C181.392 60.6483 181.248 60.7776 181.083 60.8863C180.922 60.9937 180.738 61.0852 180.533 61.1588C180.335 61.2304 180.114 61.2841 179.875 61.3192C179.639 61.3537 179.383 61.3716 179.108 61.3716L179.108 61.3729ZM172.851 57.6499H174.987C174.998 57.4948 174.994 57.3536 174.976 57.2283C174.955 57.0719 174.91 56.9386 174.845 56.8325C174.785 56.7311 174.704 56.6555 174.607 56.6058C174.506 56.5554 174.382 56.5289 174.235 56.5289C174.044 56.5289 173.87 56.5601 173.714 56.6211C173.559 56.6814 173.418 56.7742 173.292 56.8962C173.165 57.0195 173.056 57.1726 172.97 57.3503C172.925 57.4424 172.885 57.5425 172.851 57.6499ZM173.406 61.3729C173.131 61.3729 172.879 61.3464 172.651 61.2947C172.419 61.2417 172.21 61.1608 172.026 61.0527C171.84 60.9427 171.683 60.8055 171.555 60.6444C171.428 60.4826 171.33 60.2957 171.263 60.0862C171.197 59.8807 171.161 59.6526 171.156 59.406C171.151 59.1634 171.176 58.9002 171.23 58.6198L171.352 57.9781C171.407 57.6877 171.485 57.4166 171.582 57.1653C171.68 56.9134 171.799 56.6814 171.937 56.4732C172.076 56.2638 172.235 56.0775 172.411 55.9164C172.588 55.7553 172.783 55.6181 172.996 55.5074C173.209 55.396 173.436 55.3118 173.675 55.2574C173.913 55.2024 174.165 55.1746 174.43 55.1746C174.694 55.1746 174.915 55.2071 175.123 55.2714C175.336 55.3376 175.526 55.4371 175.689 55.569C175.851 55.7023 175.985 55.8647 176.09 56.0549C176.194 56.2412 176.271 56.458 176.32 56.6993C176.369 56.9366 176.389 57.1978 176.382 57.4796C176.375 57.7593 176.34 58.0616 176.278 58.3838L176.18 58.8976H172.601C172.588 59.0348 172.589 59.1601 172.605 59.2721C172.628 59.4233 172.68 59.5499 172.76 59.6506C172.84 59.7527 172.948 59.8303 173.083 59.882C173.226 59.9364 173.403 59.9649 173.611 59.9649C173.712 59.9649 173.817 59.9536 173.921 59.9337C174.028 59.9125 174.138 59.88 174.249 59.8382C174.359 59.7978 174.467 59.7468 174.571 59.6878C174.676 59.6281 174.779 59.5592 174.876 59.4816L175.011 59.3755L175.819 60.3779L175.685 60.4859C175.515 60.6245 175.335 60.7498 175.147 60.8598C174.96 60.9692 174.767 61.0633 174.57 61.1396C174.372 61.2165 174.175 61.2755 173.981 61.3146C173.784 61.3537 173.593 61.3742 173.407 61.3742L173.406 61.3729ZM167.499 55.2561H168.827L168.741 55.7029C168.842 55.6207 168.947 55.5465 169.055 55.4815C169.225 55.3801 169.399 55.3032 169.574 55.2515C169.754 55.1998 169.936 55.1739 170.118 55.1739C170.256 55.1739 170.388 55.1845 170.513 55.2051C170.64 55.2256 170.757 55.2574 170.864 55.2979C170.973 55.339 171.075 55.3927 171.168 55.4556C171.261 55.5186 171.346 55.5929 171.419 55.6757L171.523 55.7931L170.345 57.0619L170.225 56.8683C170.198 56.8239 170.164 56.7848 170.124 56.7497C170.082 56.7145 170.034 56.684 169.98 56.6602C169.923 56.635 169.86 56.6144 169.792 56.6025C169.718 56.5886 169.638 56.582 169.549 56.582C169.391 56.582 169.247 56.6038 169.119 56.6463C168.992 56.6887 168.878 56.753 168.778 56.8359C168.678 56.92 168.595 57.0215 168.531 57.1375C168.465 57.2561 168.417 57.394 168.388 57.5478L167.746 60.9288L167.751 60.8698L167.671 61.2894H166.201L167.357 55.2548H167.501L167.499 55.2561ZM162.256 57.6665L161.984 59.0885C161.965 59.1912 161.957 59.2867 161.959 59.3715C161.961 59.4577 161.974 59.5366 161.996 59.6069C162.017 59.6725 162.048 59.7315 162.086 59.7812C162.123 59.8296 162.171 59.8727 162.224 59.9059C162.283 59.941 162.354 59.9695 162.433 59.9881C162.517 60.0073 162.611 60.0179 162.715 60.0179C162.88 60.0179 163.03 59.9927 163.164 59.9443C163.296 59.8959 163.416 59.823 163.522 59.7275C163.629 59.6288 163.719 59.5088 163.789 59.3696C163.862 59.225 163.918 59.058 163.954 58.8697L164.19 57.6373C164.226 57.4477 164.236 57.2794 164.218 57.1362C164.202 57.0036 164.163 56.8902 164.1 56.8001C164.039 56.7119 163.956 56.6443 163.855 56.6005C163.746 56.5535 163.61 56.5289 163.45 56.5289C163.341 56.5289 163.24 56.5395 163.148 56.5581C163.057 56.5767 162.971 56.6058 162.892 56.6429C162.815 56.6794 162.743 56.7258 162.68 56.7802C162.616 56.8345 162.557 56.9002 162.506 56.9724C162.452 57.0473 162.407 57.1302 162.37 57.219C162.334 57.3112 162.304 57.4106 162.284 57.5167L162.255 57.6658L162.256 57.6665ZM161.391 55.2561H162.719L162.637 55.6797C162.736 55.6008 162.839 55.5306 162.945 55.4682C163.113 55.3708 163.288 55.2965 163.465 55.2482C163.644 55.1978 163.826 55.1732 164.01 55.1732C164.225 55.1732 164.423 55.1984 164.603 55.2475C164.788 55.2979 164.953 55.3748 165.095 55.4769C165.238 55.5809 165.358 55.7089 165.454 55.86C165.548 56.0072 165.619 56.1789 165.665 56.3692C165.71 56.5554 165.731 56.7623 165.728 56.987C165.726 57.2071 165.7 57.4451 165.651 57.6963L165.414 58.9347C165.366 59.1859 165.3 59.4193 165.219 59.6347C165.138 59.8508 165.038 60.0524 164.922 60.2353C164.805 60.4176 164.672 60.5807 164.524 60.7206C164.376 60.8618 164.211 60.9818 164.033 61.0799C163.855 61.1774 163.664 61.2509 163.463 61.3C163.262 61.3484 163.053 61.3729 162.835 61.3729C162.644 61.3729 162.464 61.349 162.302 61.3026C162.136 61.2549 161.986 61.1813 161.855 61.0852C161.775 61.0262 161.703 60.9599 161.64 60.8857L161.119 63.603H159.648C160.178 60.8207 160.71 58.0377 161.248 55.2568H161.392L161.391 55.2561ZM157.973 57.6373C158.007 57.4564 158.015 57.2959 157.995 57.16C157.977 57.0347 157.935 56.9287 157.871 56.8425C157.806 56.759 157.721 56.6953 157.615 56.6522C157.501 56.6065 157.36 56.5826 157.195 56.5826C157.041 56.5826 156.901 56.6058 156.777 56.6516C156.654 56.6966 156.543 56.7649 156.444 56.8551C156.345 56.9459 156.261 57.0586 156.195 57.1899C156.127 57.3244 156.075 57.4815 156.041 57.6592L155.721 59.3444V59.3304L155.344 61.2907H153.872L154.572 57.638C154.607 57.455 154.616 57.2946 154.599 57.158C154.584 57.0321 154.544 56.9247 154.484 56.8385C154.425 56.7563 154.345 56.6933 154.247 56.6516C154.141 56.6065 154.008 56.5833 153.851 56.5833C153.685 56.5833 153.535 56.6045 153.403 56.6476C153.274 56.6894 153.158 56.7523 153.056 56.8352C152.956 56.9174 152.872 57.0182 152.807 57.1355C152.74 57.2555 152.691 57.394 152.662 57.5485L152.021 60.9089L152.024 60.8744L151.945 61.29H150.475L151.632 55.2554H153.102L153.016 55.7016C153.12 55.6167 153.229 55.5412 153.342 55.4755C153.513 55.3761 153.689 55.3005 153.868 55.2501C154.05 55.1984 154.235 55.1732 154.422 55.1732C154.636 55.1732 154.833 55.1978 155.011 55.2482C155.192 55.2992 155.353 55.3768 155.492 55.4795C155.633 55.5836 155.752 55.7115 155.845 55.8607C155.89 55.9343 155.931 56.0138 155.965 56.0987L156.141 55.9091C156.295 55.754 156.463 55.6207 156.642 55.5107C156.821 55.3986 157.005 55.3138 157.191 55.2588C157.38 55.2024 157.572 55.1739 157.766 55.1739C157.986 55.1739 158.188 55.1984 158.368 55.2475C158.553 55.2972 158.719 55.3748 158.864 55.4775C159.009 55.5809 159.132 55.7095 159.23 55.8607C159.325 56.0085 159.398 56.1789 159.444 56.3685C159.49 56.5568 159.511 56.7636 159.508 56.985C159.506 57.2051 159.48 57.4438 159.432 57.697L158.743 61.2907H157.273L157.973 57.638V57.6373ZM146.421 57.6499H148.557C148.568 57.4948 148.564 57.3536 148.547 57.2283C148.526 57.0719 148.481 56.9386 148.416 56.8325C148.355 56.7311 148.274 56.6555 148.177 56.6058C148.077 56.5554 147.953 56.5289 147.806 56.5289C147.615 56.5289 147.44 56.5601 147.284 56.6211C147.13 56.6814 146.989 56.7742 146.863 56.8962C146.735 57.0195 146.626 57.1726 146.54 57.3503C146.495 57.4424 146.455 57.5425 146.421 57.6499ZM146.977 61.3729C146.703 61.3729 146.451 61.3464 146.222 61.2947C145.991 61.2417 145.781 61.1608 145.597 61.0527C145.411 60.9427 145.254 60.8055 145.127 60.6444C144.999 60.4826 144.901 60.2957 144.835 60.0862C144.768 59.8807 144.732 59.6526 144.727 59.406C144.722 59.1634 144.746 58.9002 144.801 58.6198L144.924 57.9781C144.979 57.6877 145.056 57.4166 145.153 57.1653C145.251 56.9134 145.37 56.6814 145.509 56.4732C145.647 56.2638 145.806 56.0775 145.982 55.9164C146.158 55.7553 146.354 55.6181 146.567 55.5074C146.78 55.396 147.007 55.3118 147.245 55.2574C147.483 55.2024 147.736 55.1746 148 55.1746C148.264 55.1746 148.485 55.2071 148.693 55.2714C148.906 55.3376 149.097 55.4371 149.259 55.569C149.421 55.7023 149.555 55.8647 149.661 56.0549C149.765 56.2412 149.842 56.458 149.891 56.6993C149.939 56.9366 149.96 57.1978 149.953 57.4796C149.945 57.7593 149.91 58.0616 149.848 58.3838L149.75 58.8976H146.172C146.158 59.0348 146.159 59.1601 146.176 59.2721C146.199 59.4233 146.251 59.5499 146.331 59.6506C146.411 59.7527 146.519 59.8303 146.654 59.882C146.796 59.9364 146.973 59.9649 147.182 59.9649C147.282 59.9649 147.387 59.9536 147.491 59.9337C147.598 59.9125 147.709 59.88 147.82 59.8382C147.93 59.7978 148.037 59.7468 148.142 59.6878C148.247 59.6281 148.349 59.5592 148.447 59.4816L148.581 59.3755L149.39 60.3779L149.256 60.4859C149.085 60.6245 148.905 60.7498 148.717 60.8598C148.531 60.9692 148.338 61.0633 148.14 61.1396C147.943 61.2165 147.746 61.2755 147.551 61.3146C147.355 61.3537 147.163 61.3742 146.978 61.3742L146.977 61.3729ZM139.925 55.2561H141.246L140.09 61.2907H138.625L138.7 60.8989C138.628 60.9559 138.552 61.0103 138.472 61.0607C138.307 61.1641 138.131 61.243 137.945 61.2947C137.758 61.3457 137.562 61.3729 137.356 61.3729C137.017 61.3729 136.723 61.3172 136.477 61.2059C136.224 61.0912 136.022 60.9175 135.871 60.6881C135.724 60.4634 135.632 60.1936 135.598 59.882C135.566 59.5804 135.586 59.2376 135.66 58.8551L136.349 55.2561H137.82L137.118 58.9201C137.084 59.0997 137.076 59.2575 137.094 59.3914C137.112 59.5174 137.152 59.6228 137.214 59.707C137.276 59.7898 137.359 59.8542 137.461 59.8953C137.571 59.9403 137.709 59.9635 137.871 59.9635C138.034 59.9635 138.186 59.9417 138.318 59.8992C138.448 59.8575 138.564 59.7938 138.668 59.711C138.769 59.6288 138.854 59.528 138.919 59.41C138.982 59.2973 139.029 59.1667 139.061 59.0182L139.782 55.2561H139.926H139.925ZM133.215 61.3186C132.962 61.3186 132.747 61.2821 132.57 61.2105C132.38 61.1336 132.234 61.0156 132.131 60.8585C132.034 60.7073 131.974 60.523 131.954 60.3076C131.935 60.1034 131.951 59.8681 132.001 59.6056L132.575 56.6111H131.987L132.246 55.2561H132.834L133.152 53.6008H134.624L134.307 55.2561H135.166L134.907 56.6111H134.047L133.458 59.6811C133.448 59.7362 133.443 59.7839 133.446 59.8223L133.458 59.884L133.472 59.8992L133.527 59.9079H134.274L134.004 61.3192H133.215V61.3186ZM126.057 59.701L126.225 58.8253H124.872C124.74 58.8253 124.624 58.8392 124.526 58.8657C124.434 58.8922 124.353 58.9314 124.287 58.9831C124.218 59.0335 124.164 59.0978 124.121 59.1753C124.075 59.2575 124.041 59.3563 124.02 59.471C123.997 59.591 123.996 59.6924 124.017 59.7739C124.035 59.8449 124.072 59.9039 124.125 59.9483C124.188 60.0007 124.276 60.0418 124.389 60.0703C124.513 60.1008 124.666 60.1173 124.848 60.1173C125.054 60.1173 125.235 60.1061 125.389 60.0849C125.54 60.0636 125.666 60.0318 125.767 59.992C125.856 59.9562 125.926 59.9118 125.974 59.8601C126.015 59.8164 126.043 59.7633 126.056 59.7023L126.057 59.701ZM126.483 57.4789C126.515 57.3118 126.522 57.1653 126.503 57.0427C126.484 56.9267 126.444 56.8286 126.383 56.7497C126.323 56.6728 126.241 56.6125 126.139 56.5727C126.03 56.5296 125.893 56.507 125.731 56.507C125.624 56.507 125.519 56.515 125.417 56.5309C125.31 56.5475 125.202 56.5727 125.095 56.6045C124.986 56.637 124.882 56.6761 124.788 56.7198C124.687 56.7662 124.592 56.818 124.506 56.8743L124.403 56.9413L123.442 56.1835L123.582 56.0457C123.724 55.9078 123.882 55.7838 124.052 55.6777C124.223 55.5717 124.408 55.4795 124.608 55.4039C124.808 55.3277 125.016 55.2707 125.231 55.2329C125.445 55.1951 125.664 55.1759 125.889 55.1759C126.135 55.1759 126.363 55.1984 126.569 55.2422C126.778 55.2866 126.967 55.3555 127.135 55.447C127.306 55.5405 127.451 55.6559 127.569 55.7917C127.688 55.9283 127.78 56.0874 127.843 56.2644C127.906 56.4394 127.943 56.631 127.95 56.8385C127.958 57.0427 127.941 57.2634 127.895 57.4975L127.168 61.2934H125.751L125.791 61.0832C125.715 61.1263 125.635 61.1648 125.553 61.1979C125.459 61.2363 125.356 61.2688 125.249 61.2947C125.143 61.3219 125.031 61.3424 124.915 61.3557C124.797 61.3683 124.675 61.3756 124.551 61.3756C124.185 61.3756 123.868 61.3365 123.604 61.2589C123.328 61.178 123.106 61.054 122.939 60.8883C122.769 60.7199 122.658 60.5071 122.606 60.2526C122.556 60.0093 122.563 59.7275 122.623 59.4093C122.68 59.1104 122.774 58.8465 122.904 58.6185C123.035 58.3878 123.204 58.1935 123.408 58.0391C123.611 57.8846 123.851 57.7699 124.127 57.6937C124.397 57.6188 124.701 57.581 125.037 57.581H126.462L126.481 57.4809L126.483 57.4789ZM119.046 55.2561H120.373L120.288 55.7029C120.389 55.6207 120.493 55.5465 120.602 55.4815C120.771 55.3801 120.945 55.3032 121.121 55.2515C121.301 55.1998 121.483 55.1739 121.665 55.1739C121.802 55.1739 121.935 55.1845 122.06 55.2051C122.186 55.2256 122.304 55.2574 122.411 55.2979C122.519 55.339 122.622 55.3927 122.714 55.4556C122.808 55.5186 122.892 55.5929 122.965 55.6757L123.069 55.7931L121.891 57.0619L121.771 56.8683C121.744 56.8239 121.709 56.7848 121.67 56.7497C121.628 56.7145 121.579 56.684 121.526 56.6602C121.469 56.635 121.406 56.6144 121.338 56.6025C121.264 56.5886 121.183 56.582 121.095 56.582C120.937 56.582 120.793 56.6038 120.665 56.6463C120.538 56.6887 120.424 56.753 120.324 56.8359C120.224 56.92 120.141 57.0215 120.077 57.1375C120.011 57.2561 119.963 57.394 119.934 57.5478L119.291 60.9288L119.297 60.8698L119.217 61.2894H117.746L118.903 55.2548H119.047L119.046 55.2561ZM115.288 59.701L115.456 58.8253H114.103C113.971 58.8253 113.855 58.8392 113.757 58.8657C113.665 58.8922 113.584 58.9314 113.517 58.9831C113.449 59.0335 113.395 59.0978 113.352 59.1753C113.306 59.2575 113.272 59.3563 113.251 59.471C113.228 59.591 113.227 59.6924 113.247 59.7739C113.265 59.8449 113.303 59.9039 113.356 59.9483C113.419 60.0007 113.507 60.0418 113.62 60.0703C113.744 60.1008 113.898 60.1173 114.079 60.1173C114.285 60.1173 114.466 60.1061 114.621 60.0849C114.771 60.0636 114.898 60.0318 114.998 59.992C115.088 59.9562 115.157 59.9118 115.205 59.8601C115.246 59.8164 115.274 59.7633 115.287 59.7023L115.288 59.701ZM115.714 57.4789C115.746 57.3118 115.752 57.1653 115.734 57.0427C115.715 56.9267 115.675 56.8286 115.614 56.7497C115.553 56.6728 115.472 56.6125 115.37 56.5727C115.261 56.5296 115.124 56.507 114.962 56.507C114.855 56.507 114.749 56.515 114.648 56.5309C114.541 56.5475 114.433 56.5727 114.326 56.6045C114.217 56.637 114.113 56.6761 114.018 56.7198C113.918 56.7662 113.823 56.818 113.736 56.8743L113.634 56.9413L112.672 56.1835L112.813 56.0457C112.955 55.9078 113.113 55.7838 113.283 55.6777C113.454 55.5717 113.639 55.4795 113.839 55.4039C114.039 55.3277 114.247 55.2707 114.461 55.2329C114.676 55.1951 114.895 55.1759 115.12 55.1759C115.366 55.1759 115.594 55.1984 115.799 55.2422C116.008 55.2866 116.198 55.3555 116.365 55.447C116.536 55.5405 116.682 55.6559 116.8 55.7917C116.919 55.9283 117.011 56.0874 117.074 56.2644C117.137 56.4394 117.173 56.631 117.181 56.8385C117.189 57.0427 117.171 57.2634 117.126 57.4975L116.399 61.2934H114.982L115.022 61.0832C114.946 61.1263 114.866 61.1648 114.784 61.1979C114.69 61.2363 114.587 61.2688 114.479 61.2947C114.374 61.3219 114.262 61.3424 114.146 61.3557C114.028 61.3683 113.906 61.3756 113.781 61.3756C113.416 61.3756 113.099 61.3365 112.835 61.2589C112.559 61.178 112.337 61.054 112.17 60.8883C112 60.7199 111.889 60.5071 111.836 60.2526C111.787 60.0093 111.793 59.7275 111.854 59.4093C111.911 59.1104 112.005 58.8465 112.135 58.6185C112.266 58.3878 112.436 58.1935 112.64 58.0391C112.843 57.8846 113.083 57.7699 113.358 57.6937C113.628 57.6188 113.932 57.581 114.268 57.581H115.693L115.713 57.4809L115.714 57.4789ZM107.826 57.6665L107.554 59.0885C107.535 59.1912 107.527 59.2867 107.529 59.3715C107.531 59.4577 107.544 59.5366 107.566 59.6069C107.588 59.6725 107.618 59.7315 107.656 59.7812C107.693 59.8296 107.741 59.8727 107.795 59.9059C107.854 59.941 107.924 59.9695 108.004 59.9881C108.087 60.0073 108.182 60.0179 108.285 60.0179C108.451 60.0179 108.601 59.9927 108.734 59.9443C108.866 59.8959 108.986 59.823 109.092 59.7275C109.199 59.6288 109.289 59.5088 109.359 59.3696C109.433 59.225 109.488 59.058 109.524 58.8697L109.76 57.6373C109.797 57.4477 109.806 57.2794 109.789 57.1362C109.773 57.0036 109.732 56.8902 109.671 56.8001C109.609 56.7119 109.526 56.6443 109.425 56.6005C109.316 56.5535 109.18 56.5289 109.02 56.5289C108.912 56.5289 108.81 56.5395 108.719 56.5581C108.628 56.5767 108.542 56.6058 108.462 56.6429C108.385 56.6794 108.313 56.7258 108.25 56.7802C108.186 56.8345 108.128 56.9002 108.076 56.9724C108.023 57.0473 107.977 57.1302 107.94 57.219C107.905 57.3112 107.874 57.4106 107.854 57.5167L107.826 57.6658L107.826 57.6665ZM106.961 55.2561H108.289L108.207 55.6797C108.306 55.6008 108.409 55.5306 108.516 55.4682C108.683 55.3708 108.858 55.2965 109.035 55.2482C109.214 55.1978 109.397 55.1732 109.58 55.1732C109.795 55.1732 109.994 55.1984 110.173 55.2475C110.358 55.2979 110.523 55.3748 110.665 55.4769C110.808 55.5809 110.928 55.7089 111.025 55.86C111.118 56.0072 111.19 56.1789 111.235 56.3692C111.281 56.5554 111.301 56.7623 111.298 56.987C111.296 57.2071 111.27 57.4451 111.222 57.6963L110.984 58.9347C110.936 59.1859 110.871 59.4193 110.79 59.6347C110.708 59.8508 110.609 60.0524 110.492 60.2353C110.375 60.4176 110.242 60.5807 110.094 60.7206C109.947 60.8618 109.781 60.9818 109.603 61.0799C109.425 61.1774 109.234 61.2509 109.034 61.3C108.833 61.3484 108.623 61.3729 108.405 61.3729C108.214 61.3729 108.035 61.349 107.872 61.3026C107.706 61.2549 107.556 61.1813 107.425 61.0852C107.345 61.0262 107.273 60.9599 107.21 60.8857L106.689 63.603H105.219C105.749 60.8207 106.281 58.0377 106.819 55.2568H106.962L106.961 55.2561ZM99.0301 61.3729C98.8583 61.3729 98.6898 61.3636 98.5279 61.3464C98.3654 61.3285 98.2095 61.3026 98.0649 61.2688C97.9169 61.2344 97.7743 61.1906 97.6396 61.1396C97.5017 61.0859 97.371 61.0236 97.2489 60.9546C97.1235 60.883 97.0068 60.8041 96.8986 60.7173C96.7899 60.6291 96.687 60.5317 96.5928 60.4256L96.484 60.3036L97.5342 59.2582L97.6556 59.3662C97.7796 59.4769 97.907 59.5744 98.0343 59.6566C98.1617 59.7388 98.2917 59.8077 98.4224 59.8608C98.5524 59.9151 98.6838 59.9562 98.8158 59.9828C98.9471 60.0093 99.0831 60.0225 99.2218 60.0225C99.4301 60.0225 99.6165 60.006 99.7777 59.9741C99.9349 59.943 100.068 59.8972 100.173 59.8389C100.274 59.7832 100.355 59.7143 100.415 59.6321C100.474 59.5505 100.514 59.4524 100.536 59.3411C100.549 59.2748 100.549 59.2184 100.539 59.1747C100.531 59.1422 100.515 59.115 100.491 59.0951C100.451 59.0593 100.405 59.0295 100.352 59.0063C100.296 58.9811 100.232 58.9619 100.16 58.9493L99.8546 58.9068L99.4354 58.8671L99.1634 58.8505C98.979 58.8366 98.8065 58.8147 98.6513 58.7875C98.4907 58.7583 98.3455 58.7232 98.2174 58.6821C98.0768 58.6364 97.9527 58.5694 97.8446 58.4832C97.7365 58.3977 97.6443 58.2897 97.5687 58.1644C97.4897 58.0338 97.4426 57.8766 97.428 57.697C97.4148 57.5279 97.428 57.3344 97.4698 57.1176C97.5103 56.9055 97.5707 56.7079 97.6496 56.5283C97.7292 56.3466 97.8287 56.1822 97.9455 56.0384C98.0622 55.8932 98.1989 55.7646 98.3521 55.6559C98.5053 55.5478 98.6778 55.4563 98.8675 55.3847C99.0533 55.3144 99.2589 55.2614 99.4818 55.2256C99.7027 55.1911 99.9409 55.1726 100.192 55.1726C100.341 55.1726 100.489 55.1805 100.635 55.1945C100.781 55.209 100.923 55.2309 101.057 55.2588C101.193 55.2873 101.326 55.3231 101.452 55.3662C101.58 55.4086 101.703 55.4596 101.82 55.5146C102.059 55.63 102.281 55.7752 102.486 55.9489L102.631 56.0715L101.558 57.1229L101.439 57.0361C101.321 56.9492 101.202 56.873 101.084 56.81C100.965 56.7464 100.843 56.6913 100.722 56.6489C100.603 56.6071 100.482 56.5753 100.361 56.5541C100.241 56.5329 100.12 56.5223 99.9979 56.5223C99.8195 56.5223 99.6609 56.5375 99.5249 56.5667C99.3949 56.5952 99.2835 56.637 99.1926 56.6913C99.107 56.743 99.038 56.8067 98.987 56.8823C98.9352 56.9585 98.8981 57.052 98.8775 57.1587C98.8682 57.2097 98.8682 57.2515 98.8762 57.2827C98.8821 57.3045 98.8947 57.3238 98.9133 57.3384C98.9458 57.3649 98.987 57.3887 99.0334 57.4073C99.0845 57.4278 99.1428 57.4438 99.2079 57.4544L99.4997 57.4888C99.5137 57.4895 100.034 57.514 100.107 57.5359C100.298 57.5478 100.477 57.5684 100.642 57.5949C100.815 57.6221 100.973 57.6585 101.114 57.7016C101.268 57.7487 101.404 57.8183 101.522 57.9105C101.64 58.0019 101.743 58.118 101.825 58.2552C101.91 58.3977 101.964 58.5681 101.979 58.7656C101.995 58.9512 101.979 59.1647 101.934 59.4054C101.892 59.6221 101.83 59.823 101.749 60.0053C101.666 60.1896 101.562 60.356 101.438 60.5025C101.313 60.6483 101.169 60.7776 101.004 60.8863C100.843 60.9937 100.659 61.0852 100.454 61.1588C100.256 61.2304 100.035 61.2841 99.7963 61.3192C99.5601 61.3537 99.304 61.3716 99.0287 61.3716L99.0301 61.3729ZM92.7718 57.6499H94.9079C94.9185 57.4948 94.9145 57.3536 94.8973 57.2283C94.876 57.0719 94.8309 56.9386 94.7659 56.8325C94.7055 56.7311 94.6246 56.6555 94.5278 56.6058C94.4269 56.5554 94.3029 56.5289 94.1563 56.5289C93.9652 56.5289 93.7908 56.5601 93.6349 56.6211C93.4803 56.6814 93.339 56.7742 93.213 56.8962C93.0856 57.0195 92.9768 57.1726 92.8906 57.3503C92.8454 57.4424 92.8056 57.5425 92.7718 57.6499ZM93.3277 61.3729C93.0531 61.3729 92.801 61.3464 92.5728 61.2947C92.3406 61.2417 92.1317 61.1608 91.9472 61.0527C91.7615 60.9427 91.6043 60.8055 91.4769 60.6444C91.3495 60.4826 91.2514 60.2957 91.185 60.0862C91.1187 59.8807 91.0822 59.6526 91.0776 59.406C91.0729 59.1634 91.0975 58.9002 91.1512 58.6198L91.2739 57.9781C91.329 57.6877 91.4066 57.4166 91.5034 57.1653C91.6016 56.9134 91.7204 56.6814 91.859 56.4732C91.9977 56.2638 92.1562 56.0775 92.332 55.9164C92.5084 55.7553 92.7041 55.6181 92.9171 55.5074C93.13 55.396 93.3569 55.3118 93.5957 55.2574C93.8339 55.2024 94.086 55.1746 94.3506 55.1746C94.6153 55.1746 94.8356 55.2071 95.0439 55.2714C95.2568 55.3376 95.4472 55.4371 95.6097 55.569C95.7716 55.7023 95.9056 55.8647 96.0111 56.0549C96.1145 56.2412 96.1915 56.458 96.2413 56.6993C96.2897 56.9366 96.3102 57.1978 96.3029 57.4796C96.2956 57.7593 96.2605 58.0616 96.1988 58.3838L96.1006 58.8976H92.5224C92.5084 59.0348 92.5098 59.1601 92.5264 59.2721C92.5489 59.4233 92.6013 59.5499 92.6809 59.6506C92.7612 59.7527 92.8693 59.8303 93.004 59.882C93.1466 59.9364 93.3237 59.9649 93.532 59.9649C93.6335 59.9649 93.7377 59.9536 93.8425 59.9337C93.9493 59.9125 94.0601 59.88 94.1709 59.8382C94.281 59.7978 94.3885 59.7468 94.4926 59.6878C94.5981 59.6281 94.7002 59.5592 94.7978 59.4816L94.9324 59.3755L95.7411 60.3779L95.6071 60.4859C95.4366 60.6245 95.2561 60.7498 95.0684 60.8598C94.882 60.9692 94.689 61.0633 94.4913 61.1396C94.2936 61.2165 94.0966 61.2755 93.9022 61.3146C93.7058 61.3537 93.5141 61.3742 93.329 61.3742L93.3277 61.3729ZM88.6848 57.6373C88.7186 57.4564 88.7266 57.2959 88.7073 57.16C88.6894 57.0347 88.647 56.9287 88.5826 56.8425C88.5183 56.759 88.4327 56.6953 88.3272 56.6522C88.2131 56.6065 88.0725 56.5826 87.9066 56.5826C87.7527 56.5826 87.6134 56.6058 87.4887 56.6516C87.366 56.6966 87.2545 56.7649 87.1564 56.8551C87.0568 56.9459 86.9733 57.0586 86.9069 57.1899C86.8386 57.3244 86.7869 57.4815 86.753 57.6592L86.4326 59.3444V59.3304L86.0571 61.2907H84.5851L85.285 57.638C85.3195 57.455 85.3288 57.2946 85.3122 57.158C85.2963 57.0321 85.2571 56.9247 85.1968 56.8385C85.1377 56.7563 85.0581 56.6933 84.9599 56.6516C84.8538 56.6065 84.7211 56.5833 84.5639 56.5833C84.3974 56.5833 84.2481 56.6045 84.1161 56.6476C83.9868 56.6894 83.8707 56.7523 83.7692 56.8352C83.669 56.9174 83.5848 57.0182 83.5197 57.1355C83.4527 57.2555 83.4037 57.394 83.3745 57.5485L82.7337 60.9089L82.737 60.8744L82.6574 61.29H81.1873L82.3443 55.2554H83.8143L83.7287 55.7016C83.8329 55.6167 83.9416 55.5412 84.0544 55.4755C84.2256 55.3761 84.4014 55.3005 84.5811 55.2501C84.7622 55.1984 84.948 55.1732 85.1344 55.1732C85.3487 55.1732 85.5457 55.1978 85.7235 55.2482C85.9046 55.2992 86.0658 55.3768 86.2057 55.4795C86.3464 55.5836 86.4651 55.7115 86.558 55.8607C86.6038 55.9343 86.6442 56.0138 86.6787 56.0987L86.8545 55.9091C87.0084 55.754 87.1763 55.6207 87.3554 55.5107C87.5345 55.3986 87.7182 55.3138 87.904 55.2588C88.093 55.2024 88.2854 55.1739 88.4791 55.1739C88.6994 55.1739 88.901 55.1984 89.0815 55.2475C89.2659 55.2972 89.4324 55.3748 89.5777 55.4775C89.7223 55.5809 89.8457 55.7095 89.9432 55.8607C90.0387 56.0085 90.111 56.1789 90.1575 56.3685C90.2032 56.5568 90.2245 56.7636 90.2225 56.985C90.2205 57.2051 90.1939 57.4438 90.1455 57.697L89.4569 61.2907H87.9869L88.6868 57.638L88.6848 57.6373ZM77.6927 55.2561H79.0201L78.9345 55.7029C79.0353 55.6207 79.1402 55.5465 79.2483 55.4815C79.4181 55.3801 79.5919 55.3032 79.7677 55.2515C79.9475 55.1998 80.1293 55.1739 80.3117 55.1739C80.449 55.1739 80.5817 55.1845 80.7064 55.2051C80.8331 55.2256 80.9505 55.2574 81.0573 55.2979C81.1661 55.339 81.2683 55.3927 81.3611 55.4556C81.4547 55.5186 81.5389 55.5929 81.6119 55.6757L81.716 55.7931L80.5379 57.0619L80.4185 56.8683C80.3913 56.8239 80.3568 56.7848 80.317 56.7497C80.2752 56.7145 80.2268 56.684 80.1737 56.6602C80.1166 56.635 80.0536 56.6144 79.9853 56.6025C79.9117 56.5886 79.8307 56.582 79.7425 56.582C79.5846 56.582 79.44 56.6038 79.3126 56.6463C79.1853 56.6887 79.0712 56.753 78.971 56.8359C78.8715 56.92 78.7879 57.0215 78.7242 57.1375C78.6585 57.2561 78.6101 57.394 78.5809 57.5478L77.9388 60.9288L77.9441 60.8698L77.8638 61.2894H76.3938L77.5507 55.2548H77.694L77.6927 55.2561ZM72.8527 59.9635C73.0272 59.9635 73.1864 59.9364 73.329 59.8827C73.4703 59.8296 73.599 59.7487 73.7131 59.6427C73.8285 59.534 73.9247 59.4027 74.001 59.2509C74.0786 59.0951 74.1383 58.9128 74.1781 58.7066L74.3586 57.7659C74.397 57.5631 74.4077 57.3834 74.3891 57.231C74.3725 57.0891 74.33 56.9691 74.2637 56.873C74.198 56.7795 74.1098 56.7073 74.0003 56.6602C73.8843 56.6098 73.7396 56.5839 73.5672 56.5839C73.3947 56.5839 73.2322 56.6111 73.0895 56.6635C72.9482 56.7159 72.8202 56.7948 72.7081 56.8995C72.594 57.0062 72.4971 57.1355 72.4209 57.2873C72.3432 57.4418 72.2835 57.6234 72.2444 57.8302L72.064 58.7709C72.0248 58.9745 72.0142 59.1541 72.0328 59.3079C72.0494 59.4518 72.0925 59.5744 72.1588 59.6725C72.2232 59.7673 72.3114 59.8396 72.4202 59.8873C72.5363 59.9377 72.6809 59.9642 72.8527 59.9642V59.9635ZM72.6491 61.3729C72.3903 61.3729 72.1522 61.3457 71.9359 61.2947C71.7157 61.2423 71.5193 61.1614 71.3469 61.0574C71.1711 60.9486 71.0225 60.8141 70.9024 60.6556C70.7843 60.4992 70.6934 60.3175 70.6311 60.114C70.5694 59.9138 70.5355 59.6924 70.5322 59.4537C70.5289 59.2177 70.5535 58.9638 70.6052 58.692L70.783 57.7659C70.8341 57.4975 70.907 57.2469 70.9992 57.0162C71.0915 56.7855 71.2062 56.5707 71.3422 56.3764C71.4755 56.1816 71.6301 56.0085 71.8019 55.8594C71.9744 55.7089 72.1648 55.5829 72.3711 55.4808C72.5781 55.3787 72.799 55.3012 73.0331 55.2508C73.2653 55.2004 73.5114 55.1746 73.7702 55.1746C74.0289 55.1746 74.2684 55.2004 74.4826 55.2508C74.7029 55.3038 74.9005 55.3834 75.0717 55.4881C75.2475 55.5955 75.3954 55.7274 75.5142 55.8826C75.6336 56.0384 75.7258 56.2193 75.7888 56.4222C75.8505 56.6217 75.8837 56.8412 75.8876 57.0778C75.8916 57.3098 75.8684 57.5618 75.8167 57.8296L75.6362 58.7709C75.5845 59.0401 75.5122 59.2913 75.4186 59.5234C75.3251 59.758 75.2097 59.9728 75.0763 60.1664C74.9417 60.3613 74.7871 60.5337 74.6153 60.6835C74.4441 60.8326 74.2544 60.9606 74.0474 61.064C73.8398 61.1674 73.6176 61.245 73.3841 61.296C73.1506 61.3471 72.9051 61.3729 72.6477 61.3729H72.6491ZM68.3225 54.6243C68.3736 54.3559 68.4512 54.1205 68.5514 53.9183C68.6562 53.7108 68.7862 53.5358 68.9428 53.3959C69.1013 53.2541 69.2877 53.1473 69.5 53.0784C69.7077 53.0101 69.9425 52.9756 70.2012 52.9756H71.2347L70.9641 54.3863H70.0194C69.9916 54.3863 69.9657 54.3917 69.9445 54.4009C69.9239 54.4102 69.9027 54.4268 69.8841 54.448C69.8616 54.4739 69.8417 54.5063 69.8251 54.5428C69.8072 54.5813 69.7926 54.6263 69.7839 54.6767L69.6732 55.2554H70.7976L70.5482 56.5561H69.4231L68.5156 61.2894H67.0455L67.953 56.5561H67.3487L67.5981 55.2554H68.2025L68.3239 54.6243H68.3225ZM65.3612 55.2561H66.6886L65.5317 61.2907H64.0617L65.2186 55.2561H65.3619H65.3612ZM65.7984 52.9763H67.1258L66.8445 54.4414H65.3745L65.6558 52.9763H65.7991H65.7984ZM59.0877 55.2561H60.4151L60.3296 55.7023C60.4337 55.6174 60.5425 55.5418 60.6553 55.4762C60.8258 55.3768 61.0022 55.3012 61.182 55.2508C61.3631 55.1991 61.5488 55.1739 61.7352 55.1739C62.4152 55.1739 62.9028 55.4033 63.198 55.86C63.3433 56.0848 63.4328 56.3546 63.4647 56.6661C63.4965 56.9684 63.4746 57.3132 63.401 57.697L62.7124 61.2907H61.2424L61.9422 57.638C61.9767 57.4564 61.984 57.2966 61.9648 57.1607C61.9469 57.0354 61.9044 56.9293 61.8394 56.8438C61.775 56.759 61.6895 56.6947 61.5847 56.6529C61.4699 56.6071 61.3299 56.5833 61.1641 56.5833C60.9982 56.5833 60.8483 56.6045 60.7163 56.6476C60.5869 56.6894 60.4709 56.7523 60.3694 56.8352C60.2692 56.9174 60.1849 57.0182 60.1199 57.1355C60.0529 57.2555 60.0038 57.394 59.9747 57.5485L59.3338 60.9089L59.3371 60.8744L59.2575 61.29H57.7875L58.9444 55.2554H59.0877V55.2561ZM53.4192 61.3729C53.1127 61.3729 52.8315 61.3418 52.5754 61.2808C52.3153 61.2178 52.0845 61.1237 51.8835 60.999C51.6778 60.8704 51.5047 60.714 51.3661 60.529C51.2261 60.3427 51.1193 60.1286 51.047 59.888C50.9753 59.6513 50.9362 59.3894 50.9329 59.107C50.9296 58.8279 50.9581 58.525 51.0204 58.2028L52.0228 52.9763H53.4928L52.4712 58.3049C52.4195 58.5767 52.4069 58.8167 52.4348 59.0209C52.4606 59.2177 52.5243 59.3841 52.6225 59.52C52.718 59.6526 52.848 59.7527 53.0092 59.8197C53.1784 59.89 53.386 59.9251 53.6295 59.9251C53.8729 59.9251 54.1045 59.888 54.3081 59.8157C54.5111 59.7434 54.6922 59.6354 54.8521 59.4922C55.0139 59.3477 55.1493 59.172 55.2554 58.9665C55.3635 58.757 55.4445 58.5137 55.4975 58.2399L56.5065 52.9763H57.9786L56.9636 58.2671C56.9019 58.5893 56.815 58.8896 56.7055 59.1667C56.5941 59.4465 56.4588 59.7037 56.2996 59.935C56.139 60.1684 55.9566 60.3759 55.7536 60.5535C55.5526 60.7312 55.3264 60.8824 55.0796 61.0057C54.8348 61.1276 54.5728 61.2198 54.2955 61.2808C54.0189 61.3411 53.725 61.3722 53.4179 61.3722L53.4192 61.3729Z" fill="white"/>
<path d="M69.6426 50.946L77.5687 12.8726C77.8419 12.4379 78.6649 12.3413 79.1456 12.2999C82.7905 11.979 93.6457 11.9963 96.4469 14.025C100.102 16.6748 99.5696 20.7978 98.4353 24.6414C96.0319 32.8047 88.5 36.2204 80.3906 35.7926L77.5065 49.6487L76.7318 50.946H69.6426ZM81.7496 29.5545C87.4833 30.5586 91.927 26.5942 91.066 20.7771C90.6683 18.0894 85.9271 18.1618 83.9767 18.845L81.7462 29.5545H81.7496Z" fill="white"/>
<path d="M102.149 39.2152C101.558 44.4285 103.356 46.264 108.547 45.7707C110.805 45.5567 112.759 44.2111 114.934 44.0524C114.976 45.4981 116.075 47.5337 115.46 48.8724C114.713 50.4975 107.945 51.85 106.126 51.9776C86.7811 53.3612 94.9804 23.9272 108.578 22.3401C118.074 21.2291 120.844 27.0289 119.399 35.551C119.236 36.5137 118.849 39.2117 117.535 39.2117H102.146L102.149 39.2152ZM112.178 33.6948C112.219 31.7351 113.139 29.0197 110.888 27.9088C107.316 26.1491 103.941 30.4723 103.532 33.6948H112.178Z" fill="white"/>
<path d="M118.749 50.9461C119.403 43.8869 121.841 37.0416 122.854 30.0272C123.131 28.1055 123.38 26.5528 122.94 24.6207C123.196 23.6926 127.962 22.2918 128.961 22.2918C130.652 22.2918 130.216 24.4586 130.51 25.7627C135.11 21.619 146.366 19.4937 145.688 28.6575L140.712 50.9495H134.141L133.764 50.2457L137.8 31.1141C137.931 26.1768 132.492 28.6437 130.171 30.5068L125.499 50.9495H118.756L118.749 50.9461Z" fill="white"/>
<path d="M179.955 48.8794C173.945 54.1893 163.263 52.9127 165.524 42.9312C167.284 35.1612 175.11 33.5189 182.058 33.5499L182.317 33.1187C182.473 31.8869 183.348 29.0129 181.947 28.4194C178.468 26.9427 175.096 29.3993 171.655 29.5615L171.472 24.3758C175.259 22.4126 180.37 21.8605 184.589 22.347C188.808 22.8335 190.319 25.8111 189.946 29.696C189.406 35.282 186.619 41.275 186.868 46.9852C186.913 48.0306 187.812 49.0691 186.664 49.8834C186.322 50.1284 181.497 51.9984 181.21 51.9432C180.201 51.7396 180.242 49.7247 179.952 48.8794H179.955ZM180.999 38.5286C178.188 38.2768 174.201 38.8012 172.904 41.6649C170.172 47.7063 178.793 47.8098 180.145 43.3693C180.325 42.7759 181.179 38.6943 180.999 38.5286Z" fill="white"/>
<path d="M167.336 22.9991L167.806 23.7926L165.801 28.3642L159.213 28.5195C159.237 29.0094 159.202 29.4855 159.116 29.972C158.393 34.1296 156.439 39.6982 156.176 43.6246C155.966 46.7505 160.582 44.7218 162.156 44.0559C162.498 44.294 162.609 44.4941 162.674 44.9012C162.903 46.2986 162.989 48.2376 162.951 49.6764C162.391 51.5533 154.976 52.1536 153.192 51.9466C149.603 51.5291 148.271 49.0622 148.527 45.6361C148.939 40.1537 151.39 34.0778 151.951 28.5195H147.452C147.216 28.3056 148.178 23.6822 148.631 23.3131C149.52 22.5885 152.106 23.2061 153.32 22.9887C153.925 20.9462 153.998 17.4683 154.779 15.6466C154.89 15.3844 154.959 15.167 155.281 15.1118L162.322 14.3735L160.593 22.9991H167.336Z" fill="white"/>
</svg>
