<svg width="80" height="80" viewBox="0 0 80 80" fill="none" xmlns="http://www.w3.org/2000/svg">
<g clip-path="url(#clip0_11_432)">
<path fill-rule="evenodd" clip-rule="evenodd" d="M25.7143 21.5339V16.7857C25.7143 15.7995 24.9147 15 23.9286 15H16.7857C15.7995 15 15 15.7995 15 16.7857V52.9965C15.2894 52.8264 15.6014 52.6982 15.9268 52.6161L25.7143 21.5339Z" fill="#1F5092"/>
<path fill-rule="evenodd" clip-rule="evenodd" d="M38.2874 23.2142L38.9124 21.2241C39.208 20.2872 38.6884 19.288 37.7517 18.992L30.9374 16.833C29.9968 16.5377 28.9948 17.0604 28.699 18.0008L17.8633 52.4107L38.2874 23.2142Z" fill="#1F5092"/>
<path fill-rule="evenodd" clip-rule="evenodd" d="M48.6604 30.1901L49.8854 28.4427C50.157 28.0545 50.2632 27.5742 50.1807 27.1077C50.0981 26.6412 49.8335 26.2266 49.4452 25.9552L43.5934 21.8571C43.2052 21.5854 42.7249 21.4792 42.2584 21.5617C41.7919 21.6443 41.3772 21.9089 41.1059 22.2972L20.0479 52.4053L48.6604 30.1901Z" fill="#1F5092"/>
<path fill-rule="evenodd" clip-rule="evenodd" d="M56.5382 39.8857L58.1774 38.6232C58.5539 38.3348 58.8001 37.9085 58.8619 37.4384C58.9237 36.9683 58.796 36.4928 58.5068 36.1169L54.1497 30.4562C53.8638 30.0783 53.4384 29.8308 52.9686 29.7689C52.4987 29.7069 52.0237 29.8358 51.6497 30.1267L23.5918 51.9124L56.5382 39.8857Z" fill="#1F5092"/>
<path d="M19.4642 60.5357C19.9573 60.5357 20.357 60.136 20.357 59.6429C20.357 59.1498 19.9573 58.75 19.4642 58.75C18.971 58.75 18.5713 59.1498 18.5713 59.6429C18.5713 60.136 18.971 60.5357 19.4642 60.5357Z" fill="#1F5092"/>
<path fill-rule="evenodd" clip-rule="evenodd" d="M38.2139 54.2856H46.2496V64.9999H38.2139V54.2856Z" fill="#1F5092"/>
<path fill-rule="evenodd" clip-rule="evenodd" d="M28.3926 54.2856H36.4283V64.9999H28.3926V54.2856Z" fill="#1F5092"/>
<path fill-rule="evenodd" clip-rule="evenodd" d="M63.2146 54.2856H57.8574V64.9999H63.2146C64.2008 64.9999 65.0003 64.2004 65.0003 63.2142V56.0713C65.0003 55.0852 64.2008 54.2856 63.2146 54.2856Z" fill="#1F5092"/>
<path fill-rule="evenodd" clip-rule="evenodd" d="M48.0361 54.2856H56.0719V64.9999H48.0361V54.2856Z" fill="#1F5092"/>
<path d="M15 56.0713V63.2142C15 64.2004 15.7995 64.9999 16.7857 64.9999H26.6071V54.2856H16.7857C15.7995 54.2856 15 55.0852 15 56.0713ZM19.4643 56.9642C20.9436 56.9642 22.1429 58.1634 22.1429 59.6428C22.1429 61.1222 20.9437 62.3214 19.4643 62.3214C17.9849 62.3214 16.7856 61.1222 16.7856 59.6428C16.7856 58.1634 17.985 56.9642 19.4643 56.9642Z" fill="#1F5092"/>
<path fill-rule="evenodd" clip-rule="evenodd" d="M63.0246 50.8214C63.4698 50.659 63.8322 50.3264 64.032 49.8966C64.2318 49.4668 64.2526 48.9754 64.0898 48.5303L61.6434 41.824C61.481 41.3788 61.1484 41.0164 60.7186 40.8166C60.289 40.6168 59.7975 40.596 59.3523 40.7588C55.6317 42.1197 38.9772 48.1983 27.1934 52.5H58.4317L63.0246 50.8214Z" fill="#1F5092"/>
</g>
<defs>
<clipPath id="clip0_11_432">
<rect width="50" height="50" fill="white" transform="translate(15 15)"/>
</clipPath>
</defs>
</svg>
