<svg width="80" height="80" viewBox="0 0 80 80" fill="none" xmlns="http://www.w3.org/2000/svg">
<path d="M19.75 28.5588C19.0917 28.326 18.5218 27.8948 18.1188 27.3246C17.7158 26.7544 17.4996 26.0732 17.5 25.375C17.5 25.0766 17.3815 24.7905 17.1705 24.5795C16.9595 24.3685 16.6734 24.25 16.375 24.25C16.0766 24.25 15.7905 24.3685 15.5795 24.5795C15.3685 24.7905 15.25 25.0766 15.25 25.375C15.2506 26.469 15.5701 27.5391 16.1696 28.4543C16.769 29.3694 17.6223 30.0899 18.625 30.5275C18.9586 29.8485 19.3344 29.1909 19.75 28.5588Z" fill="#1F5092"/>
<path d="M65.767 33.9133C64.9473 33.9192 64.1456 33.6729 63.4707 33.2079C62.7958 32.7428 62.2805 32.0814 61.9946 31.3135C61.1551 28.9707 59.9301 26.7844 58.37 24.8449V24.4013L61.8959 18.5241C61.9956 18.3779 62.0626 18.212 62.0924 18.0377C62.1221 17.8634 62.114 17.6846 62.0685 17.5137C62.0152 17.3476 61.9272 17.1947 61.8103 17.0651C61.6934 16.9356 61.5503 16.8323 61.3905 16.7621C61.0453 16.6143 53.2291 13.3122 48.2978 17.6739C45.5639 16.8855 42.7205 16.5443 39.8776 16.6636C36.3958 16.6958 32.9549 17.4169 29.7535 18.7851C26.552 20.1533 23.6534 22.1417 21.2248 24.6354C20.3208 25.6026 19.4963 26.6409 18.7592 27.7404C18.2664 28.4705 17.8216 29.232 17.4277 30.0198C15.899 32.8553 15.1383 36.0409 15.2209 39.2608C15.5219 44.4152 17.717 49.2769 21.3851 52.9127V61.0201C21.3851 61.3469 21.515 61.6603 21.7462 61.8914C21.9774 62.1224 22.291 62.2522 22.6179 62.2522H30.8163C31.0851 62.2663 31.3511 62.1919 31.5737 62.0407C31.7964 61.8894 31.9633 61.6694 32.0491 61.4144C32.4806 60.096 33.4668 58.5559 34.9462 58.5559H43.5761C44.3942 58.5458 45.1879 58.835 45.8075 59.3691C46.5627 60.0469 47.2148 60.8314 47.743 61.6978C47.8547 61.8673 48.0066 62.0066 48.1851 62.1033C48.3636 62.2 48.5632 62.2512 48.7663 62.2522H55.9044C56.0666 62.2532 56.2275 62.2221 56.3777 62.1608C56.5279 62.0995 56.6645 62.0091 56.7797 61.8949C56.894 61.7798 56.9843 61.6432 57.0457 61.4931C57.107 61.343 57.1381 61.1823 57.1372 61.0201V52.8141C57.655 52.1365 58.8262 50.5717 59.3686 49.7954C59.6668 49.3617 60.048 48.9914 60.4903 48.7058C60.9325 48.4203 61.4271 48.2253 61.9453 48.1321L65.9766 47.4667C66.2661 47.4168 66.5282 47.2653 66.7158 47.0394C66.9034 46.8135 67.0041 46.5281 66.9999 46.2346V35.1455C66.9999 34.8187 66.87 34.5053 66.6388 34.2742C66.4076 34.0431 66.094 33.9133 65.767 33.9133ZM49.5306 25.9661C49.419 26.1356 49.2671 26.2749 49.0886 26.3716C48.9101 26.4684 48.7104 26.5195 48.5074 26.5206C48.265 26.5233 48.0279 26.4501 47.8293 26.3111C45.4216 24.8776 42.6798 24.1001 39.8776 24.0563C37.0739 24.0902 34.3296 24.8684 31.9258 26.3111C31.6551 26.4562 31.34 26.4951 31.0421 26.4202C30.7442 26.3452 30.485 26.1618 30.3154 25.9059C30.1457 25.65 30.0777 25.34 30.1248 25.0366C30.1718 24.7333 30.3305 24.4584 30.5697 24.2658C33.3729 22.5489 36.59 21.6248 39.8776 21.5921C43.1652 21.6248 46.3822 22.5489 49.1854 24.2658C49.4557 24.4464 49.6436 24.7265 49.7083 25.0449C49.7729 25.3634 49.7091 25.6945 49.5306 25.9661ZM54.0551 32.6812C53.6894 32.6812 53.3319 32.5728 53.0277 32.3697C52.7236 32.1666 52.4866 31.878 52.3466 31.5403C52.2067 31.2026 52.1701 30.831 52.2414 30.4724C52.3128 30.1139 52.4889 29.7846 52.7475 29.5261C53.0061 29.2677 53.3356 29.0916 53.6944 29.0203C54.0531 28.949 54.4249 28.9856 54.7628 29.1255C55.1007 29.2654 55.3895 29.5023 55.5927 29.8062C55.7959 30.1101 55.9044 30.4675 55.9044 30.833C55.9044 31.3232 55.7095 31.7933 55.3628 32.1399C55.0159 32.4865 54.5456 32.6812 54.0551 32.6812Z" fill="#1F5092"/>
</svg>
