<svg width="25" height="25" viewBox="0 0 25 25" fill="none" xmlns="http://www.w3.org/2000/svg">
<g clip-path="url(#clip0_63_79)">
<path d="M17.6425 14.6626C17.3455 14.5136 15.8845 13.7956 15.6125 13.6956C15.3395 13.5966 15.1415 13.5476 14.9425 13.8456C14.7455 14.1426 14.1755 14.8116 14.0025 15.0096C13.8295 15.2086 13.6555 15.2326 13.3585 15.0846C13.0615 14.9346 12.1035 14.6216 10.9685 13.6096C10.0855 12.8216 9.48854 11.8486 9.31554 11.5506C9.14254 11.2536 9.29754 11.0926 9.44554 10.9446C9.57954 10.8116 9.74354 10.5976 9.89154 10.4246C10.0405 10.2506 10.0895 10.1266 10.1895 9.92756C10.2885 9.72956 10.2395 9.55656 10.1645 9.40756C10.0895 9.25856 9.49554 7.79556 9.24854 7.20056C9.00654 6.62156 8.76154 6.70056 8.57954 6.69056C8.40654 6.68256 8.20854 6.68056 8.00954 6.68056C7.81154 6.68056 7.48954 6.75456 7.21754 7.05256C6.94554 7.34956 6.17754 8.06856 6.17754 9.53156C6.17754 10.9936 7.24254 12.4066 7.39054 12.6056C7.53954 12.8036 9.48654 15.8056 12.4675 17.0926C13.1765 17.3986 13.7295 17.5816 14.1615 17.7176C14.8735 17.9446 15.5215 17.9126 16.0325 17.8356C16.6035 17.7506 17.7905 17.1166 18.0385 16.4226C18.2865 15.7286 18.2865 15.1336 18.2115 15.0096C18.1375 14.8856 17.9405 14.8116 17.6425 14.6626ZM12.2205 22.0656H12.2165C10.4463 22.0657 8.70862 21.5897 7.18554 20.6876L6.82454 20.4736L3.08354 21.4556L4.08154 17.8076L3.84654 17.4336C2.85698 15.8578 2.33348 14.0342 2.33654 12.1736C2.33754 6.72356 6.77254 2.28956 12.2245 2.28956C14.8645 2.28956 17.3465 3.31956 19.2125 5.18756C20.1332 6.10417 20.863 7.19429 21.3595 8.3948C21.8561 9.59532 22.1097 10.8824 22.1055 12.1816C22.1025 17.6316 17.6685 22.0656 12.2205 22.0656ZM20.6335 3.76856C19.5317 2.65948 18.2208 1.7801 16.7766 1.18136C15.3325 0.582622 13.7839 0.276441 12.2205 0.280559C5.66554 0.280559 0.330539 5.61556 0.327539 12.1726C0.327539 14.2686 0.874539 16.3146 1.91554 18.1176L0.227539 24.2806L6.53254 22.6266C8.27613 23.5765 10.23 24.0743 12.2155 24.0746H12.2205C18.7745 24.0746 24.1105 18.7396 24.1135 12.1816C24.1184 10.6188 23.8133 9.07066 23.216 7.62659C22.6186 6.18252 21.7409 4.87123 20.6335 3.76856Z" fill="white"/>
</g>
<defs>
<clipPath id="clip0_63_79">
<rect width="24" height="24" fill="white" transform="translate(0.170898 0.280518)"/>
</clipPath>
</defs>
</svg>
